<?xml version="1.0" encoding="UTF-8" standalone="no"?><svg xmlns="http://www.w3.org/2000/svg" xmlns:xlink="http://www.w3.org/1999/xlink" contentScriptType="application/ecmascript" contentStyleType="text/css" height="549px" preserveAspectRatio="none" style="width:960px;height:549px;" version="1.1" viewBox="0 0 960 549" width="960px" zoomAndPan="magnify"><defs><filter height="300%" id="fvejndc8tynp8" width="300%" x="-1" y="-1"><feGaussianBlur result="blurOut" stdDeviation="2.0"/><feColorMatrix in="blurOut" result="blurOut2" type="matrix" values="0 0 0 0 0 0 0 0 0 0 0 0 0 0 0 0 0 0 .4 0"/><feOffset dx="4.0" dy="4.0" in="blurOut2" result="blurOut3"/><feBlend in="SourceGraphic" in2="blurOut3" mode="normal"/></filter></defs><g><text fill="#000000" font-family="sans-serif" font-size="18" lengthAdjust="spacingAndGlyphs" textLength="127" x="417.5" y="26.708">Add New Trail</text><line style="stroke: #A80036; stroke-width: 1.0; stroke-dasharray: 5.0,5.0;" x1="27" x2="27" y1="121.25" y2="461.7109"/><line style="stroke: #A80036; stroke-width: 1.0; stroke-dasharray: 5.0,5.0;" x1="318" x2="318" y1="121.25" y2="461.7109"/><line style="stroke: #A80036; stroke-width: 1.0; stroke-dasharray: 5.0,5.0;" x1="612" x2="612" y1="121.25" y2="461.7109"/><line style="stroke: #A80036; stroke-width: 1.0; stroke-dasharray: 5.0,5.0;" x1="918" x2="918" y1="121.25" y2="461.7109"/><text fill="#000000" font-family="sans-serif" font-size="14" lengthAdjust="spacingAndGlyphs" textLength="32" x="8" y="117.9482">User</text><ellipse cx="27" cy="47.9531" fill="#FEFECE" filter="url(#fvejndc8tynp8)" rx="8" ry="8" style="stroke: #A80036; stroke-width: 2.0;"/><path d="M27,55.9531 L27,82.9531 M14,63.9531 L40,63.9531 M27,82.9531 L14,97.9531 M27,82.9531 L40,97.9531 " fill="none" filter="url(#fvejndc8tynp8)" style="stroke: #A80036; stroke-width: 2.0;"/><text fill="#000000" font-family="sans-serif" font-size="14" lengthAdjust="spacingAndGlyphs" textLength="32" x="8" y="473.7061">User</text><ellipse cx="27" cy="487.0078" fill="#FEFECE" filter="url(#fvejndc8tynp8)" rx="8" ry="8" style="stroke: #A80036; stroke-width: 2.0;"/><path d="M27,495.0078 L27,522.0078 M14,503.0078 L40,503.0078 M27,522.0078 L14,537.0078 M27,522.0078 L40,537.0078 " fill="none" filter="url(#fvejndc8tynp8)" style="stroke: #A80036; stroke-width: 2.0;"/><text fill="#000000" font-family="sans-serif" font-size="14" lengthAdjust="spacingAndGlyphs" textLength="66" x="282" y="117.9482">TrailPanel</text><path d="M297.5,76.9531 L297.5,100.9531 M297.5,88.9531 L314.5,88.9531 " fill="none" filter="url(#fvejndc8tynp8)" style="stroke: #A80036; stroke-width: 2.0;"/><ellipse cx="326.5" cy="88.9531" fill="#FEFECE" filter="url(#fvejndc8tynp8)" rx="12" ry="12" style="stroke: #A80036; stroke-width: 2.0;"/><text fill="#000000" font-family="sans-serif" font-size="14" lengthAdjust="spacingAndGlyphs" textLength="66" x="282" y="473.7061">TrailPanel</text><path d="M297.5,481.0078 L297.5,505.0078 M297.5,493.0078 L314.5,493.0078 " fill="none" filter="url(#fvejndc8tynp8)" style="stroke: #A80036; stroke-width: 2.0;"/><ellipse cx="326.5" cy="493.0078" fill="#FEFECE" filter="url(#fvejndc8tynp8)" rx="12" ry="12" style="stroke: #A80036; stroke-width: 2.0;"/><text fill="#000000" font-family="sans-serif" font-size="14" lengthAdjust="spacingAndGlyphs" textLength="78" x="570" y="117.9482">TrailService</text><ellipse cx="612" cy="88.9531" fill="#FEFECE" filter="url(#fvejndc8tynp8)" rx="12" ry="12" style="stroke: #A80036; stroke-width: 2.0;"/><polygon fill="#A80036" points="608,76.9531,614,71.9531,612,76.9531,614,81.9531,608,76.9531" style="stroke: #A80036; stroke-width: 1.0;"/><text fill="#000000" font-family="sans-serif" font-size="14" lengthAdjust="spacingAndGlyphs" textLength="78" x="570" y="473.7061">TrailService</text><ellipse cx="612" cy="493.0078" fill="#FEFECE" filter="url(#fvejndc8tynp8)" rx="12" ry="12" style="stroke: #A80036; stroke-width: 2.0;"/><polygon fill="#A80036" points="608,481.0078,614,476.0078,612,481.0078,614,486.0078,608,481.0078" style="stroke: #A80036; stroke-width: 1.0;"/><text fill="#000000" font-family="sans-serif" font-size="14" lengthAdjust="spacingAndGlyphs" textLength="66" x="882" y="117.9482">Database</text><path d="M900,68.9531 C900,58.9531 918,58.9531 918,58.9531 C918,58.9531 936,58.9531 936,68.9531 L936,94.9531 C936,104.9531 918,104.9531 918,104.9531 C918,104.9531 900,104.9531 900,94.9531 L900,68.9531 " fill="#FEFECE" filter="url(#fvejndc8tynp8)" style="stroke: #000000; stroke-width: 1.5;"/><path d="M900,68.9531 C900,78.9531 918,78.9531 918,78.9531 C918,78.9531 936,78.9531 936,68.9531 " fill="none" style="stroke: #000000; stroke-width: 1.5;"/><text fill="#000000" font-family="sans-serif" font-size="14" lengthAdjust="spacingAndGlyphs" textLength="66" x="882" y="473.7061">Database</text><path d="M900,487.0078 C900,477.0078 918,477.0078 918,477.0078 C918,477.0078 936,477.0078 936,487.0078 L936,513.0078 C936,523.0078 918,523.0078 918,523.0078 C918,523.0078 900,523.0078 900,513.0078 L900,487.0078 " fill="#FEFECE" filter="url(#fvejndc8tynp8)" style="stroke: #000000; stroke-width: 1.5;"/><path d="M900,487.0078 C900,497.0078 918,497.0078 918,497.0078 C918,497.0078 936,497.0078 936,487.0078 " fill="none" style="stroke: #000000; stroke-width: 1.5;"/><polygon fill="#A80036" points="306,148.3828,316,152.3828,306,156.3828,310,152.3828" style="stroke: #A80036; stroke-width: 1.0;"/><line style="stroke: #A80036; stroke-width: 1.0;" x1="27" x2="312" y1="152.3828" y2="152.3828"/><text fill="#000000" font-family="sans-serif" font-size="13" lengthAdjust="spacingAndGlyphs" textLength="134" x="34" y="147.3169">chooseAddNewTrail()</text><polygon fill="#A80036" points="306,177.5156,316,181.5156,306,185.5156,310,181.5156" style="stroke: #A80036; stroke-width: 1.0;"/><line style="stroke: #A80036; stroke-width: 1.0;" x1="27" x2="312" y1="181.5156" y2="181.5156"/><text fill="#000000" font-family="sans-serif" font-size="13" lengthAdjust="spacingAndGlyphs" textLength="146" x="34" y="176.4497">enterTrailName(name)</text><polygon fill="#A80036" points="306,206.6484,316,210.6484,306,214.6484,310,210.6484" style="stroke: #A80036; stroke-width: 1.0;"/><line style="stroke: #A80036; stroke-width: 1.0;" x1="27" x2="312" y1="210.6484" y2="210.6484"/><text fill="#000000" font-family="sans-serif" font-size="13" lengthAdjust="spacingAndGlyphs" textLength="154" x="34" y="205.5825">enterTrailLength(length)</text><polygon fill="#A80036" points="306,235.7813,316,239.7813,306,243.7813,310,239.7813" style="stroke: #A80036; stroke-width: 1.0;"/><line style="stroke: #A80036; stroke-width: 1.0;" x1="27" x2="312" y1="239.7813" y2="239.7813"/><text fill="#000000" font-family="sans-serif" font-size="13" lengthAdjust="spacingAndGlyphs" textLength="216" x="34" y="234.7153">enterElevationChanges(elevation)</text><polygon fill="#A80036" points="306,264.9141,316,268.9141,306,272.9141,310,268.9141" style="stroke: #A80036; stroke-width: 1.0;"/><line style="stroke: #A80036; stroke-width: 1.0;" x1="27" x2="312" y1="268.9141" y2="268.9141"/><text fill="#000000" font-family="sans-serif" font-size="13" lengthAdjust="spacingAndGlyphs" textLength="181" x="34" y="263.8481">uploadTrailPictures(pictures)</text><polygon fill="#A80036" points="306,294.0469,316,298.0469,306,302.0469,310,298.0469" style="stroke: #A80036; stroke-width: 1.0;"/><line style="stroke: #A80036; stroke-width: 1.0;" x1="27" x2="312" y1="298.0469" y2="298.0469"/><text fill="#000000" font-family="sans-serif" font-size="13" lengthAdjust="spacingAndGlyphs" textLength="95" x="34" y="292.981">clickSaveTrail()</text><polygon fill="#A80036" points="600,323.1797,610,327.1797,600,331.1797,604,327.1797" style="stroke: #A80036; stroke-width: 1.0;"/><line style="stroke: #A80036; stroke-width: 1.0;" x1="318" x2="606" y1="327.1797" y2="327.1797"/><text fill="#000000" font-family="sans-serif" font-size="13" lengthAdjust="spacingAndGlyphs" textLength="270" x="325" y="322.1138">addTrail(name, length, elevation, pictures)</text><polygon fill="#A80036" points="906,352.3125,916,356.3125,906,360.3125,910,356.3125" style="stroke: #A80036; stroke-width: 1.0;"/><line style="stroke: #A80036; stroke-width: 1.0;" x1="612" x2="912" y1="356.3125" y2="356.3125"/><text fill="#000000" font-family="sans-serif" font-size="13" lengthAdjust="spacingAndGlyphs" textLength="282" x="619" y="351.2466">insertTrail(name, length, elevation, pictures)</text><polygon fill="#A80036" points="623,381.4453,613,385.4453,623,389.4453,619,385.4453" style="stroke: #A80036; stroke-width: 1.0;"/><line style="stroke: #A80036; stroke-width: 1.0; stroke-dasharray: 2.0,2.0;" x1="617" x2="917" y1="385.4453" y2="385.4453"/><text fill="#000000" font-family="sans-serif" font-size="13" lengthAdjust="spacingAndGlyphs" textLength="64" x="629" y="380.3794">savedTrail</text><polygon fill="#A80036" points="329,410.5781,319,414.5781,329,418.5781,325,414.5781" style="stroke: #A80036; stroke-width: 1.0;"/><line style="stroke: #A80036; stroke-width: 1.0; stroke-dasharray: 2.0,2.0;" x1="323" x2="611" y1="414.5781" y2="414.5781"/><text fill="#000000" font-family="sans-serif" font-size="13" lengthAdjust="spacingAndGlyphs" textLength="64" x="335" y="409.5122">savedTrail</text><polygon fill="#A80036" points="38,439.7109,28,443.7109,38,447.7109,34,443.7109" style="stroke: #A80036; stroke-width: 1.0;"/><line style="stroke: #A80036; stroke-width: 1.0; stroke-dasharray: 2.0,2.0;" x1="32" x2="317" y1="443.7109" y2="443.7109"/><text fill="#000000" font-family="sans-serif" font-size="13" lengthAdjust="spacingAndGlyphs" textLength="267" x="44" y="438.645">displayTrailAddedConfirmation(savedTrail)</text><!--MD5=[a14015a4ef4c873de61214fe87f9ca20]
@startuml
title Add New Trail

actor User
boundary TrailPanel
control TrailService
database Database

User -> TrailPanel : chooseAddNewTrail()

User -> TrailPanel : enterTrailName(name)
User -> TrailPanel : enterTrailLength(length)
User -> TrailPanel : enterElevationChanges(elevation)
User -> TrailPanel : uploadTrailPictures(pictures)
User -> TrailPanel : clickSaveTrail()

TrailPanel -> TrailService : addTrail(name, length, elevation, pictures)
TrailService -> Database : insertTrail(name, length, elevation, pictures)
Database - -> TrailService : savedTrail
TrailService - -> TrailPanel : savedTrail

TrailPanel - -> User : displayTrailAddedConfirmation(savedTrail)

@enduml

PlantUML version 1.2020.02(Sun Mar 01 05:22:07 EST 2020)
(GPL source distribution)
Java Runtime: OpenJDK Runtime Environment
JVM: OpenJDK 64-Bit Server VM
Java Version: 21.0.10+7-Ubuntu-124.04
Operating System: Linux
Default Encoding: UTF-8
Language: en
Country: null
--></g></svg>