<?xml version="1.0" encoding="UTF-8" standalone="no"?><svg xmlns="http://www.w3.org/2000/svg" xmlns:xlink="http://www.w3.org/1999/xlink" contentScriptType="application/ecmascript" contentStyleType="text/css" height="631px" preserveAspectRatio="none" style="width:705px;height:631px;" version="1.1" viewBox="0 0 705 631" width="705px" zoomAndPan="magnify"><defs/><g><text fill="#000000" font-family="sans-serif" font-size="18" lengthAdjust="spacingAndGlyphs" textLength="127" x="289" y="26.708">Add New Trail</text><rect fill="#FFFFFF" height="104.5313" style="stroke: #000000; stroke-width: 2.0;" width="679" x="13" y="422.4453"/><line style="stroke: #000000; stroke-width: 1.0; stroke-dasharray: 5.0,5.0;" x1="42" x2="42" y1="117.25" y2="543.9766"/><line style="stroke: #000000; stroke-width: 1.0; stroke-dasharray: 5.0,5.0;" x1="255" x2="255" y1="117.25" y2="543.9766"/><line style="stroke: #000000; stroke-width: 1.0; stroke-dasharray: 5.0,5.0;" x1="347" x2="347" y1="117.25" y2="543.9766"/><line style="stroke: #000000; stroke-width: 1.0; stroke-dasharray: 5.0,5.0;" x1="526" x2="526" y1="117.25" y2="543.9766"/><line style="stroke: #000000; stroke-width: 1.0; stroke-dasharray: 5.0,5.0;" x1="646" x2="646" y1="117.25" y2="543.9766"/><text fill="#000000" font-family="sans-serif" font-size="14" lengthAdjust="spacingAndGlyphs" textLength="32" x="23" y="113.9482">User</text><ellipse cx="42" cy="47.9531" fill="#FFFFFF" rx="8" ry="8" style="stroke: #000000; stroke-width: 2.0;"/><path d="M42,55.9531 L42,82.9531 M29,63.9531 L55,63.9531 M42,82.9531 L29,97.9531 M42,82.9531 L55,97.9531 " fill="none" style="stroke: #000000; stroke-width: 2.0;"/><text fill="#000000" font-family="sans-serif" font-size="14" lengthAdjust="spacingAndGlyphs" textLength="32" x="23" y="555.9717">User</text><ellipse cx="42" cy="569.2734" fill="#FFFFFF" rx="8" ry="8" style="stroke: #000000; stroke-width: 2.0;"/><path d="M42,577.2734 L42,604.2734 M29,585.2734 L55,585.2734 M42,604.2734 L29,619.2734 M42,604.2734 L55,619.2734 " fill="none" style="stroke: #000000; stroke-width: 2.0;"/><text fill="#000000" font-family="sans-serif" font-size="14" lengthAdjust="spacingAndGlyphs" textLength="86" x="209" y="113.9482">SearchPanel</text><path d="M234.5,72.9531 L234.5,96.9531 M234.5,84.9531 L251.5,84.9531 " fill="none" style="stroke: #000000; stroke-width: 2.0;"/><ellipse cx="263.5" cy="84.9531" fill="#FFFFFF" rx="12" ry="12" style="stroke: #000000; stroke-width: 2.0;"/><text fill="#000000" font-family="sans-serif" font-size="14" lengthAdjust="spacingAndGlyphs" textLength="86" x="209" y="555.9717">SearchPanel</text><path d="M234.5,563.2734 L234.5,587.2734 M234.5,575.2734 L251.5,575.2734 " fill="none" style="stroke: #000000; stroke-width: 2.0;"/><ellipse cx="263.5" cy="575.2734" fill="#FFFFFF" rx="12" ry="12" style="stroke: #000000; stroke-width: 2.0;"/><text fill="#000000" font-family="sans-serif" font-size="14" lengthAdjust="spacingAndGlyphs" textLength="66" x="311" y="113.9482">TrailPanel</text><path d="M326.5,72.9531 L326.5,96.9531 M326.5,84.9531 L343.5,84.9531 " fill="none" style="stroke: #000000; stroke-width: 2.0;"/><ellipse cx="355.5" cy="84.9531" fill="#FFFFFF" rx="12" ry="12" style="stroke: #000000; stroke-width: 2.0;"/><text fill="#000000" font-family="sans-serif" font-size="14" lengthAdjust="spacingAndGlyphs" textLength="66" x="311" y="555.9717">TrailPanel</text><path d="M326.5,563.2734 L326.5,587.2734 M326.5,575.2734 L343.5,575.2734 " fill="none" style="stroke: #000000; stroke-width: 2.0;"/><ellipse cx="355.5" cy="575.2734" fill="#FFFFFF" rx="12" ry="12" style="stroke: #000000; stroke-width: 2.0;"/><text fill="#000000" font-family="sans-serif" font-size="14" lengthAdjust="spacingAndGlyphs" textLength="78" x="484" y="113.9482">TrailService</text><ellipse cx="526" cy="84.9531" fill="#FFFFFF" rx="12" ry="12" style="stroke: #000000; stroke-width: 2.0;"/><polygon fill="#000000" points="522,72.9531,528,67.9531,526,72.9531,528,77.9531,522,72.9531" style="stroke: #000000; stroke-width: 1.0;"/><text fill="#000000" font-family="sans-serif" font-size="14" lengthAdjust="spacingAndGlyphs" textLength="78" x="484" y="555.9717">TrailService</text><ellipse cx="526" cy="575.2734" fill="#FFFFFF" rx="12" ry="12" style="stroke: #000000; stroke-width: 2.0;"/><polygon fill="#000000" points="522,563.2734,528,558.2734,526,563.2734,528,568.2734,522,563.2734" style="stroke: #000000; stroke-width: 1.0;"/><text fill="#000000" font-family="sans-serif" font-size="14" lengthAdjust="spacingAndGlyphs" textLength="66" x="610" y="113.9482">Database</text><path d="M628,64.9531 C628,54.9531 646,54.9531 646,54.9531 C646,54.9531 664,54.9531 664,64.9531 L664,90.9531 C664,100.9531 646,100.9531 646,100.9531 C646,100.9531 628,100.9531 628,90.9531 L628,64.9531 " fill="#FFFFFF" style="stroke: #000000; stroke-width: 1.5;"/><path d="M628,64.9531 C628,74.9531 646,74.9531 646,74.9531 C646,74.9531 664,74.9531 664,64.9531 " fill="none" style="stroke: #000000; stroke-width: 1.5;"/><text fill="#000000" font-family="sans-serif" font-size="14" lengthAdjust="spacingAndGlyphs" textLength="66" x="610" y="555.9717">Database</text><path d="M628,569.2734 C628,559.2734 646,559.2734 646,559.2734 C646,559.2734 664,559.2734 664,569.2734 L664,595.2734 C664,605.2734 646,605.2734 646,605.2734 C646,605.2734 628,605.2734 628,595.2734 L628,569.2734 " fill="#FFFFFF" style="stroke: #000000; stroke-width: 1.5;"/><path d="M628,569.2734 C628,579.2734 646,579.2734 646,579.2734 C646,579.2734 664,579.2734 664,569.2734 " fill="none" style="stroke: #000000; stroke-width: 1.5;"/><polygon fill="#000000" points="243,144.3828,253,148.3828,243,152.3828,247,148.3828" style="stroke: #000000; stroke-width: 1.0;"/><line style="stroke: #000000; stroke-width: 1.0;" x1="42" x2="249" y1="148.3828" y2="148.3828"/><text fill="#000000" font-family="sans-serif" font-size="13" lengthAdjust="spacingAndGlyphs" textLength="98" x="99.5" y="143.3169">click "New Trail"</text><polygon fill="#000000" points="243,173.5156,253,177.5156,243,181.5156,247,177.5156" style="stroke: #000000; stroke-width: 1.0;"/><line style="stroke: #000000; stroke-width: 1.0;" x1="42" x2="249" y1="177.5156" y2="177.5156"/><text fill="#000000" font-family="sans-serif" font-size="13" lengthAdjust="spacingAndGlyphs" textLength="189" x="54" y="172.4497">enter name, length, elevation</text><line style="stroke: #000000; stroke-width: 1.0;" x1="255" x2="297" y1="206.6484" y2="206.6484"/><line style="stroke: #000000; stroke-width: 1.0;" x1="297" x2="297" y1="206.6484" y2="219.6484"/><line style="stroke: #000000; stroke-width: 1.0;" x1="256" x2="297" y1="219.6484" y2="219.6484"/><polygon fill="#000000" points="266,215.6484,256,219.6484,266,223.6484,262,219.6484" style="stroke: #000000; stroke-width: 1.0;"/><text fill="#000000" font-family="sans-serif" font-size="13" lengthAdjust="spacingAndGlyphs" textLength="75" x="262" y="201.5825">nextTrailId()</text><polygon fill="#000000" points="514,244.7813,524,248.7813,514,252.7813,518,248.7813" style="stroke: #000000; stroke-width: 1.0;"/><line style="stroke: #000000; stroke-width: 1.0;" x1="255" x2="520" y1="248.7813" y2="248.7813"/><text fill="#000000" font-family="sans-serif" font-size="13" lengthAdjust="spacingAndGlyphs" textLength="247" x="267" y="243.7153">createTrail(name, id, length, elevation)</text><polygon fill="#000000" points="634,273.9141,644,277.9141,634,281.9141,638,277.9141" style="stroke: #000000; stroke-width: 1.0;"/><line style="stroke: #000000; stroke-width: 1.0;" x1="526" x2="640" y1="277.9141" y2="277.9141"/><text fill="#000000" font-family="sans-serif" font-size="13" lengthAdjust="spacingAndGlyphs" textLength="96" x="538" y="272.8481">insertTrail(trail)</text><line style="stroke: #000000; stroke-width: 1.0;" x1="646" x2="688" y1="307.0469" y2="307.0469"/><line style="stroke: #000000; stroke-width: 1.0;" x1="688" x2="688" y1="307.0469" y2="320.0469"/><line style="stroke: #000000; stroke-width: 1.0;" x1="647" x2="688" y1="320.0469" y2="320.0469"/><polygon fill="#000000" points="657,316.0469,647,320.0469,657,324.0469,653,320.0469" style="stroke: #000000; stroke-width: 1.0;"/><text fill="#000000" font-family="sans-serif" font-size="13" lengthAdjust="spacingAndGlyphs" textLength="40" x="653" y="301.981">save()</text><polygon fill="#000000" points="537,345.1797,527,349.1797,537,353.1797,533,349.1797" style="stroke: #000000; stroke-width: 1.0;"/><line style="stroke: #000000; stroke-width: 1.0; stroke-dasharray: 2.0,2.0;" x1="531" x2="645" y1="349.1797" y2="349.1797"/><text fill="#000000" font-family="sans-serif" font-size="13" lengthAdjust="spacingAndGlyphs" textLength="15" x="578.5" y="344.1138">ok</text><polygon fill="#000000" points="266,374.3125,256,378.3125,266,382.3125,262,378.3125" style="stroke: #000000; stroke-width: 1.0;"/><line style="stroke: #000000; stroke-width: 1.0; stroke-dasharray: 2.0,2.0;" x1="260" x2="525" y1="378.3125" y2="378.3125"/><text fill="#000000" font-family="sans-serif" font-size="13" lengthAdjust="spacingAndGlyphs" textLength="15" x="383" y="373.2466">ok</text><polygon fill="#000000" points="53,403.4453,43,407.4453,53,411.4453,49,407.4453" style="stroke: #000000; stroke-width: 1.0;"/><line style="stroke: #000000; stroke-width: 1.0; stroke-dasharray: 2.0,2.0;" x1="47" x2="254" y1="407.4453" y2="407.4453"/><text fill="#000000" font-family="sans-serif" font-size="13" lengthAdjust="spacingAndGlyphs" textLength="149" x="74" y="402.3794">list refreshes (new trail)</text><path d="M13,422.4453 L83,422.4453 L83,429.4453 L73,439.4453 L13,439.4453 L13,422.4453 " fill="#EEEEEE" style="stroke: #000000; stroke-width: 1.0;"/><rect fill="none" height="104.5313" style="stroke: #000000; stroke-width: 2.0;" width="679" x="13" y="422.4453"/><text fill="#000000" font-family="sans-serif" font-size="13" font-weight="bold" lengthAdjust="spacingAndGlyphs" textLength="25" x="28" y="435.5122">opt</text><text fill="#000000" font-family="sans-serif" font-size="11" font-weight="bold" lengthAdjust="spacingAndGlyphs" textLength="116" x="98" y="434.6558">[add photos later]</text><polygon fill="#000000" points="335,456.7109,345,460.7109,335,464.7109,339,460.7109" style="stroke: #000000; stroke-width: 1.0;"/><line style="stroke: #000000; stroke-width: 1.0;" x1="42" x2="341" y1="460.7109" y2="460.7109"/><text fill="#000000" font-family="sans-serif" font-size="13" lengthAdjust="spacingAndGlyphs" textLength="177" x="106" y="455.645">open trail, "Add Trail Image"</text><polygon fill="#000000" points="514,485.8438,524,489.8438,514,493.8438,518,489.8438" style="stroke: #000000; stroke-width: 1.0;"/><line style="stroke: #000000; stroke-width: 1.0;" x1="347" x2="520" y1="489.8438" y2="489.8438"/><text fill="#000000" font-family="sans-serif" font-size="13" lengthAdjust="spacingAndGlyphs" textLength="66" x="403.5" y="484.7778">saveTrail()</text><polygon fill="#000000" points="634,514.9766,644,518.9766,634,522.9766,638,518.9766" style="stroke: #000000; stroke-width: 1.0;"/><line style="stroke: #000000; stroke-width: 1.0;" x1="526" x2="640" y1="518.9766" y2="518.9766"/><text fill="#000000" font-family="sans-serif" font-size="13" lengthAdjust="spacingAndGlyphs" textLength="40" x="566" y="513.9106">save()</text><!--MD5=[901b58a9a17ed97fde9bda2045956152]
@startuml

skinparam BackgroundColor white
skinparam shadowing false
skinparam defaultFontName SansSerif
skinparam ArrowColor black
skinparam ArrowThickness 1

skinparam classAttributeIconSize 0
skinparam class {
  BackgroundColor white
  BorderColor black
  FontColor black
}
skinparam package {
  BackgroundColor white
  BorderColor black
  FontColor black
}
skinparam stereotype {
  BackgroundColor white
  FontColor black
}

skinparam sequenceMessageAlign center
skinparam LifeLineBorderColor black
skinparam LifeLineBackgroundColor white
skinparam sequence {
  ArrowColor black
  LifeLineBorderColor black
}
skinparam participant {
  BackgroundColor white
  BorderColor black
  FontColor black
}
skinparam actor {
  BackgroundColor white
  BorderColor black
  FontColor black
}
skinparam boundary {
  BackgroundColor white
  BorderColor black
  FontColor black
}
skinparam control {
  BackgroundColor white
  BorderColor black
  FontColor black
}
skinparam database {
  BackgroundColor white
  BorderColor black
  FontColor black
}
skinparam entity {
  BackgroundColor white
  BorderColor black
  FontColor black
}
skinparam collections {
  BackgroundColor white
  BorderColor black
  FontColor black
}
skinparam note {
  BackgroundColor white
  BorderColor black
  FontColor black
}

title Add New Trail

actor User
boundary SearchPanel
boundary TrailPanel
control TrailService
database Database

User -> SearchPanel : click "New Trail"
User -> SearchPanel : enter name, length, elevation
SearchPanel -> SearchPanel : nextTrailId()
SearchPanel -> TrailService : createTrail(name, id, length, elevation)
TrailService -> Database : insertTrail(trail)
Database -> Database : save()
Database - -> TrailService : ok
TrailService - -> SearchPanel : ok

SearchPanel - -> User : list refreshes (new trail)

opt add photos later
  User -> TrailPanel : open trail, "Add Trail Image"
  TrailPanel -> TrailService : saveTrail()
  TrailService -> Database : save()
end

@enduml

PlantUML version 1.2020.02(Sun Mar 01 05:22:07 EST 2020)
(GPL source distribution)
Java Runtime: OpenJDK Runtime Environment
JVM: OpenJDK 64-Bit Server VM
Java Version: 21.0.10+7-Ubuntu-124.04
Operating System: Linux
Default Encoding: UTF-8
Language: en
Country: null
--></g></svg>