<?xml version="1.0" encoding="UTF-8" standalone="no"?><svg xmlns="http://www.w3.org/2000/svg" xmlns:xlink="http://www.w3.org/1999/xlink" contentScriptType="application/ecmascript" contentStyleType="text/css" height="636px" preserveAspectRatio="none" style="width:1203px;height:636px;" version="1.1" viewBox="0 0 1203 636" width="1203px" zoomAndPan="magnify"><defs><filter height="300%" id="flssaq5rp1nvu" width="300%" x="-1" y="-1"><feGaussianBlur result="blurOut" stdDeviation="2.0"/><feColorMatrix in="blurOut" result="blurOut2" type="matrix" values="0 0 0 0 0 0 0 0 0 0 0 0 0 0 0 0 0 0 .4 0"/><feOffset dx="4.0" dy="4.0" in="blurOut2" result="blurOut3"/><feBlend in="SourceGraphic" in2="blurOut3" mode="normal"/></filter></defs><g><text fill="#000000" font-family="sans-serif" font-size="18" lengthAdjust="spacingAndGlyphs" textLength="302" x="451.5" y="26.708">Add Wildlife Information to a Trail</text><line style="stroke: #A80036; stroke-width: 1.0; stroke-dasharray: 5.0,5.0;" x1="27" x2="27" y1="121.25" y2="549.1094"/><line style="stroke: #A80036; stroke-width: 1.0; stroke-dasharray: 5.0,5.0;" x1="248" x2="248" y1="121.25" y2="549.1094"/><line style="stroke: #A80036; stroke-width: 1.0; stroke-dasharray: 5.0,5.0;" x1="424.5" x2="424.5" y1="121.25" y2="549.1094"/><line style="stroke: #A80036; stroke-width: 1.0; stroke-dasharray: 5.0,5.0;" x1="786.5" x2="786.5" y1="121.25" y2="549.1094"/><line style="stroke: #A80036; stroke-width: 1.0; stroke-dasharray: 5.0,5.0;" x1="1161" x2="1161" y1="121.25" y2="549.1094"/><text fill="#000000" font-family="sans-serif" font-size="14" lengthAdjust="spacingAndGlyphs" textLength="32" x="8" y="117.9482">User</text><ellipse cx="27" cy="47.9531" fill="#FEFECE" filter="url(#flssaq5rp1nvu)" rx="8" ry="8" style="stroke: #A80036; stroke-width: 2.0;"/><path d="M27,55.9531 L27,82.9531 M14,63.9531 L40,63.9531 M27,82.9531 L14,97.9531 M27,82.9531 L40,97.9531 " fill="none" filter="url(#flssaq5rp1nvu)" style="stroke: #A80036; stroke-width: 2.0;"/><text fill="#000000" font-family="sans-serif" font-size="14" lengthAdjust="spacingAndGlyphs" textLength="32" x="8" y="561.1045">User</text><ellipse cx="27" cy="574.4063" fill="#FEFECE" filter="url(#flssaq5rp1nvu)" rx="8" ry="8" style="stroke: #A80036; stroke-width: 2.0;"/><path d="M27,582.4063 L27,609.4063 M14,590.4063 L40,590.4063 M27,609.4063 L14,624.4063 M27,609.4063 L40,624.4063 " fill="none" filter="url(#flssaq5rp1nvu)" style="stroke: #A80036; stroke-width: 2.0;"/><text fill="#000000" font-family="sans-serif" font-size="14" lengthAdjust="spacingAndGlyphs" textLength="66" x="212" y="117.9482">TrailPanel</text><path d="M227.5,76.9531 L227.5,100.9531 M227.5,88.9531 L244.5,88.9531 " fill="none" filter="url(#flssaq5rp1nvu)" style="stroke: #A80036; stroke-width: 2.0;"/><ellipse cx="256.5" cy="88.9531" fill="#FEFECE" filter="url(#flssaq5rp1nvu)" rx="12" ry="12" style="stroke: #A80036; stroke-width: 2.0;"/><text fill="#000000" font-family="sans-serif" font-size="14" lengthAdjust="spacingAndGlyphs" textLength="66" x="212" y="561.1045">TrailPanel</text><path d="M227.5,568.4063 L227.5,592.4063 M227.5,580.4063 L244.5,580.4063 " fill="none" filter="url(#flssaq5rp1nvu)" style="stroke: #A80036; stroke-width: 2.0;"/><ellipse cx="256.5" cy="580.4063" fill="#FEFECE" filter="url(#flssaq5rp1nvu)" rx="12" ry="12" style="stroke: #A80036; stroke-width: 2.0;"/><text fill="#000000" font-family="sans-serif" font-size="14" lengthAdjust="spacingAndGlyphs" textLength="85" x="379.5" y="117.9482">WildlifePanel</text><path d="M404.5,76.9531 L404.5,100.9531 M404.5,88.9531 L421.5,88.9531 " fill="none" filter="url(#flssaq5rp1nvu)" style="stroke: #A80036; stroke-width: 2.0;"/><ellipse cx="433.5" cy="88.9531" fill="#FEFECE" filter="url(#flssaq5rp1nvu)" rx="12" ry="12" style="stroke: #A80036; stroke-width: 2.0;"/><text fill="#000000" font-family="sans-serif" font-size="14" lengthAdjust="spacingAndGlyphs" textLength="85" x="379.5" y="561.1045">WildlifePanel</text><path d="M404.5,568.4063 L404.5,592.4063 M404.5,580.4063 L421.5,580.4063 " fill="none" filter="url(#flssaq5rp1nvu)" style="stroke: #A80036; stroke-width: 2.0;"/><ellipse cx="433.5" cy="580.4063" fill="#FEFECE" filter="url(#flssaq5rp1nvu)" rx="12" ry="12" style="stroke: #A80036; stroke-width: 2.0;"/><text fill="#000000" font-family="sans-serif" font-size="14" lengthAdjust="spacingAndGlyphs" textLength="97" x="735.5" y="117.9482">WildlifeService</text><ellipse cx="787" cy="88.9531" fill="#FEFECE" filter="url(#flssaq5rp1nvu)" rx="12" ry="12" style="stroke: #A80036; stroke-width: 2.0;"/><polygon fill="#A80036" points="783,76.9531,789,71.9531,787,76.9531,789,81.9531,783,76.9531" style="stroke: #A80036; stroke-width: 1.0;"/><text fill="#000000" font-family="sans-serif" font-size="14" lengthAdjust="spacingAndGlyphs" textLength="97" x="735.5" y="561.1045">WildlifeService</text><ellipse cx="787" cy="580.4063" fill="#FEFECE" filter="url(#flssaq5rp1nvu)" rx="12" ry="12" style="stroke: #A80036; stroke-width: 2.0;"/><polygon fill="#A80036" points="783,568.4063,789,563.4063,787,568.4063,789,573.4063,783,568.4063" style="stroke: #A80036; stroke-width: 1.0;"/><text fill="#000000" font-family="sans-serif" font-size="14" lengthAdjust="spacingAndGlyphs" textLength="66" x="1125" y="117.9482">Database</text><path d="M1143,68.9531 C1143,58.9531 1161,58.9531 1161,58.9531 C1161,58.9531 1179,58.9531 1179,68.9531 L1179,94.9531 C1179,104.9531 1161,104.9531 1161,104.9531 C1161,104.9531 1143,104.9531 1143,94.9531 L1143,68.9531 " fill="#FEFECE" filter="url(#flssaq5rp1nvu)" style="stroke: #000000; stroke-width: 1.5;"/><path d="M1143,68.9531 C1143,78.9531 1161,78.9531 1161,78.9531 C1161,78.9531 1179,78.9531 1179,68.9531 " fill="none" style="stroke: #000000; stroke-width: 1.5;"/><text fill="#000000" font-family="sans-serif" font-size="14" lengthAdjust="spacingAndGlyphs" textLength="66" x="1125" y="561.1045">Database</text><path d="M1143,574.4063 C1143,564.4063 1161,564.4063 1161,564.4063 C1161,564.4063 1179,564.4063 1179,574.4063 L1179,600.4063 C1179,610.4063 1161,610.4063 1161,610.4063 C1161,610.4063 1143,610.4063 1143,600.4063 L1143,574.4063 " fill="#FEFECE" filter="url(#flssaq5rp1nvu)" style="stroke: #000000; stroke-width: 1.5;"/><path d="M1143,574.4063 C1143,584.4063 1161,584.4063 1161,584.4063 C1161,584.4063 1179,584.4063 1179,574.4063 " fill="none" style="stroke: #000000; stroke-width: 1.5;"/><polygon fill="#A80036" points="236,148.3828,246,152.3828,236,156.3828,240,152.3828" style="stroke: #A80036; stroke-width: 1.0;"/><line style="stroke: #A80036; stroke-width: 1.0;" x1="27" x2="242" y1="152.3828" y2="152.3828"/><text fill="#000000" font-family="sans-serif" font-size="13" lengthAdjust="spacingAndGlyphs" textLength="152" x="34" y="147.3169">openExistingTrail(trailId)</text><polygon fill="#A80036" points="38,177.5156,28,181.5156,38,185.5156,34,181.5156" style="stroke: #A80036; stroke-width: 1.0;"/><line style="stroke: #A80036; stroke-width: 1.0; stroke-dasharray: 2.0,2.0;" x1="32" x2="247" y1="181.5156" y2="181.5156"/><text fill="#000000" font-family="sans-serif" font-size="13" lengthAdjust="spacingAndGlyphs" textLength="115" x="44" y="176.4497">displayTrail(trailId)</text><polygon fill="#A80036" points="236,206.6484,246,210.6484,236,214.6484,240,210.6484" style="stroke: #A80036; stroke-width: 1.0;"/><line style="stroke: #A80036; stroke-width: 1.0;" x1="27" x2="242" y1="210.6484" y2="210.6484"/><text fill="#000000" font-family="sans-serif" font-size="13" lengthAdjust="spacingAndGlyphs" textLength="197" x="34" y="205.5825">chooseAddWildlifeInformation()</text><polygon fill="#A80036" points="413,235.7813,423,239.7813,413,243.7813,417,239.7813" style="stroke: #A80036; stroke-width: 1.0;"/><line style="stroke: #A80036; stroke-width: 1.0;" x1="248" x2="419" y1="239.7813" y2="239.7813"/><text fill="#000000" font-family="sans-serif" font-size="13" lengthAdjust="spacingAndGlyphs" textLength="153" x="255" y="234.7153">openWildlifeForm(trailId)</text><polygon fill="#A80036" points="413,264.9141,423,268.9141,413,272.9141,417,268.9141" style="stroke: #A80036; stroke-width: 1.0;"/><line style="stroke: #A80036; stroke-width: 1.0;" x1="27" x2="419" y1="268.9141" y2="268.9141"/><text fill="#000000" font-family="sans-serif" font-size="13" lengthAdjust="spacingAndGlyphs" textLength="163" x="34" y="263.8481">enterWildlifeName(name)</text><polygon fill="#A80036" points="413,294.0469,423,298.0469,413,302.0469,417,298.0469" style="stroke: #A80036; stroke-width: 1.0;"/><line style="stroke: #A80036; stroke-width: 1.0;" x1="27" x2="419" y1="298.0469" y2="298.0469"/><text fill="#000000" font-family="sans-serif" font-size="13" lengthAdjust="spacingAndGlyphs" textLength="229" x="34" y="292.981">enterWildlifeDescription(description)</text><polygon fill="#A80036" points="413,323.1797,423,327.1797,413,331.1797,417,327.1797" style="stroke: #A80036; stroke-width: 1.0;"/><line style="stroke: #A80036; stroke-width: 1.0;" x1="27" x2="419" y1="327.1797" y2="327.1797"/><text fill="#000000" font-family="sans-serif" font-size="13" lengthAdjust="spacingAndGlyphs" textLength="183" x="34" y="322.1138">enterEncounterNotes(notes)</text><polygon fill="#A80036" points="413,352.3125,423,356.3125,413,360.3125,417,356.3125" style="stroke: #A80036; stroke-width: 1.0;"/><line style="stroke: #A80036; stroke-width: 1.0;" x1="27" x2="419" y1="356.3125" y2="356.3125"/><text fill="#000000" font-family="sans-serif" font-size="13" lengthAdjust="spacingAndGlyphs" textLength="198" x="34" y="351.2466">uploadWildlifePictures(pictures)</text><polygon fill="#A80036" points="413,381.4453,423,385.4453,413,389.4453,417,385.4453" style="stroke: #A80036; stroke-width: 1.0;"/><line style="stroke: #A80036; stroke-width: 1.0;" x1="27" x2="419" y1="385.4453" y2="385.4453"/><text fill="#000000" font-family="sans-serif" font-size="13" lengthAdjust="spacingAndGlyphs" textLength="112" x="34" y="380.3794">clickSaveWildlife()</text><polygon fill="#A80036" points="775,410.5781,785,414.5781,775,418.5781,779,414.5781" style="stroke: #A80036; stroke-width: 1.0;"/><line style="stroke: #A80036; stroke-width: 1.0;" x1="425" x2="781" y1="414.5781" y2="414.5781"/><text fill="#000000" font-family="sans-serif" font-size="13" lengthAdjust="spacingAndGlyphs" textLength="338" x="432" y="409.5122">addWildlife(trailId, name, description, notes, pictures)</text><polygon fill="#A80036" points="1149,439.7109,1159,443.7109,1149,447.7109,1153,443.7109" style="stroke: #A80036; stroke-width: 1.0;"/><line style="stroke: #A80036; stroke-width: 1.0;" x1="787" x2="1155" y1="443.7109" y2="443.7109"/><text fill="#000000" font-family="sans-serif" font-size="13" lengthAdjust="spacingAndGlyphs" textLength="350" x="794" y="438.645">insertWildlife(trailId, name, description, notes, pictures)</text><polygon fill="#A80036" points="798,468.8438,788,472.8438,798,476.8438,794,472.8438" style="stroke: #A80036; stroke-width: 1.0;"/><line style="stroke: #A80036; stroke-width: 1.0; stroke-dasharray: 2.0,2.0;" x1="792" x2="1160" y1="472.8438" y2="472.8438"/><text fill="#000000" font-family="sans-serif" font-size="13" lengthAdjust="spacingAndGlyphs" textLength="81" x="804" y="467.7778">savedWildlife</text><polygon fill="#A80036" points="436,497.9766,426,501.9766,436,505.9766,432,501.9766" style="stroke: #A80036; stroke-width: 1.0;"/><line style="stroke: #A80036; stroke-width: 1.0; stroke-dasharray: 2.0,2.0;" x1="430" x2="786" y1="501.9766" y2="501.9766"/><text fill="#000000" font-family="sans-serif" font-size="13" lengthAdjust="spacingAndGlyphs" textLength="81" x="442" y="496.9106">savedWildlife</text><polygon fill="#A80036" points="38,527.1094,28,531.1094,38,535.1094,34,531.1094" style="stroke: #A80036; stroke-width: 1.0;"/><line style="stroke: #A80036; stroke-width: 1.0; stroke-dasharray: 2.0,2.0;" x1="32" x2="424" y1="531.1094" y2="531.1094"/><text fill="#000000" font-family="sans-serif" font-size="13" lengthAdjust="spacingAndGlyphs" textLength="301" x="44" y="526.0435">displayWildlifeAddedConfirmation(savedWildlife)</text><!--MD5=[8422c64db04374c6aa5bc2e211c6611c]
@startuml
title Add Wildlife Information to a Trail

actor User
boundary TrailPanel
boundary WildlifePanel
control WildlifeService
database Database

User -> TrailPanel : openExistingTrail(trailId)
TrailPanel - -> User : displayTrail(trailId)

User -> TrailPanel : chooseAddWildlifeInformation()
TrailPanel -> WildlifePanel : openWildlifeForm(trailId)

User -> WildlifePanel : enterWildlifeName(name)
User -> WildlifePanel : enterWildlifeDescription(description)
User -> WildlifePanel : enterEncounterNotes(notes)
User -> WildlifePanel : uploadWildlifePictures(pictures)
User -> WildlifePanel : clickSaveWildlife()

WildlifePanel -> WildlifeService : addWildlife(trailId, name, description, notes, pictures)
WildlifeService -> Database : insertWildlife(trailId, name, description, notes, pictures)
Database - -> WildlifeService : savedWildlife
WildlifeService - -> WildlifePanel : savedWildlife

WildlifePanel - -> User : displayWildlifeAddedConfirmation(savedWildlife)

@enduml

PlantUML version 1.2020.02(Sun Mar 01 05:22:07 EST 2020)
(GPL source distribution)
Java Runtime: OpenJDK Runtime Environment
JVM: OpenJDK 64-Bit Server VM
Java Version: 21.0.10+7-Ubuntu-124.04
Operating System: Linux
Default Encoding: UTF-8
Language: en
Country: null
--></g></svg>