<?xml version="1.0" encoding="UTF-8" standalone="no"?><svg xmlns="http://www.w3.org/2000/svg" xmlns:xlink="http://www.w3.org/1999/xlink" contentScriptType="application/ecmascript" contentStyleType="text/css" height="777px" preserveAspectRatio="none" style="width:935px;height:777px;" version="1.1" viewBox="0 0 935 777" width="935px" zoomAndPan="magnify"><defs/><g><text fill="#000000" font-family="sans-serif" font-size="18" lengthAdjust="spacingAndGlyphs" textLength="489" x="223.5" y="26.708">Add Wildlife to a Trail (new species or existing catalog)</text><rect fill="#FFFFFF" height="451.7969" style="stroke: #000000; stroke-width: 2.0;" width="910" x="13" y="192.5156"/><rect fill="#FFFFFF" height="217.7344" style="stroke: none; stroke-width: 1.0;" width="910" x="13" y="426.5781"/><line style="stroke: #000000; stroke-width: 1.0; stroke-dasharray: 5.0,5.0;" x1="42" x2="42" y1="117.25" y2="690.4453"/><line style="stroke: #000000; stroke-width: 1.0; stroke-dasharray: 5.0,5.0;" x1="279" x2="279" y1="117.25" y2="690.4453"/><line style="stroke: #000000; stroke-width: 1.0; stroke-dasharray: 5.0,5.0;" x1="458.5" x2="458.5" y1="117.25" y2="690.4453"/><line style="stroke: #000000; stroke-width: 1.0; stroke-dasharray: 5.0,5.0;" x1="644" x2="644" y1="117.25" y2="690.4453"/><line style="stroke: #000000; stroke-width: 1.0; stroke-dasharray: 5.0,5.0;" x1="864" x2="864" y1="117.25" y2="690.4453"/><text fill="#000000" font-family="sans-serif" font-size="14" lengthAdjust="spacingAndGlyphs" textLength="32" x="23" y="113.9482">User</text><ellipse cx="42" cy="47.9531" fill="#FFFFFF" rx="8" ry="8" style="stroke: #000000; stroke-width: 2.0;"/><path d="M42,55.9531 L42,82.9531 M29,63.9531 L55,63.9531 M42,82.9531 L29,97.9531 M42,82.9531 L55,97.9531 " fill="none" style="stroke: #000000; stroke-width: 2.0;"/><text fill="#000000" font-family="sans-serif" font-size="14" lengthAdjust="spacingAndGlyphs" textLength="32" x="23" y="702.4404">User</text><ellipse cx="42" cy="715.7422" fill="#FFFFFF" rx="8" ry="8" style="stroke: #000000; stroke-width: 2.0;"/><path d="M42,723.7422 L42,750.7422 M29,731.7422 L55,731.7422 M42,750.7422 L29,765.7422 M42,750.7422 L55,765.7422 " fill="none" style="stroke: #000000; stroke-width: 2.0;"/><text fill="#000000" font-family="sans-serif" font-size="14" lengthAdjust="spacingAndGlyphs" textLength="66" x="243" y="113.9482">TrailPanel</text><path d="M258.5,72.9531 L258.5,96.9531 M258.5,84.9531 L275.5,84.9531 " fill="none" style="stroke: #000000; stroke-width: 2.0;"/><ellipse cx="287.5" cy="84.9531" fill="#FFFFFF" rx="12" ry="12" style="stroke: #000000; stroke-width: 2.0;"/><text fill="#000000" font-family="sans-serif" font-size="14" lengthAdjust="spacingAndGlyphs" textLength="66" x="243" y="702.4404">TrailPanel</text><path d="M258.5,709.7422 L258.5,733.7422 M258.5,721.7422 L275.5,721.7422 " fill="none" style="stroke: #000000; stroke-width: 2.0;"/><ellipse cx="287.5" cy="721.7422" fill="#FFFFFF" rx="12" ry="12" style="stroke: #000000; stroke-width: 2.0;"/><text fill="#000000" font-family="sans-serif" font-size="14" lengthAdjust="spacingAndGlyphs" textLength="85" x="413.5" y="113.9482">WildlifePanel</text><path d="M438.5,72.9531 L438.5,96.9531 M438.5,84.9531 L455.5,84.9531 " fill="none" style="stroke: #000000; stroke-width: 2.0;"/><ellipse cx="467.5" cy="84.9531" fill="#FFFFFF" rx="12" ry="12" style="stroke: #000000; stroke-width: 2.0;"/><text fill="#000000" font-family="sans-serif" font-size="14" lengthAdjust="spacingAndGlyphs" textLength="85" x="413.5" y="702.4404">WildlifePanel</text><path d="M438.5,709.7422 L438.5,733.7422 M438.5,721.7422 L455.5,721.7422 " fill="none" style="stroke: #000000; stroke-width: 2.0;"/><ellipse cx="467.5" cy="721.7422" fill="#FFFFFF" rx="12" ry="12" style="stroke: #000000; stroke-width: 2.0;"/><text fill="#000000" font-family="sans-serif" font-size="14" lengthAdjust="spacingAndGlyphs" textLength="78" x="602" y="113.9482">TrailService</text><ellipse cx="644" cy="84.9531" fill="#FFFFFF" rx="12" ry="12" style="stroke: #000000; stroke-width: 2.0;"/><polygon fill="#000000" points="640,72.9531,646,67.9531,644,72.9531,646,77.9531,640,72.9531" style="stroke: #000000; stroke-width: 1.0;"/><text fill="#000000" font-family="sans-serif" font-size="14" lengthAdjust="spacingAndGlyphs" textLength="78" x="602" y="702.4404">TrailService</text><ellipse cx="644" cy="721.7422" fill="#FFFFFF" rx="12" ry="12" style="stroke: #000000; stroke-width: 2.0;"/><polygon fill="#000000" points="640,709.7422,646,704.7422,644,709.7422,646,714.7422,640,709.7422" style="stroke: #000000; stroke-width: 1.0;"/><text fill="#000000" font-family="sans-serif" font-size="14" lengthAdjust="spacingAndGlyphs" textLength="66" x="828" y="113.9482">Database</text><path d="M846,64.9531 C846,54.9531 864,54.9531 864,54.9531 C864,54.9531 882,54.9531 882,64.9531 L882,90.9531 C882,100.9531 864,100.9531 864,100.9531 C864,100.9531 846,100.9531 846,90.9531 L846,64.9531 " fill="#FFFFFF" style="stroke: #000000; stroke-width: 1.5;"/><path d="M846,64.9531 C846,74.9531 864,74.9531 864,74.9531 C864,74.9531 882,74.9531 882,64.9531 " fill="none" style="stroke: #000000; stroke-width: 1.5;"/><text fill="#000000" font-family="sans-serif" font-size="14" lengthAdjust="spacingAndGlyphs" textLength="66" x="828" y="702.4404">Database</text><path d="M846,715.7422 C846,705.7422 864,705.7422 864,705.7422 C864,705.7422 882,705.7422 882,715.7422 L882,741.7422 C882,751.7422 864,751.7422 864,751.7422 C864,751.7422 846,751.7422 846,741.7422 L846,715.7422 " fill="#FFFFFF" style="stroke: #000000; stroke-width: 1.5;"/><path d="M846,715.7422 C846,725.7422 864,725.7422 864,725.7422 C864,725.7422 882,725.7422 882,715.7422 " fill="none" style="stroke: #000000; stroke-width: 1.5;"/><polygon fill="#000000" points="267,144.3828,277,148.3828,267,152.3828,271,148.3828" style="stroke: #000000; stroke-width: 1.0;"/><line style="stroke: #000000; stroke-width: 1.0;" x1="42" x2="273" y1="148.3828" y2="148.3828"/><text fill="#000000" font-family="sans-serif" font-size="13" lengthAdjust="spacingAndGlyphs" textLength="150" x="85.5" y="143.3169">open trail, "Add Wildlife"</text><polygon fill="#000000" points="267,173.5156,277,177.5156,267,181.5156,271,177.5156" style="stroke: #000000; stroke-width: 1.0;"/><line style="stroke: #000000; stroke-width: 1.0;" x1="42" x2="273" y1="177.5156" y2="177.5156"/><text fill="#000000" font-family="sans-serif" font-size="13" lengthAdjust="spacingAndGlyphs" textLength="213" x="54" y="172.4497">choose "from list" or "create new"</text><path d="M13,192.5156 L77,192.5156 L77,199.5156 L67,209.5156 L13,209.5156 L13,192.5156 " fill="#EEEEEE" style="stroke: #000000; stroke-width: 1.0;"/><rect fill="none" height="451.7969" style="stroke: #000000; stroke-width: 2.0;" width="910" x="13" y="192.5156"/><text fill="#000000" font-family="sans-serif" font-size="13" font-weight="bold" lengthAdjust="spacingAndGlyphs" textLength="19" x="28" y="205.5825">alt</text><text fill="#000000" font-family="sans-serif" font-size="11" font-weight="bold" lengthAdjust="spacingAndGlyphs" textLength="159" x="92" y="204.7261">[attach existing species]</text><polygon fill="#000000" points="632,226.7813,642,230.7813,632,234.7813,636,230.7813" style="stroke: #000000; stroke-width: 1.0;"/><line style="stroke: #000000; stroke-width: 1.0;" x1="279" x2="638" y1="230.7813" y2="230.7813"/><text fill="#000000" font-family="sans-serif" font-size="13" lengthAdjust="spacingAndGlyphs" textLength="86" x="418.5" y="225.7153">listAllWildlife()</text><polygon fill="#000000" points="852,255.9141,862,259.9141,852,263.9141,856,259.9141" style="stroke: #000000; stroke-width: 1.0;"/><line style="stroke: #000000; stroke-width: 1.0;" x1="644" x2="858" y1="259.9141" y2="259.9141"/><text fill="#000000" font-family="sans-serif" font-size="13" lengthAdjust="spacingAndGlyphs" textLength="89" x="709.5" y="254.8481">getAllWildlife()</text><polygon fill="#000000" points="655,285.0469,645,289.0469,655,293.0469,651,289.0469" style="stroke: #000000; stroke-width: 1.0;"/><line style="stroke: #000000; stroke-width: 1.0; stroke-dasharray: 2.0,2.0;" x1="649" x2="863" y1="289.0469" y2="289.0469"/><text fill="#000000" font-family="sans-serif" font-size="13" lengthAdjust="spacingAndGlyphs" textLength="47" x="730.5" y="283.981">catalog</text><polygon fill="#000000" points="267,314.1797,277,318.1797,267,322.1797,271,318.1797" style="stroke: #000000; stroke-width: 1.0;"/><line style="stroke: #000000; stroke-width: 1.0;" x1="42" x2="273" y1="318.1797" y2="318.1797"/><text fill="#000000" font-family="sans-serif" font-size="13" lengthAdjust="spacingAndGlyphs" textLength="167" x="77" y="313.1138">pick wildlife not yet on trail</text><polygon fill="#000000" points="632,343.3125,642,347.3125,632,351.3125,636,347.3125" style="stroke: #000000; stroke-width: 1.0;"/><line style="stroke: #000000; stroke-width: 1.0;" x1="279" x2="638" y1="347.3125" y2="347.3125"/><text fill="#000000" font-family="sans-serif" font-size="13" lengthAdjust="spacingAndGlyphs" textLength="279" x="322" y="342.2466">attachExistingWildlifeToTrail(trailId, wildlifeId)</text><polygon fill="#000000" points="852,372.4453,862,376.4453,852,380.4453,856,376.4453" style="stroke: #000000; stroke-width: 1.0;"/><line style="stroke: #000000; stroke-width: 1.0;" x1="644" x2="858" y1="376.4453" y2="376.4453"/><text fill="#000000" font-family="sans-serif" font-size="13" lengthAdjust="spacingAndGlyphs" textLength="196" x="656" y="371.3794">attachExistingWildlifeToTrail(...)</text><line style="stroke: #000000; stroke-width: 1.0;" x1="864" x2="906" y1="405.5781" y2="405.5781"/><line style="stroke: #000000; stroke-width: 1.0;" x1="906" x2="906" y1="405.5781" y2="418.5781"/><line style="stroke: #000000; stroke-width: 1.0;" x1="865" x2="906" y1="418.5781" y2="418.5781"/><polygon fill="#000000" points="875,414.5781,865,418.5781,875,422.5781,871,418.5781" style="stroke: #000000; stroke-width: 1.0;"/><text fill="#000000" font-family="sans-serif" font-size="13" lengthAdjust="spacingAndGlyphs" textLength="40" x="871" y="400.5122">save()</text><line style="stroke: #000000; stroke-width: 1.0; stroke-dasharray: 2.0,2.0;" x1="13" x2="923" y1="427.5781" y2="427.5781"/><text fill="#000000" font-family="sans-serif" font-size="11" font-weight="bold" lengthAdjust="spacingAndGlyphs" textLength="135" x="18" y="437.7886">[create new species]</text><polygon fill="#000000" points="447,458.5156,457,462.5156,447,466.5156,451,462.5156" style="stroke: #000000; stroke-width: 1.0;"/><line style="stroke: #000000; stroke-width: 1.0;" x1="279" x2="453" y1="462.5156" y2="462.5156"/><text fill="#000000" font-family="sans-serif" font-size="13" lengthAdjust="spacingAndGlyphs" textLength="156" x="291" y="457.4497">open form (trail context)</text><polygon fill="#000000" points="447,502.7813,457,506.7813,447,510.7813,451,506.7813" style="stroke: #000000; stroke-width: 1.0;"/><line style="stroke: #000000; stroke-width: 1.0;" x1="42" x2="453" y1="506.7813" y2="506.7813"/><text fill="#000000" font-family="sans-serif" font-size="13" lengthAdjust="spacingAndGlyphs" textLength="201" x="150" y="486.5825">enter name, description, notes,</text><text fill="#000000" font-family="sans-serif" font-size="13" lengthAdjust="spacingAndGlyphs" textLength="152" x="176.5" y="501.7153">optionally choose photo</text><polygon fill="#000000" points="632,531.9141,642,535.9141,632,539.9141,636,535.9141" style="stroke: #000000; stroke-width: 1.0;"/><line style="stroke: #000000; stroke-width: 1.0;" x1="459" x2="638" y1="535.9141" y2="535.9141"/><text fill="#000000" font-family="sans-serif" font-size="13" lengthAdjust="spacingAndGlyphs" textLength="161" x="471" y="530.8481">addWildlife(trailId, wildlife)</text><polygon fill="#000000" points="852,561.0469,862,565.0469,852,569.0469,856,565.0469" style="stroke: #000000; stroke-width: 1.0;"/><line style="stroke: #000000; stroke-width: 1.0;" x1="644" x2="858" y1="565.0469" y2="565.0469"/><text fill="#000000" font-family="sans-serif" font-size="13" lengthAdjust="spacingAndGlyphs" textLength="101" x="703.5" y="559.981">insertWildlife(...)</text><line style="stroke: #000000; stroke-width: 1.0;" x1="864" x2="906" y1="594.1797" y2="594.1797"/><line style="stroke: #000000; stroke-width: 1.0;" x1="906" x2="906" y1="594.1797" y2="607.1797"/><line style="stroke: #000000; stroke-width: 1.0;" x1="865" x2="906" y1="607.1797" y2="607.1797"/><polygon fill="#000000" points="875,603.1797,865,607.1797,875,611.1797,871,607.1797" style="stroke: #000000; stroke-width: 1.0;"/><text fill="#000000" font-family="sans-serif" font-size="13" lengthAdjust="spacingAndGlyphs" textLength="40" x="871" y="589.1138">save()</text><polygon fill="#000000" points="290,632.3125,280,636.3125,290,640.3125,286,636.3125" style="stroke: #000000; stroke-width: 1.0;"/><line style="stroke: #000000; stroke-width: 1.0; stroke-dasharray: 2.0,2.0;" x1="284" x2="458" y1="636.3125" y2="636.3125"/><text fill="#000000" font-family="sans-serif" font-size="13" lengthAdjust="spacingAndGlyphs" textLength="115" x="311.5" y="631.2466">return to trail view</text><polygon fill="#000000" points="53,668.4453,43,672.4453,53,676.4453,49,672.4453" style="stroke: #000000; stroke-width: 1.0;"/><line style="stroke: #000000; stroke-width: 1.0; stroke-dasharray: 2.0,2.0;" x1="47" x2="278" y1="672.4453" y2="672.4453"/><text fill="#000000" font-family="sans-serif" font-size="13" lengthAdjust="spacingAndGlyphs" textLength="127" x="97" y="667.3794">wildlife list refreshes</text><!--MD5=[4b8ebd08e18f4278b545cc93e335f5ee]
@startuml

skinparam BackgroundColor white
skinparam shadowing false
skinparam defaultFontName SansSerif
skinparam ArrowColor black
skinparam ArrowThickness 1

skinparam classAttributeIconSize 0
skinparam class {
  BackgroundColor white
  BorderColor black
  FontColor black
}
skinparam package {
  BackgroundColor white
  BorderColor black
  FontColor black
}
skinparam stereotype {
  BackgroundColor white
  FontColor black
}

skinparam sequenceMessageAlign center
skinparam LifeLineBorderColor black
skinparam LifeLineBackgroundColor white
skinparam sequence {
  ArrowColor black
  LifeLineBorderColor black
}
skinparam participant {
  BackgroundColor white
  BorderColor black
  FontColor black
}
skinparam actor {
  BackgroundColor white
  BorderColor black
  FontColor black
}
skinparam boundary {
  BackgroundColor white
  BorderColor black
  FontColor black
}
skinparam control {
  BackgroundColor white
  BorderColor black
  FontColor black
}
skinparam database {
  BackgroundColor white
  BorderColor black
  FontColor black
}
skinparam entity {
  BackgroundColor white
  BorderColor black
  FontColor black
}
skinparam collections {
  BackgroundColor white
  BorderColor black
  FontColor black
}
skinparam note {
  BackgroundColor white
  BorderColor black
  FontColor black
}

title Add Wildlife to a Trail (new species or existing catalog)

actor User
boundary TrailPanel
boundary WildlifePanel
control TrailService
database Database

User -> TrailPanel : open trail, "Add Wildlife"
User -> TrailPanel : choose "from list" or "create new"

alt attach existing species
  TrailPanel -> TrailService : listAllWildlife()
  TrailService -> Database : getAllWildlife()
  Database - -> TrailService : catalog
  User -> TrailPanel : pick wildlife not yet on trail
  TrailPanel -> TrailService : attachExistingWildlifeToTrail(trailId, wildlifeId)
  TrailService -> Database : attachExistingWildlifeToTrail(...)
  Database -> Database : save()
else create new species
  TrailPanel -> WildlifePanel : open form (trail context)
  User -> WildlifePanel : enter name, description, notes,\n optionally choose photo
  WildlifePanel -> TrailService : addWildlife(trailId, wildlife)
  TrailService -> Database : insertWildlife(...)
  Database -> Database : save()
  WildlifePanel - -> TrailPanel : return to trail view
end

TrailPanel - -> User : wildlife list refreshes

@enduml

PlantUML version 1.2020.02(Sun Mar 01 05:22:07 EST 2020)
(GPL source distribution)
Java Runtime: OpenJDK Runtime Environment
JVM: OpenJDK 64-Bit Server VM
Java Version: 21.0.10+7-Ubuntu-124.04
Operating System: Linux
Default Encoding: UTF-8
Language: en
Country: null
--></g></svg>