<?xml version="1.0" encoding="UTF-8" standalone="no"?><svg xmlns="http://www.w3.org/2000/svg" xmlns:xlink="http://www.w3.org/1999/xlink" contentScriptType="application/ecmascript" contentStyleType="text/css" height="636px" preserveAspectRatio="none" style="width:912px;height:636px;" version="1.1" viewBox="0 0 912 636" width="912px" zoomAndPan="magnify"><defs><filter height="300%" id="f1wtmte8uqkzdy" width="300%" x="-1" y="-1"><feGaussianBlur result="blurOut" stdDeviation="2.0"/><feColorMatrix in="blurOut" result="blurOut2" type="matrix" values="0 0 0 0 0 0 0 0 0 0 0 0 0 0 0 0 0 0 .4 0"/><feOffset dx="4.0" dy="4.0" in="blurOut2" result="blurOut3"/><feBlend in="SourceGraphic" in2="blurOut3" mode="normal"/></filter></defs><g><text fill="#000000" font-family="sans-serif" font-size="18" lengthAdjust="spacingAndGlyphs" textLength="264" x="325" y="26.708">Edit Existing Trail Information</text><line style="stroke: #A80036; stroke-width: 1.0; stroke-dasharray: 5.0,5.0;" x1="27" x2="27" y1="121.25" y2="549.1094"/><line style="stroke: #A80036; stroke-width: 1.0; stroke-dasharray: 5.0,5.0;" x1="207" x2="207" y1="121.25" y2="549.1094"/><line style="stroke: #A80036; stroke-width: 1.0; stroke-dasharray: 5.0,5.0;" x1="378" x2="378" y1="121.25" y2="549.1094"/><line style="stroke: #A80036; stroke-width: 1.0; stroke-dasharray: 5.0,5.0;" x1="602" x2="602" y1="121.25" y2="549.1094"/><line style="stroke: #A80036; stroke-width: 1.0; stroke-dasharray: 5.0,5.0;" x1="870" x2="870" y1="121.25" y2="549.1094"/><text fill="#000000" font-family="sans-serif" font-size="14" lengthAdjust="spacingAndGlyphs" textLength="32" x="8" y="117.9482">User</text><ellipse cx="27" cy="47.9531" fill="#FEFECE" filter="url(#f1wtmte8uqkzdy)" rx="8" ry="8" style="stroke: #A80036; stroke-width: 2.0;"/><path d="M27,55.9531 L27,82.9531 M14,63.9531 L40,63.9531 M27,82.9531 L14,97.9531 M27,82.9531 L40,97.9531 " fill="none" filter="url(#f1wtmte8uqkzdy)" style="stroke: #A80036; stroke-width: 2.0;"/><text fill="#000000" font-family="sans-serif" font-size="14" lengthAdjust="spacingAndGlyphs" textLength="32" x="8" y="561.1045">User</text><ellipse cx="27" cy="574.4063" fill="#FEFECE" filter="url(#f1wtmte8uqkzdy)" rx="8" ry="8" style="stroke: #A80036; stroke-width: 2.0;"/><path d="M27,582.4063 L27,609.4063 M14,590.4063 L40,590.4063 M27,609.4063 L14,624.4063 M27,609.4063 L40,624.4063 " fill="none" filter="url(#f1wtmte8uqkzdy)" style="stroke: #A80036; stroke-width: 2.0;"/><text fill="#000000" font-family="sans-serif" font-size="14" lengthAdjust="spacingAndGlyphs" textLength="86" x="161" y="117.9482">SearchPanel</text><path d="M186.5,76.9531 L186.5,100.9531 M186.5,88.9531 L203.5,88.9531 " fill="none" filter="url(#f1wtmte8uqkzdy)" style="stroke: #A80036; stroke-width: 2.0;"/><ellipse cx="215.5" cy="88.9531" fill="#FEFECE" filter="url(#f1wtmte8uqkzdy)" rx="12" ry="12" style="stroke: #A80036; stroke-width: 2.0;"/><text fill="#000000" font-family="sans-serif" font-size="14" lengthAdjust="spacingAndGlyphs" textLength="86" x="161" y="561.1045">SearchPanel</text><path d="M186.5,568.4063 L186.5,592.4063 M186.5,580.4063 L203.5,580.4063 " fill="none" filter="url(#f1wtmte8uqkzdy)" style="stroke: #A80036; stroke-width: 2.0;"/><ellipse cx="215.5" cy="580.4063" fill="#FEFECE" filter="url(#f1wtmte8uqkzdy)" rx="12" ry="12" style="stroke: #A80036; stroke-width: 2.0;"/><text fill="#000000" font-family="sans-serif" font-size="14" lengthAdjust="spacingAndGlyphs" textLength="66" x="342" y="117.9482">TrailPanel</text><path d="M357.5,76.9531 L357.5,100.9531 M357.5,88.9531 L374.5,88.9531 " fill="none" filter="url(#f1wtmte8uqkzdy)" style="stroke: #A80036; stroke-width: 2.0;"/><ellipse cx="386.5" cy="88.9531" fill="#FEFECE" filter="url(#f1wtmte8uqkzdy)" rx="12" ry="12" style="stroke: #A80036; stroke-width: 2.0;"/><text fill="#000000" font-family="sans-serif" font-size="14" lengthAdjust="spacingAndGlyphs" textLength="66" x="342" y="561.1045">TrailPanel</text><path d="M357.5,568.4063 L357.5,592.4063 M357.5,580.4063 L374.5,580.4063 " fill="none" filter="url(#f1wtmte8uqkzdy)" style="stroke: #A80036; stroke-width: 2.0;"/><ellipse cx="386.5" cy="580.4063" fill="#FEFECE" filter="url(#f1wtmte8uqkzdy)" rx="12" ry="12" style="stroke: #A80036; stroke-width: 2.0;"/><text fill="#000000" font-family="sans-serif" font-size="14" lengthAdjust="spacingAndGlyphs" textLength="78" x="560" y="117.9482">TrailService</text><ellipse cx="602" cy="88.9531" fill="#FEFECE" filter="url(#f1wtmte8uqkzdy)" rx="12" ry="12" style="stroke: #A80036; stroke-width: 2.0;"/><polygon fill="#A80036" points="598,76.9531,604,71.9531,602,76.9531,604,81.9531,598,76.9531" style="stroke: #A80036; stroke-width: 1.0;"/><text fill="#000000" font-family="sans-serif" font-size="14" lengthAdjust="spacingAndGlyphs" textLength="78" x="560" y="561.1045">TrailService</text><ellipse cx="602" cy="580.4063" fill="#FEFECE" filter="url(#f1wtmte8uqkzdy)" rx="12" ry="12" style="stroke: #A80036; stroke-width: 2.0;"/><polygon fill="#A80036" points="598,568.4063,604,563.4063,602,568.4063,604,573.4063,598,568.4063" style="stroke: #A80036; stroke-width: 1.0;"/><text fill="#000000" font-family="sans-serif" font-size="14" lengthAdjust="spacingAndGlyphs" textLength="66" x="834" y="117.9482">Database</text><path d="M852,68.9531 C852,58.9531 870,58.9531 870,58.9531 C870,58.9531 888,58.9531 888,68.9531 L888,94.9531 C888,104.9531 870,104.9531 870,104.9531 C870,104.9531 852,104.9531 852,94.9531 L852,68.9531 " fill="#FEFECE" filter="url(#f1wtmte8uqkzdy)" style="stroke: #000000; stroke-width: 1.5;"/><path d="M852,68.9531 C852,78.9531 870,78.9531 870,78.9531 C870,78.9531 888,78.9531 888,68.9531 " fill="none" style="stroke: #000000; stroke-width: 1.5;"/><text fill="#000000" font-family="sans-serif" font-size="14" lengthAdjust="spacingAndGlyphs" textLength="66" x="834" y="561.1045">Database</text><path d="M852,574.4063 C852,564.4063 870,564.4063 870,564.4063 C870,564.4063 888,564.4063 888,574.4063 L888,600.4063 C888,610.4063 870,610.4063 870,610.4063 C870,610.4063 852,610.4063 852,600.4063 L852,574.4063 " fill="#FEFECE" filter="url(#f1wtmte8uqkzdy)" style="stroke: #000000; stroke-width: 1.5;"/><path d="M852,574.4063 C852,584.4063 870,584.4063 870,584.4063 C870,584.4063 888,584.4063 888,574.4063 " fill="none" style="stroke: #000000; stroke-width: 1.5;"/><polygon fill="#A80036" points="195,148.3828,205,152.3828,195,156.3828,199,152.3828" style="stroke: #A80036; stroke-width: 1.0;"/><line style="stroke: #A80036; stroke-width: 1.0;" x1="27" x2="201" y1="152.3828" y2="152.3828"/><text fill="#000000" font-family="sans-serif" font-size="13" lengthAdjust="spacingAndGlyphs" textLength="156" x="34" y="147.3169">search/selectTrail(trailId)</text><polygon fill="#A80036" points="366,177.5156,376,181.5156,366,185.5156,370,181.5156" style="stroke: #A80036; stroke-width: 1.0;"/><line style="stroke: #A80036; stroke-width: 1.0;" x1="207" x2="372" y1="181.5156" y2="181.5156"/><text fill="#000000" font-family="sans-serif" font-size="13" lengthAdjust="spacingAndGlyphs" textLength="147" x="214" y="176.4497">openTrailForEdit(trailId)</text><polygon fill="#A80036" points="590,206.6484,600,210.6484,590,214.6484,594,210.6484" style="stroke: #A80036; stroke-width: 1.0;"/><line style="stroke: #A80036; stroke-width: 1.0;" x1="378" x2="596" y1="210.6484" y2="210.6484"/><text fill="#000000" font-family="sans-serif" font-size="13" lengthAdjust="spacingAndGlyphs" textLength="136" x="385" y="205.5825">getTrailDetails(trailId)</text><polygon fill="#A80036" points="858,235.7813,868,239.7813,858,243.7813,862,239.7813" style="stroke: #A80036; stroke-width: 1.0;"/><line style="stroke: #A80036; stroke-width: 1.0;" x1="602" x2="864" y1="239.7813" y2="239.7813"/><text fill="#000000" font-family="sans-serif" font-size="13" lengthAdjust="spacingAndGlyphs" textLength="130" x="609" y="234.7153">fetchTrailById(trailId)</text><polygon fill="#A80036" points="613,264.9141,603,268.9141,613,272.9141,609,268.9141" style="stroke: #A80036; stroke-width: 1.0;"/><line style="stroke: #A80036; stroke-width: 1.0; stroke-dasharray: 2.0,2.0;" x1="607" x2="869" y1="268.9141" y2="268.9141"/><text fill="#000000" font-family="sans-serif" font-size="13" lengthAdjust="spacingAndGlyphs" textLength="24" x="619" y="263.8481">trail</text><polygon fill="#A80036" points="389,294.0469,379,298.0469,389,302.0469,385,298.0469" style="stroke: #A80036; stroke-width: 1.0;"/><line style="stroke: #A80036; stroke-width: 1.0; stroke-dasharray: 2.0,2.0;" x1="383" x2="601" y1="298.0469" y2="298.0469"/><text fill="#000000" font-family="sans-serif" font-size="13" lengthAdjust="spacingAndGlyphs" textLength="24" x="395" y="292.981">trail</text><polygon fill="#A80036" points="38,323.1797,28,327.1797,38,331.1797,34,327.1797" style="stroke: #A80036; stroke-width: 1.0;"/><line style="stroke: #A80036; stroke-width: 1.0; stroke-dasharray: 2.0,2.0;" x1="32" x2="377" y1="327.1797" y2="327.1797"/><text fill="#000000" font-family="sans-serif" font-size="13" lengthAdjust="spacingAndGlyphs" textLength="188" x="44" y="322.1138">displayEditableTrailForm(trail)</text><polygon fill="#A80036" points="366,352.3125,376,356.3125,366,360.3125,370,356.3125" style="stroke: #A80036; stroke-width: 1.0;"/><line style="stroke: #A80036; stroke-width: 1.0;" x1="27" x2="372" y1="356.3125" y2="356.3125"/><text fill="#000000" font-family="sans-serif" font-size="13" lengthAdjust="spacingAndGlyphs" textLength="172" x="34" y="351.2466">editTrailFields(updatedInfo)</text><polygon fill="#A80036" points="366,381.4453,376,385.4453,366,389.4453,370,385.4453" style="stroke: #A80036; stroke-width: 1.0;"/><line style="stroke: #A80036; stroke-width: 1.0;" x1="27" x2="372" y1="385.4453" y2="385.4453"/><text fill="#000000" font-family="sans-serif" font-size="13" lengthAdjust="spacingAndGlyphs" textLength="125" x="34" y="380.3794">clickSaveChanges()</text><polygon fill="#A80036" points="590,410.5781,600,414.5781,590,418.5781,594,414.5781" style="stroke: #A80036; stroke-width: 1.0;"/><line style="stroke: #A80036; stroke-width: 1.0;" x1="378" x2="596" y1="414.5781" y2="414.5781"/><text fill="#000000" font-family="sans-serif" font-size="13" lengthAdjust="spacingAndGlyphs" textLength="200" x="385" y="409.5122">updateTrail(trailId, updatedInfo)</text><polygon fill="#A80036" points="858,439.7109,868,443.7109,858,447.7109,862,443.7109" style="stroke: #A80036; stroke-width: 1.0;"/><line style="stroke: #A80036; stroke-width: 1.0;" x1="602" x2="864" y1="443.7109" y2="443.7109"/><text fill="#000000" font-family="sans-serif" font-size="13" lengthAdjust="spacingAndGlyphs" textLength="244" x="609" y="438.645">updateTrailRecord(trailId, updatedInfo)</text><polygon fill="#A80036" points="613,468.8438,603,472.8438,613,476.8438,609,472.8438" style="stroke: #A80036; stroke-width: 1.0;"/><line style="stroke: #A80036; stroke-width: 1.0; stroke-dasharray: 2.0,2.0;" x1="607" x2="869" y1="472.8438" y2="472.8438"/><text fill="#000000" font-family="sans-serif" font-size="13" lengthAdjust="spacingAndGlyphs" textLength="79" x="619" y="467.7778">updatedTrail</text><polygon fill="#A80036" points="389,497.9766,379,501.9766,389,505.9766,385,501.9766" style="stroke: #A80036; stroke-width: 1.0;"/><line style="stroke: #A80036; stroke-width: 1.0; stroke-dasharray: 2.0,2.0;" x1="383" x2="601" y1="501.9766" y2="501.9766"/><text fill="#000000" font-family="sans-serif" font-size="13" lengthAdjust="spacingAndGlyphs" textLength="79" x="395" y="496.9106">updatedTrail</text><polygon fill="#A80036" points="38,527.1094,28,531.1094,38,535.1094,34,531.1094" style="stroke: #A80036; stroke-width: 1.0;"/><line style="stroke: #A80036; stroke-width: 1.0; stroke-dasharray: 2.0,2.0;" x1="32" x2="377" y1="531.1094" y2="531.1094"/><text fill="#000000" font-family="sans-serif" font-size="13" lengthAdjust="spacingAndGlyphs" textLength="262" x="44" y="526.0435">displayUpdateConfirmation(updatedTrail)</text><!--MD5=[460ca4a88988c964bf115cffae009132]
@startuml
title Edit Existing Trail Information

actor User
boundary SearchPanel
boundary TrailPanel
control TrailService
database Database

User -> SearchPanel : search/selectTrail(trailId)
SearchPanel -> TrailPanel : openTrailForEdit(trailId)

TrailPanel -> TrailService : getTrailDetails(trailId)
TrailService -> Database : fetchTrailById(trailId)
Database - -> TrailService : trail
TrailService - -> TrailPanel : trail

TrailPanel - -> User : displayEditableTrailForm(trail)

User -> TrailPanel : editTrailFields(updatedInfo)
User -> TrailPanel : clickSaveChanges()

TrailPanel -> TrailService : updateTrail(trailId, updatedInfo)
TrailService -> Database : updateTrailRecord(trailId, updatedInfo)
Database - -> TrailService : updatedTrail
TrailService - -> TrailPanel : updatedTrail

TrailPanel - -> User : displayUpdateConfirmation(updatedTrail)

@enduml

PlantUML version 1.2020.02(Sun Mar 01 05:22:07 EST 2020)
(GPL source distribution)
Java Runtime: OpenJDK Runtime Environment
JVM: OpenJDK 64-Bit Server VM
Java Version: 21.0.10+7-Ubuntu-124.04
Operating System: Linux
Default Encoding: UTF-8
Language: en
Country: null
--></g></svg>