<?xml version="1.0" encoding="UTF-8" standalone="no"?><svg xmlns="http://www.w3.org/2000/svg" xmlns:xlink="http://www.w3.org/1999/xlink" contentScriptType="application/ecmascript" contentStyleType="text/css" height="607px" preserveAspectRatio="none" style="width:749px;height:607px;" version="1.1" viewBox="0 0 749 607" width="749px" zoomAndPan="magnify"><defs><filter height="300%" id="f1uwj8pccu0lnp" width="300%" x="-1" y="-1"><feGaussianBlur result="blurOut" stdDeviation="2.0"/><feColorMatrix in="blurOut" result="blurOut2" type="matrix" values="0 0 0 0 0 0 0 0 0 0 0 0 0 0 0 0 0 0 .4 0"/><feOffset dx="4.0" dy="4.0" in="blurOut2" result="blurOut3"/><feBlend in="SourceGraphic" in2="blurOut3" mode="normal"/></filter></defs><g><text fill="#000000" font-family="sans-serif" font-size="18" lengthAdjust="spacingAndGlyphs" textLength="162" x="294.5" y="26.708">Rate Existing Trail</text><line style="stroke: #A80036; stroke-width: 1.0; stroke-dasharray: 5.0,5.0;" x1="27" x2="27" y1="121.25" y2="519.9766"/><line style="stroke: #A80036; stroke-width: 1.0; stroke-dasharray: 5.0,5.0;" x1="343" x2="343" y1="121.25" y2="519.9766"/><line style="stroke: #A80036; stroke-width: 1.0; stroke-dasharray: 5.0,5.0;" x1="519" x2="519" y1="121.25" y2="519.9766"/><line style="stroke: #A80036; stroke-width: 1.0; stroke-dasharray: 5.0,5.0;" x1="707" x2="707" y1="121.25" y2="519.9766"/><text fill="#000000" font-family="sans-serif" font-size="14" lengthAdjust="spacingAndGlyphs" textLength="32" x="8" y="117.9482">User</text><ellipse cx="27" cy="47.9531" fill="#FEFECE" filter="url(#f1uwj8pccu0lnp)" rx="8" ry="8" style="stroke: #A80036; stroke-width: 2.0;"/><path d="M27,55.9531 L27,82.9531 M14,63.9531 L40,63.9531 M27,82.9531 L14,97.9531 M27,82.9531 L40,97.9531 " fill="none" filter="url(#f1uwj8pccu0lnp)" style="stroke: #A80036; stroke-width: 2.0;"/><text fill="#000000" font-family="sans-serif" font-size="14" lengthAdjust="spacingAndGlyphs" textLength="32" x="8" y="531.9717">User</text><ellipse cx="27" cy="545.2734" fill="#FEFECE" filter="url(#f1uwj8pccu0lnp)" rx="8" ry="8" style="stroke: #A80036; stroke-width: 2.0;"/><path d="M27,553.2734 L27,580.2734 M14,561.2734 L40,561.2734 M27,580.2734 L14,595.2734 M27,580.2734 L40,595.2734 " fill="none" filter="url(#f1uwj8pccu0lnp)" style="stroke: #A80036; stroke-width: 2.0;"/><text fill="#000000" font-family="sans-serif" font-size="14" lengthAdjust="spacingAndGlyphs" textLength="66" x="307" y="117.9482">TrailPanel</text><path d="M322.5,76.9531 L322.5,100.9531 M322.5,88.9531 L339.5,88.9531 " fill="none" filter="url(#f1uwj8pccu0lnp)" style="stroke: #A80036; stroke-width: 2.0;"/><ellipse cx="351.5" cy="88.9531" fill="#FEFECE" filter="url(#f1uwj8pccu0lnp)" rx="12" ry="12" style="stroke: #A80036; stroke-width: 2.0;"/><text fill="#000000" font-family="sans-serif" font-size="14" lengthAdjust="spacingAndGlyphs" textLength="66" x="307" y="531.9717">TrailPanel</text><path d="M322.5,539.2734 L322.5,563.2734 M322.5,551.2734 L339.5,551.2734 " fill="none" filter="url(#f1uwj8pccu0lnp)" style="stroke: #A80036; stroke-width: 2.0;"/><ellipse cx="351.5" cy="551.2734" fill="#FEFECE" filter="url(#f1uwj8pccu0lnp)" rx="12" ry="12" style="stroke: #A80036; stroke-width: 2.0;"/><text fill="#000000" font-family="sans-serif" font-size="14" lengthAdjust="spacingAndGlyphs" textLength="78" x="477" y="117.9482">TrailService</text><ellipse cx="519" cy="88.9531" fill="#FEFECE" filter="url(#f1uwj8pccu0lnp)" rx="12" ry="12" style="stroke: #A80036; stroke-width: 2.0;"/><polygon fill="#A80036" points="515,76.9531,521,71.9531,519,76.9531,521,81.9531,515,76.9531" style="stroke: #A80036; stroke-width: 1.0;"/><text fill="#000000" font-family="sans-serif" font-size="14" lengthAdjust="spacingAndGlyphs" textLength="78" x="477" y="531.9717">TrailService</text><ellipse cx="519" cy="551.2734" fill="#FEFECE" filter="url(#f1uwj8pccu0lnp)" rx="12" ry="12" style="stroke: #A80036; stroke-width: 2.0;"/><polygon fill="#A80036" points="515,539.2734,521,534.2734,519,539.2734,521,544.2734,515,539.2734" style="stroke: #A80036; stroke-width: 1.0;"/><text fill="#000000" font-family="sans-serif" font-size="14" lengthAdjust="spacingAndGlyphs" textLength="66" x="671" y="117.9482">Database</text><path d="M689,68.9531 C689,58.9531 707,58.9531 707,58.9531 C707,58.9531 725,58.9531 725,68.9531 L725,94.9531 C725,104.9531 707,104.9531 707,104.9531 C707,104.9531 689,104.9531 689,94.9531 L689,68.9531 " fill="#FEFECE" filter="url(#f1uwj8pccu0lnp)" style="stroke: #000000; stroke-width: 1.5;"/><path d="M689,68.9531 C689,78.9531 707,78.9531 707,78.9531 C707,78.9531 725,78.9531 725,68.9531 " fill="none" style="stroke: #000000; stroke-width: 1.5;"/><text fill="#000000" font-family="sans-serif" font-size="14" lengthAdjust="spacingAndGlyphs" textLength="66" x="671" y="531.9717">Database</text><path d="M689,545.2734 C689,535.2734 707,535.2734 707,535.2734 C707,535.2734 725,535.2734 725,545.2734 L725,571.2734 C725,581.2734 707,581.2734 707,581.2734 C707,581.2734 689,581.2734 689,571.2734 L689,545.2734 " fill="#FEFECE" filter="url(#f1uwj8pccu0lnp)" style="stroke: #000000; stroke-width: 1.5;"/><path d="M689,545.2734 C689,555.2734 707,555.2734 707,555.2734 C707,555.2734 725,555.2734 725,545.2734 " fill="none" style="stroke: #000000; stroke-width: 1.5;"/><polygon fill="#A80036" points="331,148.3828,341,152.3828,331,156.3828,335,152.3828" style="stroke: #A80036; stroke-width: 1.0;"/><line style="stroke: #A80036; stroke-width: 1.0;" x1="27" x2="337" y1="152.3828" y2="152.3828"/><text fill="#000000" font-family="sans-serif" font-size="13" lengthAdjust="spacingAndGlyphs" textLength="152" x="34" y="147.3169">openExistingTrail(trailId)</text><polygon fill="#A80036" points="507,177.5156,517,181.5156,507,185.5156,511,181.5156" style="stroke: #A80036; stroke-width: 1.0;"/><line style="stroke: #A80036; stroke-width: 1.0;" x1="343" x2="513" y1="181.5156" y2="181.5156"/><text fill="#000000" font-family="sans-serif" font-size="13" lengthAdjust="spacingAndGlyphs" textLength="136" x="350" y="176.4497">getTrailDetails(trailId)</text><polygon fill="#A80036" points="695,206.6484,705,210.6484,695,214.6484,699,210.6484" style="stroke: #A80036; stroke-width: 1.0;"/><line style="stroke: #A80036; stroke-width: 1.0;" x1="519" x2="701" y1="210.6484" y2="210.6484"/><text fill="#000000" font-family="sans-serif" font-size="13" lengthAdjust="spacingAndGlyphs" textLength="130" x="526" y="205.5825">fetchTrailById(trailId)</text><polygon fill="#A80036" points="530,235.7813,520,239.7813,530,243.7813,526,239.7813" style="stroke: #A80036; stroke-width: 1.0;"/><line style="stroke: #A80036; stroke-width: 1.0; stroke-dasharray: 2.0,2.0;" x1="524" x2="706" y1="239.7813" y2="239.7813"/><text fill="#000000" font-family="sans-serif" font-size="13" lengthAdjust="spacingAndGlyphs" textLength="24" x="536" y="234.7153">trail</text><polygon fill="#A80036" points="354,264.9141,344,268.9141,354,272.9141,350,268.9141" style="stroke: #A80036; stroke-width: 1.0;"/><line style="stroke: #A80036; stroke-width: 1.0; stroke-dasharray: 2.0,2.0;" x1="348" x2="518" y1="268.9141" y2="268.9141"/><text fill="#000000" font-family="sans-serif" font-size="13" lengthAdjust="spacingAndGlyphs" textLength="24" x="360" y="263.8481">trail</text><polygon fill="#A80036" points="38,294.0469,28,298.0469,38,302.0469,34,298.0469" style="stroke: #A80036; stroke-width: 1.0;"/><line style="stroke: #A80036; stroke-width: 1.0; stroke-dasharray: 2.0,2.0;" x1="32" x2="342" y1="298.0469" y2="298.0469"/><text fill="#000000" font-family="sans-serif" font-size="13" lengthAdjust="spacingAndGlyphs" textLength="104" x="44" y="292.981">displayTrail(trail)</text><polygon fill="#A80036" points="331,323.1797,341,327.1797,331,331.1797,335,327.1797" style="stroke: #A80036; stroke-width: 1.0;"/><line style="stroke: #A80036; stroke-width: 1.0;" x1="27" x2="337" y1="327.1797" y2="327.1797"/><text fill="#000000" font-family="sans-serif" font-size="13" lengthAdjust="spacingAndGlyphs" textLength="123" x="34" y="322.1138">selectRating(score)</text><polygon fill="#A80036" points="331,352.3125,341,356.3125,331,360.3125,335,356.3125" style="stroke: #A80036; stroke-width: 1.0;"/><line style="stroke: #A80036; stroke-width: 1.0;" x1="27" x2="337" y1="356.3125" y2="356.3125"/><text fill="#000000" font-family="sans-serif" font-size="13" lengthAdjust="spacingAndGlyphs" textLength="94" x="34" y="351.2466">submitRating()</text><polygon fill="#A80036" points="507,381.4453,517,385.4453,507,389.4453,511,385.4453" style="stroke: #A80036; stroke-width: 1.0;"/><line style="stroke: #A80036; stroke-width: 1.0;" x1="343" x2="513" y1="385.4453" y2="385.4453"/><text fill="#000000" font-family="sans-serif" font-size="13" lengthAdjust="spacingAndGlyphs" textLength="152" x="350" y="380.3794">addRating(trailId, score)</text><polygon fill="#A80036" points="695,410.5781,705,414.5781,695,418.5781,699,414.5781" style="stroke: #A80036; stroke-width: 1.0;"/><line style="stroke: #A80036; stroke-width: 1.0;" x1="519" x2="701" y1="414.5781" y2="414.5781"/><text fill="#000000" font-family="sans-serif" font-size="13" lengthAdjust="spacingAndGlyphs" textLength="164" x="526" y="409.5122">insertRating(trailId, score)</text><polygon fill="#A80036" points="530,439.7109,520,443.7109,530,447.7109,526,443.7109" style="stroke: #A80036; stroke-width: 1.0;"/><line style="stroke: #A80036; stroke-width: 1.0; stroke-dasharray: 2.0,2.0;" x1="524" x2="706" y1="443.7109" y2="443.7109"/><text fill="#000000" font-family="sans-serif" font-size="13" lengthAdjust="spacingAndGlyphs" textLength="77" x="536" y="438.645">ratingSaved</text><polygon fill="#A80036" points="354,468.8438,344,472.8438,354,476.8438,350,472.8438" style="stroke: #A80036; stroke-width: 1.0;"/><line style="stroke: #A80036; stroke-width: 1.0; stroke-dasharray: 2.0,2.0;" x1="348" x2="518" y1="472.8438" y2="472.8438"/><text fill="#000000" font-family="sans-serif" font-size="13" lengthAdjust="spacingAndGlyphs" textLength="116" x="360" y="467.7778">updatedRatingInfo</text><polygon fill="#A80036" points="38,497.9766,28,501.9766,38,505.9766,34,501.9766" style="stroke: #A80036; stroke-width: 1.0;"/><line style="stroke: #A80036; stroke-width: 1.0; stroke-dasharray: 2.0,2.0;" x1="32" x2="342" y1="501.9766" y2="501.9766"/><text fill="#000000" font-family="sans-serif" font-size="13" lengthAdjust="spacingAndGlyphs" textLength="292" x="44" y="496.9106">displayRatingConfirmation(updatedRatingInfo)</text><!--MD5=[622f80269d85bc39a7255b337bb55e25]
@startuml
title Rate Existing Trail

actor User
boundary TrailPanel
control TrailService
database Database

User -> TrailPanel : openExistingTrail(trailId)
TrailPanel -> TrailService : getTrailDetails(trailId)
TrailService -> Database : fetchTrailById(trailId)
Database - -> TrailService : trail
TrailService - -> TrailPanel : trail

TrailPanel - -> User : displayTrail(trail)

User -> TrailPanel : selectRating(score)
User -> TrailPanel : submitRating()

TrailPanel -> TrailService : addRating(trailId, score)
TrailService -> Database : insertRating(trailId, score)
Database - -> TrailService : ratingSaved
TrailService - -> TrailPanel : updatedRatingInfo

TrailPanel - -> User : displayRatingConfirmation(updatedRatingInfo)

@enduml

PlantUML version 1.2020.02(Sun Mar 01 05:22:07 EST 2020)
(GPL source distribution)
Java Runtime: OpenJDK Runtime Environment
JVM: OpenJDK 64-Bit Server VM
Java Version: 21.0.10+7-Ubuntu-124.04
Operating System: Linux
Default Encoding: UTF-8
Language: en
Country: null
--></g></svg>