<?xml version="1.0" encoding="UTF-8" standalone="no"?><svg xmlns="http://www.w3.org/2000/svg" xmlns:xlink="http://www.w3.org/1999/xlink" contentScriptType="application/ecmascript" contentStyleType="text/css" height="432px" preserveAspectRatio="none" style="width:619px;height:432px;" version="1.1" viewBox="0 0 619 432" width="619px" zoomAndPan="magnify"><defs><filter height="300%" id="fwnw37kg38zqp" width="300%" x="-1" y="-1"><feGaussianBlur result="blurOut" stdDeviation="2.0"/><feColorMatrix in="blurOut" result="blurOut2" type="matrix" values="0 0 0 0 0 0 0 0 0 0 0 0 0 0 0 0 0 0 .4 0"/><feOffset dx="4.0" dy="4.0" in="blurOut2" result="blurOut3"/><feBlend in="SourceGraphic" in2="blurOut3" mode="normal"/></filter></defs><g><text fill="#000000" font-family="sans-serif" font-size="18" lengthAdjust="spacingAndGlyphs" textLength="114" x="253.5" y="26.708">Search Trails</text><line style="stroke: #A80036; stroke-width: 1.0; stroke-dasharray: 5.0,5.0;" x1="27" x2="27" y1="121.25" y2="345.1797"/><line style="stroke: #A80036; stroke-width: 1.0; stroke-dasharray: 5.0,5.0;" x1="289" x2="289" y1="121.25" y2="345.1797"/><line style="stroke: #A80036; stroke-width: 1.0; stroke-dasharray: 5.0,5.0;" x1="443" x2="443" y1="121.25" y2="345.1797"/><line style="stroke: #A80036; stroke-width: 1.0; stroke-dasharray: 5.0,5.0;" x1="577" x2="577" y1="121.25" y2="345.1797"/><text fill="#000000" font-family="sans-serif" font-size="14" lengthAdjust="spacingAndGlyphs" textLength="32" x="8" y="117.9482">User</text><ellipse cx="27" cy="47.9531" fill="#FEFECE" filter="url(#fwnw37kg38zqp)" rx="8" ry="8" style="stroke: #A80036; stroke-width: 2.0;"/><path d="M27,55.9531 L27,82.9531 M14,63.9531 L40,63.9531 M27,82.9531 L14,97.9531 M27,82.9531 L40,97.9531 " fill="none" filter="url(#fwnw37kg38zqp)" style="stroke: #A80036; stroke-width: 2.0;"/><text fill="#000000" font-family="sans-serif" font-size="14" lengthAdjust="spacingAndGlyphs" textLength="32" x="8" y="357.1748">User</text><ellipse cx="27" cy="370.4766" fill="#FEFECE" filter="url(#fwnw37kg38zqp)" rx="8" ry="8" style="stroke: #A80036; stroke-width: 2.0;"/><path d="M27,378.4766 L27,405.4766 M14,386.4766 L40,386.4766 M27,405.4766 L14,420.4766 M27,405.4766 L40,420.4766 " fill="none" filter="url(#fwnw37kg38zqp)" style="stroke: #A80036; stroke-width: 2.0;"/><text fill="#000000" font-family="sans-serif" font-size="14" lengthAdjust="spacingAndGlyphs" textLength="86" x="243" y="117.9482">SearchPanel</text><path d="M268.5,76.9531 L268.5,100.9531 M268.5,88.9531 L285.5,88.9531 " fill="none" filter="url(#fwnw37kg38zqp)" style="stroke: #A80036; stroke-width: 2.0;"/><ellipse cx="297.5" cy="88.9531" fill="#FEFECE" filter="url(#fwnw37kg38zqp)" rx="12" ry="12" style="stroke: #A80036; stroke-width: 2.0;"/><text fill="#000000" font-family="sans-serif" font-size="14" lengthAdjust="spacingAndGlyphs" textLength="86" x="243" y="357.1748">SearchPanel</text><path d="M268.5,364.4766 L268.5,388.4766 M268.5,376.4766 L285.5,376.4766 " fill="none" filter="url(#fwnw37kg38zqp)" style="stroke: #A80036; stroke-width: 2.0;"/><ellipse cx="297.5" cy="376.4766" fill="#FEFECE" filter="url(#fwnw37kg38zqp)" rx="12" ry="12" style="stroke: #A80036; stroke-width: 2.0;"/><text fill="#000000" font-family="sans-serif" font-size="14" lengthAdjust="spacingAndGlyphs" textLength="78" x="401" y="117.9482">TrailService</text><ellipse cx="443" cy="88.9531" fill="#FEFECE" filter="url(#fwnw37kg38zqp)" rx="12" ry="12" style="stroke: #A80036; stroke-width: 2.0;"/><polygon fill="#A80036" points="439,76.9531,445,71.9531,443,76.9531,445,81.9531,439,76.9531" style="stroke: #A80036; stroke-width: 1.0;"/><text fill="#000000" font-family="sans-serif" font-size="14" lengthAdjust="spacingAndGlyphs" textLength="78" x="401" y="357.1748">TrailService</text><ellipse cx="443" cy="376.4766" fill="#FEFECE" filter="url(#fwnw37kg38zqp)" rx="12" ry="12" style="stroke: #A80036; stroke-width: 2.0;"/><polygon fill="#A80036" points="439,364.4766,445,359.4766,443,364.4766,445,369.4766,439,364.4766" style="stroke: #A80036; stroke-width: 1.0;"/><text fill="#000000" font-family="sans-serif" font-size="14" lengthAdjust="spacingAndGlyphs" textLength="66" x="541" y="117.9482">Database</text><path d="M559,68.9531 C559,58.9531 577,58.9531 577,58.9531 C577,58.9531 595,58.9531 595,68.9531 L595,94.9531 C595,104.9531 577,104.9531 577,104.9531 C577,104.9531 559,104.9531 559,94.9531 L559,68.9531 " fill="#FEFECE" filter="url(#fwnw37kg38zqp)" style="stroke: #000000; stroke-width: 1.5;"/><path d="M559,68.9531 C559,78.9531 577,78.9531 577,78.9531 C577,78.9531 595,78.9531 595,68.9531 " fill="none" style="stroke: #000000; stroke-width: 1.5;"/><text fill="#000000" font-family="sans-serif" font-size="14" lengthAdjust="spacingAndGlyphs" textLength="66" x="541" y="357.1748">Database</text><path d="M559,370.4766 C559,360.4766 577,360.4766 577,360.4766 C577,360.4766 595,360.4766 595,370.4766 L595,396.4766 C595,406.4766 577,406.4766 577,406.4766 C577,406.4766 559,406.4766 559,396.4766 L559,370.4766 " fill="#FEFECE" filter="url(#fwnw37kg38zqp)" style="stroke: #000000; stroke-width: 1.5;"/><path d="M559,370.4766 C559,380.4766 577,380.4766 577,380.4766 C577,380.4766 595,380.4766 595,370.4766 " fill="none" style="stroke: #000000; stroke-width: 1.5;"/><polygon fill="#A80036" points="277,148.3828,287,152.3828,277,156.3828,281,152.3828" style="stroke: #A80036; stroke-width: 1.0;"/><line style="stroke: #A80036; stroke-width: 1.0;" x1="27" x2="283" y1="152.3828" y2="152.3828"/><text fill="#000000" font-family="sans-serif" font-size="13" lengthAdjust="spacingAndGlyphs" textLength="179" x="34" y="147.3169">enterSearchCriteria(criteria)</text><polygon fill="#A80036" points="277,177.5156,287,181.5156,277,185.5156,281,181.5156" style="stroke: #A80036; stroke-width: 1.0;"/><line style="stroke: #A80036; stroke-width: 1.0;" x1="27" x2="283" y1="181.5156" y2="181.5156"/><text fill="#000000" font-family="sans-serif" font-size="13" lengthAdjust="spacingAndGlyphs" textLength="82" x="34" y="176.4497">clickSearch()</text><polygon fill="#A80036" points="431,206.6484,441,210.6484,431,214.6484,435,210.6484" style="stroke: #A80036; stroke-width: 1.0;"/><line style="stroke: #A80036; stroke-width: 1.0;" x1="289" x2="437" y1="210.6484" y2="210.6484"/><text fill="#000000" font-family="sans-serif" font-size="13" lengthAdjust="spacingAndGlyphs" textLength="130" x="296" y="205.5825">searchTrails(criteria)</text><polygon fill="#A80036" points="565,235.7813,575,239.7813,565,243.7813,569,239.7813" style="stroke: #A80036; stroke-width: 1.0;"/><line style="stroke: #A80036; stroke-width: 1.0;" x1="443" x2="571" y1="239.7813" y2="239.7813"/><text fill="#000000" font-family="sans-serif" font-size="13" lengthAdjust="spacingAndGlyphs" textLength="110" x="450" y="234.7153">findTrails(criteria)</text><polygon fill="#A80036" points="454,264.9141,444,268.9141,454,272.9141,450,268.9141" style="stroke: #A80036; stroke-width: 1.0;"/><line style="stroke: #A80036; stroke-width: 1.0; stroke-dasharray: 2.0,2.0;" x1="448" x2="576" y1="268.9141" y2="268.9141"/><text fill="#000000" font-family="sans-serif" font-size="13" lengthAdjust="spacingAndGlyphs" textLength="93" x="460" y="263.8481">matchingTrails</text><polygon fill="#A80036" points="300,294.0469,290,298.0469,300,302.0469,296,298.0469" style="stroke: #A80036; stroke-width: 1.0;"/><line style="stroke: #A80036; stroke-width: 1.0; stroke-dasharray: 2.0,2.0;" x1="294" x2="442" y1="298.0469" y2="298.0469"/><text fill="#000000" font-family="sans-serif" font-size="13" lengthAdjust="spacingAndGlyphs" textLength="93" x="306" y="292.981">matchingTrails</text><polygon fill="#A80036" points="38,323.1797,28,327.1797,38,331.1797,34,327.1797" style="stroke: #A80036; stroke-width: 1.0;"/><line style="stroke: #A80036; stroke-width: 1.0; stroke-dasharray: 2.0,2.0;" x1="32" x2="288" y1="327.1797" y2="327.1797"/><text fill="#000000" font-family="sans-serif" font-size="13" lengthAdjust="spacingAndGlyphs" textLength="238" x="44" y="322.1138">displaySearchResults(matchingTrails)</text><!--MD5=[ee6420e89f4ca272e34e432730ea6b0e]
@startuml
title Search Trails

actor User
boundary SearchPanel
control TrailService
database Database

User -> SearchPanel : enterSearchCriteria(criteria)
User -> SearchPanel : clickSearch()

SearchPanel -> TrailService : searchTrails(criteria)
TrailService -> Database : findTrails(criteria)
Database - -> TrailService : matchingTrails
TrailService - -> SearchPanel : matchingTrails

SearchPanel - -> User : displaySearchResults(matchingTrails)

@enduml

PlantUML version 1.2020.02(Sun Mar 01 05:22:07 EST 2020)
(GPL source distribution)
Java Runtime: OpenJDK Runtime Environment
JVM: OpenJDK 64-Bit Server VM
Java Version: 21.0.10+7-Ubuntu-124.04
Operating System: Linux
Default Encoding: UTF-8
Language: en
Country: null
--></g></svg>