<?xml version="1.0" encoding="UTF-8" standalone="no"?><svg xmlns="http://www.w3.org/2000/svg" xmlns:xlink="http://www.w3.org/1999/xlink" contentScriptType="application/ecmascript" contentStyleType="text/css" height="549px" preserveAspectRatio="none" style="width:790px;height:549px;" version="1.1" viewBox="0 0 790 549" width="790px" zoomAndPan="magnify"><defs><filter height="300%" id="f1mopktn4itgra" width="300%" x="-1" y="-1"><feGaussianBlur result="blurOut" stdDeviation="2.0"/><feColorMatrix in="blurOut" result="blurOut2" type="matrix" values="0 0 0 0 0 0 0 0 0 0 0 0 0 0 0 0 0 0 .4 0"/><feOffset dx="4.0" dy="4.0" in="blurOut2" result="blurOut3"/><feBlend in="SourceGraphic" in2="blurOut3" mode="normal"/></filter></defs><g><text fill="#000000" font-family="sans-serif" font-size="18" lengthAdjust="spacingAndGlyphs" textLength="199" x="296.75" y="26.708">View Trail Information</text><line style="stroke: #A80036; stroke-width: 1.0; stroke-dasharray: 5.0,5.0;" x1="27" x2="27" y1="121.25" y2="461.7109"/><line style="stroke: #A80036; stroke-width: 1.0; stroke-dasharray: 5.0,5.0;" x1="160" x2="160" y1="121.25" y2="461.7109"/><line style="stroke: #A80036; stroke-width: 1.0; stroke-dasharray: 5.0,5.0;" x1="299" x2="299" y1="121.25" y2="461.7109"/><line style="stroke: #A80036; stroke-width: 1.0; stroke-dasharray: 5.0,5.0;" x1="459" x2="459" y1="121.25" y2="461.7109"/><line style="stroke: #A80036; stroke-width: 1.0; stroke-dasharray: 5.0,5.0;" x1="562" x2="562" y1="121.25" y2="461.7109"/><line style="stroke: #A80036; stroke-width: 1.0; stroke-dasharray: 5.0,5.0;" x1="748.5" x2="748.5" y1="121.25" y2="461.7109"/><text fill="#000000" font-family="sans-serif" font-size="14" lengthAdjust="spacingAndGlyphs" textLength="32" x="8" y="117.9482">User</text><ellipse cx="27" cy="47.9531" fill="#FEFECE" filter="url(#f1mopktn4itgra)" rx="8" ry="8" style="stroke: #A80036; stroke-width: 2.0;"/><path d="M27,55.9531 L27,82.9531 M14,63.9531 L40,63.9531 M27,82.9531 L14,97.9531 M27,82.9531 L40,97.9531 " fill="none" filter="url(#f1mopktn4itgra)" style="stroke: #A80036; stroke-width: 2.0;"/><text fill="#000000" font-family="sans-serif" font-size="14" lengthAdjust="spacingAndGlyphs" textLength="32" x="8" y="473.7061">User</text><ellipse cx="27" cy="487.0078" fill="#FEFECE" filter="url(#f1mopktn4itgra)" rx="8" ry="8" style="stroke: #A80036; stroke-width: 2.0;"/><path d="M27,495.0078 L27,522.0078 M14,503.0078 L40,503.0078 M27,522.0078 L14,537.0078 M27,522.0078 L40,537.0078 " fill="none" filter="url(#f1mopktn4itgra)" style="stroke: #A80036; stroke-width: 2.0;"/><text fill="#000000" font-family="sans-serif" font-size="14" lengthAdjust="spacingAndGlyphs" textLength="86" x="114" y="117.9482">SearchPanel</text><path d="M139.5,76.9531 L139.5,100.9531 M139.5,88.9531 L156.5,88.9531 " fill="none" filter="url(#f1mopktn4itgra)" style="stroke: #A80036; stroke-width: 2.0;"/><ellipse cx="168.5" cy="88.9531" fill="#FEFECE" filter="url(#f1mopktn4itgra)" rx="12" ry="12" style="stroke: #A80036; stroke-width: 2.0;"/><text fill="#000000" font-family="sans-serif" font-size="14" lengthAdjust="spacingAndGlyphs" textLength="86" x="114" y="473.7061">SearchPanel</text><path d="M139.5,481.0078 L139.5,505.0078 M139.5,493.0078 L156.5,493.0078 " fill="none" filter="url(#f1mopktn4itgra)" style="stroke: #A80036; stroke-width: 2.0;"/><ellipse cx="168.5" cy="493.0078" fill="#FEFECE" filter="url(#f1mopktn4itgra)" rx="12" ry="12" style="stroke: #A80036; stroke-width: 2.0;"/><text fill="#000000" font-family="sans-serif" font-size="14" lengthAdjust="spacingAndGlyphs" textLength="66" x="263" y="117.9482">TrailPanel</text><path d="M278.5,76.9531 L278.5,100.9531 M278.5,88.9531 L295.5,88.9531 " fill="none" filter="url(#f1mopktn4itgra)" style="stroke: #A80036; stroke-width: 2.0;"/><ellipse cx="307.5" cy="88.9531" fill="#FEFECE" filter="url(#f1mopktn4itgra)" rx="12" ry="12" style="stroke: #A80036; stroke-width: 2.0;"/><text fill="#000000" font-family="sans-serif" font-size="14" lengthAdjust="spacingAndGlyphs" textLength="66" x="263" y="473.7061">TrailPanel</text><path d="M278.5,481.0078 L278.5,505.0078 M278.5,493.0078 L295.5,493.0078 " fill="none" filter="url(#f1mopktn4itgra)" style="stroke: #A80036; stroke-width: 2.0;"/><ellipse cx="307.5" cy="493.0078" fill="#FEFECE" filter="url(#f1mopktn4itgra)" rx="12" ry="12" style="stroke: #A80036; stroke-width: 2.0;"/><text fill="#000000" font-family="sans-serif" font-size="14" lengthAdjust="spacingAndGlyphs" textLength="78" x="417" y="117.9482">TrailService</text><ellipse cx="459" cy="88.9531" fill="#FEFECE" filter="url(#f1mopktn4itgra)" rx="12" ry="12" style="stroke: #A80036; stroke-width: 2.0;"/><polygon fill="#A80036" points="455,76.9531,461,71.9531,459,76.9531,461,81.9531,455,76.9531" style="stroke: #A80036; stroke-width: 1.0;"/><text fill="#000000" font-family="sans-serif" font-size="14" lengthAdjust="spacingAndGlyphs" textLength="78" x="417" y="473.7061">TrailService</text><ellipse cx="459" cy="493.0078" fill="#FEFECE" filter="url(#f1mopktn4itgra)" rx="12" ry="12" style="stroke: #A80036; stroke-width: 2.0;"/><polygon fill="#A80036" points="455,481.0078,461,476.0078,459,481.0078,461,486.0078,455,481.0078" style="stroke: #A80036; stroke-width: 1.0;"/><text fill="#000000" font-family="sans-serif" font-size="14" lengthAdjust="spacingAndGlyphs" textLength="97" x="511" y="117.9482">WildlifeService</text><ellipse cx="562.5" cy="88.9531" fill="#FEFECE" filter="url(#f1mopktn4itgra)" rx="12" ry="12" style="stroke: #A80036; stroke-width: 2.0;"/><polygon fill="#A80036" points="558.5,76.9531,564.5,71.9531,562.5,76.9531,564.5,81.9531,558.5,76.9531" style="stroke: #A80036; stroke-width: 1.0;"/><text fill="#000000" font-family="sans-serif" font-size="14" lengthAdjust="spacingAndGlyphs" textLength="97" x="511" y="473.7061">WildlifeService</text><ellipse cx="562.5" cy="493.0078" fill="#FEFECE" filter="url(#f1mopktn4itgra)" rx="12" ry="12" style="stroke: #A80036; stroke-width: 2.0;"/><polygon fill="#A80036" points="558.5,481.0078,564.5,476.0078,562.5,481.0078,564.5,486.0078,558.5,481.0078" style="stroke: #A80036; stroke-width: 1.0;"/><text fill="#000000" font-family="sans-serif" font-size="14" lengthAdjust="spacingAndGlyphs" textLength="66" x="712.5" y="117.9482">Database</text><path d="M730.5,68.9531 C730.5,58.9531 748.5,58.9531 748.5,58.9531 C748.5,58.9531 766.5,58.9531 766.5,68.9531 L766.5,94.9531 C766.5,104.9531 748.5,104.9531 748.5,104.9531 C748.5,104.9531 730.5,104.9531 730.5,94.9531 L730.5,68.9531 " fill="#FEFECE" filter="url(#f1mopktn4itgra)" style="stroke: #000000; stroke-width: 1.5;"/><path d="M730.5,68.9531 C730.5,78.9531 748.5,78.9531 748.5,78.9531 C748.5,78.9531 766.5,78.9531 766.5,68.9531 " fill="none" style="stroke: #000000; stroke-width: 1.5;"/><text fill="#000000" font-family="sans-serif" font-size="14" lengthAdjust="spacingAndGlyphs" textLength="66" x="712.5" y="473.7061">Database</text><path d="M730.5,487.0078 C730.5,477.0078 748.5,477.0078 748.5,477.0078 C748.5,477.0078 766.5,477.0078 766.5,487.0078 L766.5,513.0078 C766.5,523.0078 748.5,523.0078 748.5,523.0078 C748.5,523.0078 730.5,523.0078 730.5,513.0078 L730.5,487.0078 " fill="#FEFECE" filter="url(#f1mopktn4itgra)" style="stroke: #000000; stroke-width: 1.5;"/><path d="M730.5,487.0078 C730.5,497.0078 748.5,497.0078 748.5,497.0078 C748.5,497.0078 766.5,497.0078 766.5,487.0078 " fill="none" style="stroke: #000000; stroke-width: 1.5;"/><polygon fill="#A80036" points="148,148.3828,158,152.3828,148,156.3828,152,152.3828" style="stroke: #A80036; stroke-width: 1.0;"/><line style="stroke: #A80036; stroke-width: 1.0;" x1="27" x2="154" y1="152.3828" y2="152.3828"/><text fill="#000000" font-family="sans-serif" font-size="13" lengthAdjust="spacingAndGlyphs" textLength="109" x="34" y="147.3169">selectTrail(trailId)</text><polygon fill="#A80036" points="287,177.5156,297,181.5156,287,185.5156,291,181.5156" style="stroke: #A80036; stroke-width: 1.0;"/><line style="stroke: #A80036; stroke-width: 1.0;" x1="160" x2="293" y1="181.5156" y2="181.5156"/><text fill="#000000" font-family="sans-serif" font-size="13" lengthAdjust="spacingAndGlyphs" textLength="103" x="167" y="176.4497">openTrail(trailId)</text><polygon fill="#A80036" points="447,206.6484,457,210.6484,447,214.6484,451,210.6484" style="stroke: #A80036; stroke-width: 1.0;"/><line style="stroke: #A80036; stroke-width: 1.0;" x1="299" x2="453" y1="210.6484" y2="210.6484"/><text fill="#000000" font-family="sans-serif" font-size="13" lengthAdjust="spacingAndGlyphs" textLength="136" x="306" y="205.5825">getTrailDetails(trailId)</text><polygon fill="#A80036" points="736.5,235.7813,746.5,239.7813,736.5,243.7813,740.5,239.7813" style="stroke: #A80036; stroke-width: 1.0;"/><line style="stroke: #A80036; stroke-width: 1.0;" x1="459" x2="742.5" y1="239.7813" y2="239.7813"/><text fill="#000000" font-family="sans-serif" font-size="13" lengthAdjust="spacingAndGlyphs" textLength="130" x="466" y="234.7153">fetchTrailById(trailId)</text><polygon fill="#A80036" points="470,264.9141,460,268.9141,470,272.9141,466,268.9141" style="stroke: #A80036; stroke-width: 1.0;"/><line style="stroke: #A80036; stroke-width: 1.0; stroke-dasharray: 2.0,2.0;" x1="464" x2="747.5" y1="268.9141" y2="268.9141"/><text fill="#000000" font-family="sans-serif" font-size="13" lengthAdjust="spacingAndGlyphs" textLength="24" x="476" y="263.8481">trail</text><polygon fill="#A80036" points="310,294.0469,300,298.0469,310,302.0469,306,298.0469" style="stroke: #A80036; stroke-width: 1.0;"/><line style="stroke: #A80036; stroke-width: 1.0; stroke-dasharray: 2.0,2.0;" x1="304" x2="458" y1="298.0469" y2="298.0469"/><text fill="#000000" font-family="sans-serif" font-size="13" lengthAdjust="spacingAndGlyphs" textLength="24" x="316" y="292.981">trail</text><polygon fill="#A80036" points="550.5,323.1797,560.5,327.1797,550.5,331.1797,554.5,327.1797" style="stroke: #A80036; stroke-width: 1.0;"/><line style="stroke: #A80036; stroke-width: 1.0;" x1="299" x2="556.5" y1="327.1797" y2="327.1797"/><text fill="#000000" font-family="sans-serif" font-size="13" lengthAdjust="spacingAndGlyphs" textLength="155" x="306" y="322.1138">getWildlifeForTrail(trailId)</text><polygon fill="#A80036" points="736.5,352.3125,746.5,356.3125,736.5,360.3125,740.5,356.3125" style="stroke: #A80036; stroke-width: 1.0;"/><line style="stroke: #A80036; stroke-width: 1.0;" x1="562.5" x2="742.5" y1="356.3125" y2="356.3125"/><text fill="#000000" font-family="sans-serif" font-size="13" lengthAdjust="spacingAndGlyphs" textLength="162" x="569.5" y="351.2466">fetchWildlifeByTrail(trailId)</text><polygon fill="#A80036" points="573.5,381.4453,563.5,385.4453,573.5,389.4453,569.5,385.4453" style="stroke: #A80036; stroke-width: 1.0;"/><line style="stroke: #A80036; stroke-width: 1.0; stroke-dasharray: 2.0,2.0;" x1="567.5" x2="747.5" y1="385.4453" y2="385.4453"/><text fill="#000000" font-family="sans-serif" font-size="13" lengthAdjust="spacingAndGlyphs" textLength="63" x="579.5" y="380.3794">wildlifeList</text><polygon fill="#A80036" points="310,410.5781,300,414.5781,310,418.5781,306,414.5781" style="stroke: #A80036; stroke-width: 1.0;"/><line style="stroke: #A80036; stroke-width: 1.0; stroke-dasharray: 2.0,2.0;" x1="304" x2="561.5" y1="414.5781" y2="414.5781"/><text fill="#000000" font-family="sans-serif" font-size="13" lengthAdjust="spacingAndGlyphs" textLength="63" x="316" y="409.5122">wildlifeList</text><polygon fill="#A80036" points="38,439.7109,28,443.7109,38,447.7109,34,443.7109" style="stroke: #A80036; stroke-width: 1.0;"/><line style="stroke: #A80036; stroke-width: 1.0; stroke-dasharray: 2.0,2.0;" x1="32" x2="298" y1="443.7109" y2="443.7109"/><text fill="#000000" font-family="sans-serif" font-size="13" lengthAdjust="spacingAndGlyphs" textLength="248" x="44" y="438.645">displayConciseTrailInfo(trail, wildlifeList)</text><!--MD5=[0387a08bb4cdf3af6f1f9e9c36dbeba0]
@startuml
title View Trail Information

actor User
boundary SearchPanel
boundary TrailPanel
control TrailService
control WildlifeService
database Database

User -> SearchPanel : selectTrail(trailId)
SearchPanel -> TrailPanel : openTrail(trailId)

TrailPanel -> TrailService : getTrailDetails(trailId)
TrailService -> Database : fetchTrailById(trailId)
Database - -> TrailService : trail
TrailService - -> TrailPanel : trail

TrailPanel -> WildlifeService : getWildlifeForTrail(trailId)
WildlifeService -> Database : fetchWildlifeByTrail(trailId)
Database - -> WildlifeService : wildlifeList
WildlifeService - -> TrailPanel : wildlifeList

TrailPanel - -> User : displayConciseTrailInfo(trail, wildlifeList)

@enduml

PlantUML version 1.2020.02(Sun Mar 01 05:22:07 EST 2020)
(GPL source distribution)
Java Runtime: OpenJDK Runtime Environment
JVM: OpenJDK 64-Bit Server VM
Java Version: 21.0.10+7-Ubuntu-124.04
Operating System: Linux
Default Encoding: UTF-8
Language: en
Country: null
--></g></svg>