<?xml version="1.0" encoding="UTF-8" standalone="no"?><svg xmlns="http://www.w3.org/2000/svg" xmlns:xlink="http://www.w3.org/1999/xlink" contentScriptType="application/ecmascript" contentStyleType="text/css" height="1223px" preserveAspectRatio="none" style="width:420px;height:1223px;" version="1.1" viewBox="0 0 420 1223" width="420px" zoomAndPan="magnify"><defs><filter height="300%" id="f1a2mbov8eywb" width="300%" x="-1" y="-1"><feGaussianBlur result="blurOut" stdDeviation="2.0"/><feColorMatrix in="blurOut" result="blurOut2" type="matrix" values="0 0 0 0 0 0 0 0 0 0 0 0 0 0 0 0 0 0 .4 0"/><feOffset dx="4.0" dy="4.0" in="blurOut2" result="blurOut3"/><feBlend in="SourceGraphic" in2="blurOut3" mode="normal"/></filter></defs><g><!--MD5=[1ca641517f5856b3b8b28f1151810449]
cluster Wildlife Explorer--><rect fill="#FFFFFF" filter="url(#f1a2mbov8eywb)" height="1188" style="stroke: #000000; stroke-width: 1.5;" width="262" x="147" y="24"/><text fill="#000000" font-family="sans-serif" font-size="14" font-weight="bold" lengthAdjust="spacingAndGlyphs" textLength="128" x="214" y="38.9951">Wildlife Explorer</text><ellipse cx="277.966" cy="73.9932" fill="#FEFECE" filter="url(#f1a2mbov8eywb)" rx="62.966" ry="14.9932" style="stroke: #A80036; stroke-width: 1.5;"/><text fill="#000000" font-family="sans-serif" font-size="14" lengthAdjust="spacingAndGlyphs" textLength="88" x="233.966" y="78.6416">Search Trails</text><ellipse cx="278.1635" cy="245.1327" fill="#FEFECE" filter="url(#f1a2mbov8eywb)" rx="86.1635" ry="19.6327" style="stroke: #A80036; stroke-width: 1.5;"/><text fill="#000000" font-family="sans-serif" font-size="14" lengthAdjust="spacingAndGlyphs" textLength="145" x="205.6635" y="249.7811">View Trail Information</text><ellipse cx="277.8237" cy="620.8647" fill="#FEFECE" filter="url(#f1a2mbov8eywb)" rx="64.8237" ry="15.3647" style="stroke: #A80036; stroke-width: 1.5;"/><text fill="#000000" font-family="sans-serif" font-size="14" lengthAdjust="spacingAndGlyphs" textLength="93" x="231.3237" y="625.5132">Add New Trail</text><ellipse cx="278.1316" cy="1101.2263" fill="#FEFECE" filter="url(#f1a2mbov8eywb)" rx="109.1316" ry="24.2263" style="stroke: #A80036; stroke-width: 1.5;"/><text fill="#000000" font-family="sans-serif" font-size="14" lengthAdjust="spacingAndGlyphs" textLength="196" x="180.1316" y="1105.8748">Edit Existing Trail Information</text><ellipse cx="277.9395" cy="1178.0879" fill="#FEFECE" filter="url(#f1a2mbov8eywb)" rx="75.9395" ry="17.5879" style="stroke: #A80036; stroke-width: 1.5;"/><text fill="#000000" font-family="sans-serif" font-size="14" lengthAdjust="spacingAndGlyphs" textLength="121" x="217.4395" y="1182.7363">Rate Existing Trail</text><ellipse cx="278.1614" cy="1015.9323" fill="#FEFECE" filter="url(#f1a2mbov8eywb)" rx="115.1614" ry="25.4323" style="stroke: #A80036; stroke-width: 1.5;"/><text fill="#000000" font-family="sans-serif" font-size="14" lengthAdjust="spacingAndGlyphs" textLength="209" x="173.6614" y="1020.5807">Add Wildlife Information to Trail</text><ellipse cx="278.1576" cy="386.9315" fill="#FEFECE" filter="url(#f1a2mbov8eywb)" rx="72.6576" ry="16.9315" style="stroke: #A80036; stroke-width: 1.5;"/><text fill="#000000" font-family="sans-serif" font-size="14" lengthAdjust="spacingAndGlyphs" textLength="113" x="221.6576" y="391.5799">Enter Trail Name</text><ellipse cx="277.9395" cy="457.0879" fill="#FEFECE" filter="url(#f1a2mbov8eywb)" rx="75.9395" ry="17.5879" style="stroke: #A80036; stroke-width: 1.5;"/><text fill="#000000" font-family="sans-serif" font-size="14" lengthAdjust="spacingAndGlyphs" textLength="121" x="217.4395" y="461.7363">Enter Trail Length</text><ellipse cx="277.8093" cy="531.7619" fill="#FEFECE" filter="url(#f1a2mbov8eywb)" rx="96.8093" ry="21.7619" style="stroke: #A80036; stroke-width: 1.5;"/><text fill="#000000" font-family="sans-serif" font-size="14" lengthAdjust="spacingAndGlyphs" textLength="169" x="193.3093" y="536.4103">Enter Elevation Changes</text><ellipse cx="278.1122" cy="316.9224" fill="#FEFECE" filter="url(#f1a2mbov8eywb)" rx="75.1122" ry="17.4224" style="stroke: #A80036; stroke-width: 1.5;"/><text fill="#000000" font-family="sans-serif" font-size="14" lengthAdjust="spacingAndGlyphs" textLength="119" x="218.6122" y="321.5709">Add Trail Pictures</text><ellipse cx="278.0624" cy="764.0125" fill="#FEFECE" filter="url(#f1a2mbov8eywb)" rx="80.5624" ry="18.5125" style="stroke: #A80036; stroke-width: 1.5;"/><text fill="#000000" font-family="sans-serif" font-size="14" lengthAdjust="spacingAndGlyphs" textLength="132" x="212.0624" y="768.6609">Enter Wildlife Name</text><ellipse cx="278.211" cy="839.9422" fill="#FEFECE" filter="url(#f1a2mbov8eywb)" rx="97.711" ry="21.9422" style="stroke: #A80036; stroke-width: 1.5;"/><text fill="#000000" font-family="sans-serif" font-size="14" lengthAdjust="spacingAndGlyphs" textLength="171" x="192.711" y="844.5906">Enter Wildlife Description</text><ellipse cx="277.8872" cy="917.7774" fill="#FEFECE" filter="url(#f1a2mbov8eywb)" rx="91.8872" ry="20.7774" style="stroke: #A80036; stroke-width: 1.5;"/><text fill="#000000" font-family="sans-serif" font-size="14" lengthAdjust="spacingAndGlyphs" textLength="158" x="198.8872" y="922.4259">Enter Encounter Notes</text><ellipse cx="278.1307" cy="691.0261" fill="#FEFECE" filter="url(#f1a2mbov8eywb)" rx="83.1307" ry="19.0261" style="stroke: #A80036; stroke-width: 1.5;"/><text fill="#000000" font-family="sans-serif" font-size="14" lengthAdjust="spacingAndGlyphs" textLength="138" x="209.1307" y="695.6746">Add Wildlife Pictures</text><ellipse cx="277.8004" cy="149.0601" fill="#FEFECE" filter="url(#f1a2mbov8eywb)" rx="113.3004" ry="25.0601" style="stroke: #A80036; stroke-width: 1.5;"/><text fill="#000000" font-family="sans-serif" font-size="14" lengthAdjust="spacingAndGlyphs" textLength="205" x="175.3004" y="153.7085">View Concise Trail Information</text><!--MD5=[fee662a292a0353a69bd162820bae93b]
entity User--><ellipse cx="22" cy="568" fill="#FEFECE" filter="url(#f1a2mbov8eywb)" rx="8" ry="8" style="stroke: #A80036; stroke-width: 1.5;"/><path d="M22,576 L22,603 M9,584 L35,584 M22,603 L9,618 M22,603 L35,618 " fill="none" filter="url(#f1a2mbov8eywb)" style="stroke: #A80036; stroke-width: 1.5;"/><text fill="#000000" font-family="sans-serif" font-size="14" lengthAdjust="spacingAndGlyphs" textLength="32" x="6" y="636.4951">User</text><!--MD5=[877c095afea871c591873fa9578738d7]
link User to UC_Search--><path d="M24.79,558.16 C29.73,452.49 44.77,175.97 68,142 C98.97,96.72 161.06,80.85 209.56,75.64 " fill="none" id="User-&gt;UC_Search" style="stroke: #A80036; stroke-width: 1.0;"/><polygon fill="#A80036" points="214.81,75.11,205.4558,72.028,209.835,75.6089,206.2541,79.9881,214.81,75.11" style="stroke: #A80036; stroke-width: 1.0;"/><!--MD5=[87b7fde481b8a4e3092e54b27640141b]
link User to UC_View--><path d="M24.28,558.15 C27.88,456.67 39.73,199.43 68,174 C88.82,155.27 107.36,159 131,174 C138.05,178.47 132.9,185.3 139,191 C158.73,209.45 185.49,221.85 210.19,230.06 " fill="none" id="User-&gt;UC_View" style="stroke: #A80036; stroke-width: 1.0;"/><polygon fill="#A80036" points="215.11,231.65,207.7772,225.075,210.3525,230.1117,205.3159,232.687,215.11,231.65" style="stroke: #A80036; stroke-width: 1.0;"/><!--MD5=[fa4342e28d5f08c5b1961649213aa913]
link User to UC_AddTrail--><path d="M24.67,558.17 C28.99,462.5 42.09,230.11 68,207 C88.9,188.36 110.98,187.42 131,207 C145.46,221.14 127.2,554.57 139,571 C156.07,594.78 185.6,607.28 212.97,613.84 " fill="none" id="User-&gt;UC_AddTrail" style="stroke: #A80036; stroke-width: 1.0;"/><polygon fill="#A80036" points="218.05,615,210.1685,609.0939,213.1759,613.8851,208.3847,616.8925,218.05,615" style="stroke: #A80036; stroke-width: 1.0;"/><!--MD5=[eab6ee8c59fcbe3570b6667d8b92cfa0]
link User to UC_EditTrail--><path d="M24.85,639.57 C29.8,741.09 44.6,1000.19 68,1031 C92.69,1063.52 133.12,1081.09 171.86,1090.53 " fill="none" id="User-&gt;UC_EditTrail" style="stroke: #A80036; stroke-width: 1.0;"/><polygon fill="#A80036" points="177.07,1091.75,169.2215,1085.8001,172.2022,1090.608,167.3943,1093.5886,177.07,1091.75" style="stroke: #A80036; stroke-width: 1.0;"/><!--MD5=[1de19098201f0cf804e05cc367e12f0d]
link User to UC_RateTrail--><path d="M22.75,639.7 C22.75,742.22 26.82,1008.41 68,1085 C94.73,1134.71 156.19,1157.89 205.59,1168.68 " fill="none" id="User-&gt;UC_RateTrail" style="stroke: #A80036; stroke-width: 1.0;"/><polygon fill="#A80036" points="210.63,1169.74,202.6471,1163.9717,205.7373,1168.7099,200.999,1171.8001,210.63,1169.74" style="stroke: #A80036; stroke-width: 1.0;"/><!--MD5=[07f7945d41e3ef44b3432c81ecf6a981]
link User to UC_AddWildlife--><path d="M24.84,639.74 C29.54,735.25 43.39,967.38 68,992 C95.49,1019.5 136.27,1028.28 174.52,1029.15 " fill="none" id="User-&gt;UC_AddWildlife" style="stroke: #A80036; stroke-width: 1.0;"/><polygon fill="#A80036" points="179.66,1029.22,170.7181,1025.0918,174.6605,1029.1486,170.6038,1033.091,179.66,1029.22" style="stroke: #A80036; stroke-width: 1.0;"/><!--MD5=[d3b1a3df598aa1d4e9f515f62281da15]
link UC_Search to UC_View--><path d="M215.25,75.99 C189.13,79.75 160.05,88.13 139,106 C72.95,162.09 82.35,209.18 97,225.5 C123.78,255.32 168.44,260.38 206.69,257.9 " fill="none" id="UC_Search-&gt;UC_View" style="stroke: #A80036; stroke-width: 1.0; stroke-dasharray: 7.0,7.0;"/><polygon fill="#A80036" points="211.81,257.52,202.5377,254.1997,206.8238,257.8915,203.132,262.1776,211.81,257.52" style="stroke: #A80036; stroke-width: 1.0;"/><text fill="#000000" font-family="sans-serif" font-size="13" lengthAdjust="spacingAndGlyphs" textLength="61" x="69" y="221.5669">«include»</text><!--MD5=[ee3c0f3b439a654433a9460d0eb81833]
link UC_View to UC_ConciseView--><path d="M278,225.11 C278,212 278,194.57 278,179.7 " fill="none" id="UC_View-&gt;UC_ConciseView" style="stroke: #A80036; stroke-width: 1.0; stroke-dasharray: 7.0,7.0;"/><polygon fill="#A80036" points="278,174.35,274,183.35,278,179.35,282,183.35,278,174.35" style="stroke: #A80036; stroke-width: 1.0;"/><text fill="#000000" font-family="sans-serif" font-size="13" lengthAdjust="spacingAndGlyphs" textLength="61" x="236" y="204.3169">«include»</text><!--MD5=[e5d603bc2c513b9a34c85b207d6754f4]
link UC_AddTrail to UC_TrailName--><path d="M230.63,631.66 C188.86,637.96 129.71,638.72 97,602.5 C87.39,591.86 58.07,502.54 139,422 C155.64,405.44 178.9,396.33 201.64,391.43 " fill="none" id="UC_AddTrail-&gt;UC_TrailName" style="stroke: #A80036; stroke-width: 1.0; stroke-dasharray: 7.0,7.0;"/><polygon fill="#A80036" points="206.79,390.39,197.1779,388.2435,201.8882,391.3761,198.7556,396.0864,206.79,390.39" style="stroke: #A80036; stroke-width: 1.0;"/><text fill="#000000" font-family="sans-serif" font-size="13" lengthAdjust="spacingAndGlyphs" textLength="61" x="69" y="598.5669">«include»</text><!--MD5=[bc6f0bb9d87dea92266e85fa4168b2d8]
link UC_AddTrail to UC_TrailLength--><path d="M225.88,611.65 C197.62,604.43 163.57,591.99 139,571 C104.36,541.41 66.65,511.48 97,477.5 C125.63,445.45 174.87,441.65 214.77,445.14 " fill="none" id="UC_AddTrail-&gt;UC_TrailLength" style="stroke: #A80036; stroke-width: 1.0; stroke-dasharray: 7.0,7.0;"/><polygon fill="#A80036" points="220.08,445.65,211.5116,440.7938,215.1037,445.1638,210.7337,448.7559,220.08,445.65" style="stroke: #A80036; stroke-width: 1.0;"/><text fill="#000000" font-family="sans-serif" font-size="13" lengthAdjust="spacingAndGlyphs" textLength="61" x="69" y="490.5669">«include»</text><!--MD5=[001fa091f8b1e8eaad5dcf9b4f34ae2e]
link UC_AddTrail to UC_Elevation--><path d="M278,605.5 C278,592.79 278,574.49 278,559.34 " fill="none" id="UC_AddTrail-&gt;UC_Elevation" style="stroke: #A80036; stroke-width: 1.0; stroke-dasharray: 7.0,7.0;"/><polygon fill="#A80036" points="278,554.33,274,563.33,278,559.33,282,563.33,278,554.33" style="stroke: #A80036; stroke-width: 1.0;"/><text fill="#000000" font-family="sans-serif" font-size="13" lengthAdjust="spacingAndGlyphs" textLength="61" x="236" y="584.3169">«include»</text><!--MD5=[9efda5b5fc07abd0a89ad5779f58f71e]
link UC_AddTrail to UC_TrailPictures--><path d="M215.44,616.57 C174.42,610.04 123.63,594.26 97,556.5 C87.74,543.37 48.77,444.64 139,352 C154.9,335.68 177.21,326.55 199.31,321.57 " fill="none" id="UC_AddTrail-&gt;UC_TrailPictures" style="stroke: #A80036; stroke-width: 1.0; stroke-dasharray: 7.0,7.0;"/><polygon fill="#A80036" points="204.32,320.5,194.689,318.4399,199.4273,321.5301,196.3371,326.2683,204.32,320.5" style="stroke: #A80036; stroke-width: 1.0;"/><text fill="#000000" font-family="sans-serif" font-size="13" lengthAdjust="spacingAndGlyphs" textLength="61" x="69" y="552.5669">«include»</text><!--MD5=[7274beb3eeb6a867ed83248d8fde093c]
link UC_AddWildlife to UC_WildlifeName--><path d="M201.3,996.86 C178.51,987.82 155.3,974.74 139,956 C88.06,897.45 45.62,844.67 97,786.5 C123.99,755.95 169.59,750.44 208.28,752.5 " fill="none" id="UC_AddWildlife-&gt;UC_WildlifeName" style="stroke: #A80036; stroke-width: 1.0; stroke-dasharray: 7.0,7.0;"/><polygon fill="#A80036" points="213.44,752.82,204.7095,748.2617,208.4499,752.5054,204.2062,756.2459,213.44,752.82" style="stroke: #A80036; stroke-width: 1.0;"/><text fill="#000000" font-family="sans-serif" font-size="13" lengthAdjust="spacingAndGlyphs" textLength="61" x="69" y="799.5669">«include»</text><!--MD5=[c7b36f2e065a4d33406d9c0b6ce4c15a]
link UC_AddWildlife to UC_WildlifeDesc--><path d="M166.19,1022.2 C139.82,1017.86 114.36,1007.81 97,987.5 C70.23,956.18 39.61,963.91 139,879 C153.2,866.87 170.9,858.5 188.87,852.72 " fill="none" id="UC_AddWildlife-&gt;UC_WildlifeDesc" style="stroke: #A80036; stroke-width: 1.0; stroke-dasharray: 7.0,7.0;"/><polygon fill="#A80036" points="193.94,851.16,184.1619,849.9816,189.1608,852.6294,186.513,857.6283,193.94,851.16" style="stroke: #A80036; stroke-width: 1.0;"/><text fill="#000000" font-family="sans-serif" font-size="13" lengthAdjust="spacingAndGlyphs" textLength="61" x="69" y="983.5669">«include»</text><!--MD5=[2c371d36335bdc5389aecc2bbe8f18f7]
link UC_AddWildlife to UC_EncounterNotes--><path d="M278,990.25 C278,976.11 278,958.6 278,944.37 " fill="none" id="UC_AddWildlife-&gt;UC_EncounterNotes" style="stroke: #A80036; stroke-width: 1.0; stroke-dasharray: 7.0,7.0;"/><polygon fill="#A80036" points="278,939.28,274,948.28,278,944.28,282,948.28,278,939.28" style="stroke: #A80036; stroke-width: 1.0;"/><text fill="#000000" font-family="sans-serif" font-size="13" lengthAdjust="spacingAndGlyphs" textLength="61" x="236" y="969.3169">«include»</text><!--MD5=[bd7ef79fa36e5b1d9c87e1c3e08d8907]
link UC_AddWildlife to UC_WildlifePictures--><path d="M202.65,996.59 C179.67,987.5 156.01,974.46 139,956 C94.56,907.75 82.3,878.43 97,814.5 C106.58,772.85 106.03,755.19 139,728 C155.59,714.32 176.74,705.66 197.51,700.19 " fill="none" id="UC_AddWildlife-&gt;UC_WildlifePictures" style="stroke: #A80036; stroke-width: 1.0; stroke-dasharray: 7.0,7.0;"/><polygon fill="#A80036" points="202.5,698.93,192.7927,697.2659,197.6535,700.1595,194.7599,705.0203,202.5,698.93" style="stroke: #A80036; stroke-width: 1.0;"/><text fill="#000000" font-family="sans-serif" font-size="13" lengthAdjust="spacingAndGlyphs" textLength="61" x="69" y="827.5669">«include»</text><!--MD5=[dd2a2026449d5186feb094b0a8251100]
link UC_EditTrail to UC_View--><path d="M185.61,1088.02 C168.16,1081.74 151.49,1072.51 139,1059 C79.56,994.69 106.39,953.56 97,866.5 C83.04,737.03 55.88,382.25 139,282 C151.86,266.49 170.41,257.09 189.8,251.47 " fill="none" id="UC_EditTrail-&gt;UC_View" style="stroke: #A80036; stroke-width: 1.0; stroke-dasharray: 7.0,7.0;"/><polygon fill="#A80036" points="194.74,250.13,185.0054,248.6341,189.9155,251.4432,187.1065,256.3533,194.74,250.13" style="stroke: #A80036; stroke-width: 1.0;"/><text fill="#000000" font-family="sans-serif" font-size="13" lengthAdjust="spacingAndGlyphs" textLength="61" x="69" y="862.5669">«include»</text><!--MD5=[4717c54a04df29de9e13aa300e067f98]
link UC_RateTrail to UC_View--><path d="M203.54,1174.22 C179.92,1169.34 155.65,1159.88 139,1142 C68.92,1066.77 106.37,1016.89 97,914.5 C84.16,774.22 49.4,390.7 139,282 C151.81,266.46 170.35,257.03 189.74,251.42 " fill="none" id="UC_RateTrail-&gt;UC_View" style="stroke: #A80036; stroke-width: 1.0; stroke-dasharray: 7.0,7.0;"/><polygon fill="#A80036" points="194.68,250.07,184.9413,248.6009,189.8592,251.3964,187.0636,256.3143,194.68,250.07" style="stroke: #A80036; stroke-width: 1.0;"/><text fill="#000000" font-family="sans-serif" font-size="13" lengthAdjust="spacingAndGlyphs" textLength="61" x="69" y="910.5669">«include»</text><!--MD5=[2017e222508c1a5405e2c21e5eb78b80]
link UC_AddWildlife to UC_View--><path d="M197.49,997.74 C175.2,988.78 153.25,975.54 139,956 C79.77,874.75 87.68,605.61 97,505.5 C106.37,404.86 70.24,356.08 139,282 C152.7,267.24 171.57,258.1 190.99,252.52 " fill="none" id="UC_AddWildlife-&gt;UC_View" style="stroke: #A80036; stroke-width: 1.0; stroke-dasharray: 7.0,7.0;"/><polygon fill="#A80036" points="195.94,251.17,186.2043,249.6814,191.1165,252.4868,188.3112,257.399,195.94,251.17" style="stroke: #A80036; stroke-width: 1.0;"/><text fill="#000000" font-family="sans-serif" font-size="13" lengthAdjust="spacingAndGlyphs" textLength="61" x="69" y="518.5669">«include»</text><!--MD5=[151121d9b2677797b3c34a3242e8e98c]
@startuml
left to right direction
skinparam packageStyle rectangle

actor User

rectangle "Wildlife Explorer" {
  usecase "Search Trails" as UC_Search
  usecase "View Trail Information" as UC_View
  usecase "Add New Trail" as UC_AddTrail
  usecase "Edit Existing Trail Information" as UC_EditTrail
  usecase "Rate Existing Trail" as UC_RateTrail
  usecase "Add Wildlife Information to Trail" as UC_AddWildlife

  usecase "Enter Trail Name" as UC_TrailName
  usecase "Enter Trail Length" as UC_TrailLength
  usecase "Enter Elevation Changes" as UC_Elevation
  usecase "Add Trail Pictures" as UC_TrailPictures

  usecase "Enter Wildlife Name" as UC_WildlifeName
  usecase "Enter Wildlife Description" as UC_WildlifeDesc
  usecase "Enter Encounter Notes" as UC_EncounterNotes
  usecase "Add Wildlife Pictures" as UC_WildlifePictures

  usecase "View Concise Trail Information" as UC_ConciseView
}

User - -> UC_Search
User - -> UC_View
User - -> UC_AddTrail
User - -> UC_EditTrail
User - -> UC_RateTrail
User - -> UC_AddWildlife

UC_Search .> UC_View : <<include>>
UC_View .> UC_ConciseView : <<include>>

UC_AddTrail .> UC_TrailName : <<include>>
UC_AddTrail .> UC_TrailLength : <<include>>
UC_AddTrail .> UC_Elevation : <<include>>
UC_AddTrail .> UC_TrailPictures : <<include>>

UC_AddWildlife .> UC_WildlifeName : <<include>>
UC_AddWildlife .> UC_WildlifeDesc : <<include>>
UC_AddWildlife .> UC_EncounterNotes : <<include>>
UC_AddWildlife .> UC_WildlifePictures : <<include>>

UC_EditTrail .> UC_View : <<include>>
UC_RateTrail .> UC_View : <<include>>
UC_AddWildlife .> UC_View : <<include>>

@enduml

PlantUML version 1.2020.02(Sun Mar 01 05:22:07 EST 2020)
(GPL source distribution)
Java Runtime: OpenJDK Runtime Environment
JVM: OpenJDK 64-Bit Server VM
Java Version: 21.0.10+7-Ubuntu-124.04
Operating System: Linux
Default Encoding: UTF-8
Language: en
Country: null
--></g></svg>