<?xml version="1.0" encoding="UTF-8" standalone="no"?><svg xmlns="http://www.w3.org/2000/svg" xmlns:xlink="http://www.w3.org/1999/xlink" contentScriptType="application/ecmascript" contentStyleType="text/css" height="1525px" preserveAspectRatio="none" style="width:1029px;height:1525px;" version="1.1" viewBox="0 0 1029 1525" width="1029px" zoomAndPan="magnify"><defs/><g><text fill="#000000" font-family="sans-serif" font-size="18" lengthAdjust="spacingAndGlyphs" textLength="521" x="257" y="16.708">Wildlife Explorer — domain and persistence (current code)</text><!--MD5=[4d209290e9e2642d082bc02c8e3fb747]
cluster wildlifeexplorer.model--><rect fill="#FFFFFF" height="764" style="stroke: #000000; stroke-width: 1.5;" width="262" x="297.5" y="750.9531"/><path d="M483.5,751.9531 L483.5,760.25 L473.5,770.25 L297.5,770.25 " fill="none" style="stroke: #000000; stroke-width: 1.5;"/><text fill="#000000" font-family="sans-serif" font-size="14" font-weight="bold" lengthAdjust="spacingAndGlyphs" textLength="176" x="300.5" y="764.9482">wildlifeexplorer.model</text><!--MD5=[18805dcc300dfaccb4b26366890bec6c]
cluster wildlifeexplorer.data--><rect fill="#FFFFFF" height="317" style="stroke: #000000; stroke-width: 1.5;" width="598" x="398.5" y="384.9531"/><path d="M570.5,385.9531 L570.5,394.25 L560.5,404.25 L398.5,404.25 " fill="none" style="stroke: #000000; stroke-width: 1.5;"/><text fill="#000000" font-family="sans-serif" font-size="14" font-weight="bold" lengthAdjust="spacingAndGlyphs" textLength="162" x="401.5" y="398.9482">wildlifeexplorer.data</text><!--MD5=[d2845f2a0b2a1ee045f202f31ba638b5]
cluster wildlifeexplorer.service--><rect fill="#FFFFFF" height="291" style="stroke: #000000; stroke-width: 1.5;" width="308" x="416.5" y="44.9531"/><path d="M612.5,45.9531 L612.5,54.25 L602.5,64.25 L416.5,64.25 " fill="none" style="stroke: #000000; stroke-width: 1.5;"/><text fill="#000000" font-family="sans-serif" font-size="14" font-weight="bold" lengthAdjust="spacingAndGlyphs" textLength="186" x="419.5" y="58.9482">wildlifeexplorer.service</text><!--MD5=[2e99d4ad766574dda0fbbc1bf22bdb5a]
class Wildlife--><rect fill="#FFFFFF" height="240.0703" id="Wildlife" style="stroke: #000000; stroke-width: 1.5;" width="229" x="314" y="1258.9531"/><ellipse cx="402.75" cy="1274.9531" fill="#ADD1B2" rx="11" ry="11" style="stroke: #000000; stroke-width: 1.0;"/><path d="M405.7188,1280.5938 Q405.1406,1280.8906 404.5,1281.0313 Q403.8594,1281.1875 403.1563,1281.1875 Q400.6563,1281.1875 399.3281,1279.5469 Q398.0156,1277.8906 398.0156,1274.7656 Q398.0156,1271.6406 399.3281,1269.9844 Q400.6563,1268.3281 403.1563,1268.3281 Q403.8594,1268.3281 404.5,1268.4844 Q405.1563,1268.6406 405.7188,1268.9375 L405.7188,1271.6563 Q405.0938,1271.0781 404.5,1270.8125 Q403.9063,1270.5313 403.2813,1270.5313 Q401.9375,1270.5313 401.25,1271.6094 Q400.5625,1272.6719 400.5625,1274.7656 Q400.5625,1276.8594 401.25,1277.9375 Q401.9375,1279 403.2813,1279 Q403.9063,1279 404.5,1278.7344 Q405.0938,1278.4531 405.7188,1277.875 L405.7188,1280.5938 Z "/><text fill="#000000" font-family="sans-serif" font-size="12" lengthAdjust="spacingAndGlyphs" textLength="43" x="423.25" y="1279.1074">Wildlife</text><line style="stroke: #000000; stroke-width: 1.5;" x1="315" x2="542" y1="1290.9531" y2="1290.9531"/><text fill="#000000" font-family="sans-serif" font-size="11" lengthAdjust="spacingAndGlyphs" textLength="82" x="320" y="1305.1636">-name : String</text><text fill="#000000" font-family="sans-serif" font-size="11" lengthAdjust="spacingAndGlyphs" textLength="40" x="320" y="1317.9683">-id : int</text><text fill="#000000" font-family="sans-serif" font-size="11" lengthAdjust="spacingAndGlyphs" textLength="113" x="320" y="1330.7729">-description : String</text><text fill="#000000" font-family="sans-serif" font-size="11" lengthAdjust="spacingAndGlyphs" textLength="82" x="320" y="1343.5776">-notes : String</text><text fill="#000000" font-family="sans-serif" font-size="11" lengthAdjust="spacingAndGlyphs" textLength="134" x="320" y="1356.3823">-pictures : List&lt;String&gt;</text><line style="stroke: #000000; stroke-width: 1.0;" x1="315" x2="542" y1="1362.9766" y2="1362.9766"/><text fill="#000000" font-family="sans-serif" font-size="11" lengthAdjust="spacingAndGlyphs" textLength="217" x="320" y="1377.187">+Wildlife(name, id, description, notes)</text><text fill="#000000" font-family="sans-serif" font-size="11" lengthAdjust="spacingAndGlyphs" textLength="114" x="320" y="1389.9917">+getName() : String</text><text fill="#000000" font-family="sans-serif" font-size="11" lengthAdjust="spacingAndGlyphs" textLength="71" x="320" y="1402.7964">+getId() : int</text><text fill="#000000" font-family="sans-serif" font-size="11" lengthAdjust="spacingAndGlyphs" textLength="145" x="320" y="1415.6011">+getDescription() : String</text><text fill="#000000" font-family="sans-serif" font-size="11" lengthAdjust="spacingAndGlyphs" textLength="114" x="320" y="1428.4058">+getNotes() : String</text><text fill="#000000" font-family="sans-serif" font-size="11" lengthAdjust="spacingAndGlyphs" textLength="165" x="320" y="1441.2104">+getPictures() : List&lt;String&gt;</text><text fill="#000000" font-family="sans-serif" font-size="11" lengthAdjust="spacingAndGlyphs" textLength="102" x="320" y="1454.0151">+setName(String)</text><text fill="#000000" font-family="sans-serif" font-size="11" lengthAdjust="spacingAndGlyphs" textLength="133" x="320" y="1466.8198">+setDescription(String)</text><text fill="#000000" font-family="sans-serif" font-size="11" lengthAdjust="spacingAndGlyphs" textLength="102" x="320" y="1479.6245">+setNotes(String)</text><text fill="#000000" font-family="sans-serif" font-size="11" lengthAdjust="spacingAndGlyphs" textLength="118" x="320" y="1492.4292">+addPictures(String)</text><!--MD5=[7ca803bc4fdfed48b4fe860ad95890cb]
class Trail--><rect fill="#FFFFFF" height="380.9219" id="Trail" style="stroke: #000000; stroke-width: 1.5;" width="206" x="313.5" y="785.9531"/><ellipse cx="399.25" cy="801.9531" fill="#ADD1B2" rx="11" ry="11" style="stroke: #000000; stroke-width: 1.0;"/><path d="M402.2188,807.5938 Q401.6406,807.8906 401,808.0313 Q400.3594,808.1875 399.6563,808.1875 Q397.1563,808.1875 395.8281,806.5469 Q394.5156,804.8906 394.5156,801.7656 Q394.5156,798.6406 395.8281,796.9844 Q397.1563,795.3281 399.6563,795.3281 Q400.3594,795.3281 401,795.4844 Q401.6563,795.6406 402.2188,795.9375 L402.2188,798.6563 Q401.5938,798.0781 401,797.8125 Q400.4063,797.5313 399.7813,797.5313 Q398.4375,797.5313 397.75,798.6094 Q397.0625,799.6719 397.0625,801.7656 Q397.0625,803.8594 397.75,804.9375 Q398.4375,806 399.7813,806 Q400.4063,806 401,805.7344 Q401.5938,805.4531 402.2188,804.875 L402.2188,807.5938 Z "/><text fill="#000000" font-family="sans-serif" font-size="12" lengthAdjust="spacingAndGlyphs" textLength="26" x="419.75" y="806.1074">Trail</text><line style="stroke: #000000; stroke-width: 1.5;" x1="314.5" x2="518.5" y1="817.9531" y2="817.9531"/><text fill="#000000" font-family="sans-serif" font-size="11" lengthAdjust="spacingAndGlyphs" textLength="82" x="319.5" y="832.1636">-name : String</text><text fill="#000000" font-family="sans-serif" font-size="11" lengthAdjust="spacingAndGlyphs" textLength="40" x="319.5" y="844.9683">-id : int</text><text fill="#000000" font-family="sans-serif" font-size="11" lengthAdjust="spacingAndGlyphs" textLength="89" x="319.5" y="857.7729">-length : double</text><text fill="#000000" font-family="sans-serif" font-size="11" lengthAdjust="spacingAndGlyphs" textLength="105" x="319.5" y="870.5776">-elevation : double</text><text fill="#000000" font-family="sans-serif" font-size="11" lengthAdjust="spacingAndGlyphs" textLength="87" x="319.5" y="883.3823">-rating : double</text><text fill="#000000" font-family="sans-serif" font-size="11" lengthAdjust="spacingAndGlyphs" textLength="134" x="319.5" y="896.187">-pictures : List&lt;String&gt;</text><text fill="#000000" font-family="sans-serif" font-size="11" lengthAdjust="spacingAndGlyphs" textLength="152" x="319.5" y="908.9917">-wildlifeList : List&lt;Wildlife&gt;</text><text fill="#000000" font-family="sans-serif" font-size="11" lengthAdjust="spacingAndGlyphs" textLength="114" x="319.5" y="921.7964">-totalRating : double</text><text fill="#000000" font-family="sans-serif" font-size="11" lengthAdjust="spacingAndGlyphs" textLength="90" x="319.5" y="934.6011">-numRating : int</text><line style="stroke: #000000; stroke-width: 1.0;" x1="314.5" x2="518.5" y1="941.1953" y2="941.1953"/><text fill="#000000" font-family="sans-serif" font-size="11" lengthAdjust="spacingAndGlyphs" textLength="194" x="319.5" y="955.4058">+Trail(name, id, length, elevation)</text><text fill="#000000" font-family="sans-serif" font-size="11" lengthAdjust="spacingAndGlyphs" textLength="114" x="319.5" y="968.2104">+getName() : String</text><text fill="#000000" font-family="sans-serif" font-size="11" lengthAdjust="spacingAndGlyphs" textLength="71" x="319.5" y="981.0151">+getId() : int</text><text fill="#000000" font-family="sans-serif" font-size="11" lengthAdjust="spacingAndGlyphs" textLength="123" x="319.5" y="993.8198">+getLength() : double</text><text fill="#000000" font-family="sans-serif" font-size="11" lengthAdjust="spacingAndGlyphs" textLength="136" x="319.5" y="1006.6245">+getElevation() : double</text><text fill="#000000" font-family="sans-serif" font-size="11" lengthAdjust="spacingAndGlyphs" textLength="120" x="319.5" y="1019.4292">+getRating() : double</text><text fill="#000000" font-family="sans-serif" font-size="11" lengthAdjust="spacingAndGlyphs" textLength="165" x="319.5" y="1032.2339">+getPictures() : List&lt;String&gt;</text><text fill="#000000" font-family="sans-serif" font-size="11" lengthAdjust="spacingAndGlyphs" textLength="183" x="319.5" y="1045.0386">+getWildlifeList() : List&lt;Wildlife&gt;</text><text fill="#000000" font-family="sans-serif" font-size="11" lengthAdjust="spacingAndGlyphs" textLength="148" x="319.5" y="1057.8433">+getTotalRating() : double</text><text fill="#000000" font-family="sans-serif" font-size="11" lengthAdjust="spacingAndGlyphs" textLength="122" x="319.5" y="1070.6479">+getNumRating() : int</text><text fill="#000000" font-family="sans-serif" font-size="11" lengthAdjust="spacingAndGlyphs" textLength="102" x="319.5" y="1083.4526">+setName(String)</text><text fill="#000000" font-family="sans-serif" font-size="11" lengthAdjust="spacingAndGlyphs" textLength="111" x="319.5" y="1096.2573">+setLength(double)</text><text fill="#000000" font-family="sans-serif" font-size="11" lengthAdjust="spacingAndGlyphs" textLength="124" x="319.5" y="1109.062">+setElevation(double)</text><text fill="#000000" font-family="sans-serif" font-size="11" lengthAdjust="spacingAndGlyphs" textLength="111" x="319.5" y="1121.8667">+addPicture(String)</text><text fill="#000000" font-family="sans-serif" font-size="11" lengthAdjust="spacingAndGlyphs" textLength="116" x="319.5" y="1134.6714">+addWildlife(Wildlife)</text><text fill="#000000" font-family="sans-serif" font-size="11" lengthAdjust="spacingAndGlyphs" textLength="129" x="319.5" y="1147.4761">+updateRating(double)</text><text fill="#000000" font-family="sans-serif" font-size="11" lengthAdjust="spacingAndGlyphs" textLength="160" x="319.5" y="1160.2808">+setRatingState(double, int)</text><!--MD5=[ed3afe56f065d25b4329669e73deaf58]
class Database--><rect fill="#FFFFFF" height="265.6797" id="Database" style="stroke: #000000; stroke-width: 1.5;" width="311" x="415" y="419.9531"/><ellipse cx="535.75" cy="435.9531" fill="#ADD1B2" rx="11" ry="11" style="stroke: #000000; stroke-width: 1.0;"/><path d="M538.7188,441.5938 Q538.1406,441.8906 537.5,442.0313 Q536.8594,442.1875 536.1563,442.1875 Q533.6563,442.1875 532.3281,440.5469 Q531.0156,438.8906 531.0156,435.7656 Q531.0156,432.6406 532.3281,430.9844 Q533.6563,429.3281 536.1563,429.3281 Q536.8594,429.3281 537.5,429.4844 Q538.1563,429.6406 538.7188,429.9375 L538.7188,432.6563 Q538.0938,432.0781 537.5,431.8125 Q536.9063,431.5313 536.2813,431.5313 Q534.9375,431.5313 534.25,432.6094 Q533.5625,433.6719 533.5625,435.7656 Q533.5625,437.8594 534.25,438.9375 Q534.9375,440 536.2813,440 Q536.9063,440 537.5,439.7344 Q538.0938,439.4531 538.7188,438.875 L538.7188,441.5938 Z "/><text fill="#000000" font-family="sans-serif" font-size="12" lengthAdjust="spacingAndGlyphs" textLength="61" x="556.25" y="440.1074">Database</text><line style="stroke: #000000; stroke-width: 1.5;" x1="416" x2="725" y1="451.9531" y2="451.9531"/><text fill="#000000" font-family="sans-serif" font-size="11" lengthAdjust="spacingAndGlyphs" textLength="108" x="421" y="466.1636">-trails : List&lt;Trail&gt;</text><text fill="#000000" font-family="sans-serif" font-size="11" lengthAdjust="spacingAndGlyphs" textLength="207" x="421" y="478.9683">-wildlifeById : Map&lt;Integer, Wildlife&gt;</text><text fill="#000000" font-family="sans-serif" font-size="11" lengthAdjust="spacingAndGlyphs" textLength="95" x="421" y="491.7729">-trailsPath : Path</text><text fill="#000000" font-family="sans-serif" font-size="11" lengthAdjust="spacingAndGlyphs" textLength="105" x="421" y="504.5776">-wildlifePath : Path</text><line style="stroke: #000000; stroke-width: 1.0;" x1="416" x2="725" y1="511.1719" y2="511.1719"/><text fill="#000000" font-family="sans-serif" font-size="11" lengthAdjust="spacingAndGlyphs" textLength="100" x="421" y="525.3823">+insertTrail(Trail)</text><text fill="#000000" font-family="sans-serif" font-size="11" lengthAdjust="spacingAndGlyphs" textLength="145" x="421" y="538.187">+fetchTrailById(int) : Trail</text><text fill="#000000" font-family="sans-serif" font-size="11" lengthAdjust="spacingAndGlyphs" textLength="179" x="421" y="550.9917">+findTrails(String) : List&lt;Trail&gt;</text><text fill="#000000" font-family="sans-serif" font-size="11" lengthAdjust="spacingAndGlyphs" textLength="155" x="421" y="563.7964">+getAllTrails() : List&lt;Trail&gt;</text><text fill="#000000" font-family="sans-serif" font-size="11" lengthAdjust="spacingAndGlyphs" textLength="176" x="421" y="576.6011">+getAllWildlife() : List&lt;Wildlife&gt;</text><text fill="#000000" font-family="sans-serif" font-size="11" lengthAdjust="spacingAndGlyphs" textLength="91" x="421" y="589.4058">+deleteTrail(int)</text><text fill="#000000" font-family="sans-serif" font-size="11" lengthAdjust="spacingAndGlyphs" textLength="217" x="421" y="602.2104">+insertRating(int trailId, double score)</text><text fill="#000000" font-family="sans-serif" font-size="11" lengthAdjust="spacingAndGlyphs" textLength="186" x="421" y="615.0151">+insertWildlife(int trailId, Wildlife)</text><text fill="#000000" font-family="sans-serif" font-size="11" lengthAdjust="spacingAndGlyphs" textLength="299" x="421" y="627.8198">+attachExistingWildlifeToTrail(int trailId, int wildlifeId)</text><text fill="#000000" font-family="sans-serif" font-size="11" lengthAdjust="spacingAndGlyphs" textLength="278" x="421" y="640.6245">+removeWildlifeFromTrail(int trailId, int wildlifeId)</text><text fill="#000000" font-family="sans-serif" font-size="11" lengthAdjust="spacingAndGlyphs" textLength="44" x="421" y="653.4292">+save()</text><text fill="#000000" font-family="sans-serif" font-size="11" lengthAdjust="spacingAndGlyphs" textLength="41" x="421" y="666.2339">+load()</text><text fill="#000000" font-family="sans-serif" font-size="11" lengthAdjust="spacingAndGlyphs" textLength="111" x="421" y="679.0386">+clearAllUserData()</text><!--MD5=[0ab02dc7671c68cbc68d923be3671058]
class TrailList--><rect fill="#FFFFFF" height="173.1797" id="TrailList" style="stroke: #000000; stroke-width: 1.5;" width="219" x="761" y="466.4531"/><ellipse cx="840.75" cy="485.4219" fill="#ADD1B2" rx="11" ry="11" style="stroke: #000000; stroke-width: 1.0;"/><path d="M843.7188,491.0625 Q843.1406,491.3594 842.5,491.5 Q841.8594,491.6563 841.1563,491.6563 Q838.6563,491.6563 837.3281,490.0156 Q836.0156,488.3594 836.0156,485.2344 Q836.0156,482.1094 837.3281,480.4531 Q838.6563,478.7969 841.1563,478.7969 Q841.8594,478.7969 842.5,478.9531 Q843.1563,479.1094 843.7188,479.4063 L843.7188,482.125 Q843.0938,481.5469 842.5,481.2813 Q841.9063,481 841.2813,481 Q839.9375,481 839.25,482.0781 Q838.5625,483.1406 838.5625,485.2344 Q838.5625,487.3281 839.25,488.4063 Q839.9375,489.4688 841.2813,489.4688 Q841.9063,489.4688 842.5,489.2031 Q843.0938,488.9219 843.7188,488.3438 L843.7188,491.0625 Z "/><text fill="#000000" font-family="sans-serif" font-size="12" font-style="italic" lengthAdjust="spacingAndGlyphs" textLength="55" x="859.25" y="482.5918">«legacy»</text><text fill="#000000" font-family="sans-serif" font-size="12" lengthAdjust="spacingAndGlyphs" textLength="47" x="863.25" y="496.5605">TrailList</text><line style="stroke: #000000; stroke-width: 1.5;" x1="762" x2="979" y1="504.3906" y2="504.3906"/><text fill="#000000" font-family="sans-serif" font-size="11" lengthAdjust="spacingAndGlyphs" textLength="108" x="767" y="535.4058">-trails : List&lt;Trail&gt;</text><text fill="#000000" font-family="sans-serif" font-size="11" lengthAdjust="spacingAndGlyphs" textLength="100" x="767" y="548.2104">-fileName : String</text><line style="stroke: #000000; stroke-width: 1.0; stroke-dasharray: 1.0,2.0;" x1="762" x2="765" y1="518.793" y2="518.793"/><text fill="#000000" font-family="sans-serif" font-size="11" lengthAdjust="spacingAndGlyphs" textLength="211" x="765" y="522.1011">Not referenced by Main / TrailService</text><line style="stroke: #000000; stroke-width: 1.0; stroke-dasharray: 1.0,2.0;" x1="976" x2="979" y1="518.793" y2="518.793"/><line style="stroke: #000000; stroke-width: 1.0;" x1="762" x2="979" y1="554.8047" y2="554.8047"/><text fill="#000000" font-family="sans-serif" font-size="11" lengthAdjust="spacingAndGlyphs" textLength="88" x="767" y="569.0151">+addTrail(Trail)</text><text fill="#000000" font-family="sans-serif" font-size="11" lengthAdjust="spacingAndGlyphs" textLength="135" x="767" y="581.8198">+getTrailById(int) : Trail</text><text fill="#000000" font-family="sans-serif" font-size="11" lengthAdjust="spacingAndGlyphs" textLength="190" x="767" y="594.6245">+searchTrail(String) : List&lt;Trail&gt;</text><text fill="#000000" font-family="sans-serif" font-size="11" lengthAdjust="spacingAndGlyphs" textLength="142" x="767" y="607.4292">+viewTrail() : List&lt;Trail&gt;</text><text fill="#000000" font-family="sans-serif" font-size="11" lengthAdjust="spacingAndGlyphs" textLength="60" x="767" y="620.2339">+loadFile()</text><text fill="#000000" font-family="sans-serif" font-size="11" lengthAdjust="spacingAndGlyphs" textLength="63" x="767" y="633.0386">+saveFile()</text><!--MD5=[e5f606911163686f9ad68bbb719d2c3d]
class TrailService--><rect fill="#FFFFFF" height="240.0703" id="TrailService" style="stroke: #000000; stroke-width: 1.5;" width="275" x="433" y="79.9531"/><ellipse cx="530.75" cy="95.9531" fill="#ADD1B2" rx="11" ry="11" style="stroke: #000000; stroke-width: 1.0;"/><path d="M533.7188,101.5938 Q533.1406,101.8906 532.5,102.0313 Q531.8594,102.1875 531.1563,102.1875 Q528.6563,102.1875 527.3281,100.5469 Q526.0156,98.8906 526.0156,95.7656 Q526.0156,92.6406 527.3281,90.9844 Q528.6563,89.3281 531.1563,89.3281 Q531.8594,89.3281 532.5,89.4844 Q533.1563,89.6406 533.7188,89.9375 L533.7188,92.6563 Q533.0938,92.0781 532.5,91.8125 Q531.9063,91.5313 531.2813,91.5313 Q529.9375,91.5313 529.25,92.6094 Q528.5625,93.6719 528.5625,95.7656 Q528.5625,97.8594 529.25,98.9375 Q529.9375,100 531.2813,100 Q531.9063,100 532.5,99.7344 Q533.0938,99.4531 533.7188,98.875 L533.7188,101.5938 Z "/><text fill="#000000" font-family="sans-serif" font-size="12" lengthAdjust="spacingAndGlyphs" textLength="71" x="551.25" y="100.1074">TrailService</text><line style="stroke: #000000; stroke-width: 1.5;" x1="434" x2="707" y1="111.9531" y2="111.9531"/><text fill="#000000" font-family="sans-serif" font-size="11" lengthAdjust="spacingAndGlyphs" textLength="123" x="439" y="126.1636">-database : Database</text><line style="stroke: #000000; stroke-width: 1.0;" x1="434" x2="707" y1="132.7578" y2="132.7578"/><text fill="#000000" font-family="sans-serif" font-size="11" lengthAdjust="spacingAndGlyphs" textLength="138" x="439" y="146.9683">+TrailService(Database)</text><text fill="#000000" font-family="sans-serif" font-size="11" lengthAdjust="spacingAndGlyphs" textLength="230" x="439" y="159.7729">+createTrail(name, id, length, elevation)</text><text fill="#000000" font-family="sans-serif" font-size="11" lengthAdjust="spacingAndGlyphs" textLength="215" x="439" y="172.5776">+editTrail(name, id, length, elevation)</text><text fill="#000000" font-family="sans-serif" font-size="11" lengthAdjust="spacingAndGlyphs" textLength="69" x="439" y="185.3823">+saveTrail()</text><text fill="#000000" font-family="sans-serif" font-size="11" lengthAdjust="spacingAndGlyphs" textLength="116" x="439" y="198.187">+rateTrail(id, rating)</text><text fill="#000000" font-family="sans-serif" font-size="11" lengthAdjust="spacingAndGlyphs" textLength="107" x="439" y="210.9917">+getTrail(id) : Trail</text><text fill="#000000" font-family="sans-serif" font-size="11" lengthAdjust="spacingAndGlyphs" textLength="87" x="439" y="223.7964">+deleteTrail(id)</text><text fill="#000000" font-family="sans-serif" font-size="11" lengthAdjust="spacingAndGlyphs" textLength="156" x="439" y="236.6011">+addWildlife(trailId, Wildlife)</text><text fill="#000000" font-family="sans-serif" font-size="11" lengthAdjust="spacingAndGlyphs" textLength="175" x="439" y="249.4058">+listAllWildlife() : List&lt;Wildlife&gt;</text><text fill="#000000" font-family="sans-serif" font-size="11" lengthAdjust="spacingAndGlyphs" textLength="263" x="439" y="262.2104">+attachExistingWildlifeToTrail(trailId, wildlifeId)</text><text fill="#000000" font-family="sans-serif" font-size="11" lengthAdjust="spacingAndGlyphs" textLength="242" x="439" y="275.0151">+removeWildlifeFromTrail(trailId, wildlifeId)</text><text fill="#000000" font-family="sans-serif" font-size="11" lengthAdjust="spacingAndGlyphs" textLength="188" x="439" y="287.8198">+searchTrail(name) : List&lt;Trail&gt;</text><text fill="#000000" font-family="sans-serif" font-size="11" lengthAdjust="spacingAndGlyphs" textLength="149" x="439" y="300.6245">+viewTrails() : List&lt;Trail&gt;</text><text fill="#000000" font-family="sans-serif" font-size="11" lengthAdjust="spacingAndGlyphs" textLength="111" x="439" y="313.4292">+clearAllUserData()</text><path d="M6,1351.4531 L6,1406.8516 A0,0 0 0 0 6,1406.8516 L279,1406.8516 A0,0 0 0 0 279,1406.8516 L279,1361.4531 L269,1351.4531 L164.7,1351.4531 L313.5,1128.0131 L156.7,1351.4531 L6,1351.4531 A0,0 0 0 0 6,1351.4531 " fill="#FFFFFF" style="stroke: #000000; stroke-width: 1.0;"/><path d="M269,1351.4531 L269,1361.4531 L279,1361.4531 L269,1351.4531 " fill="#FFFFFF" style="stroke: #000000; stroke-width: 1.0;"/><text fill="#000000" font-family="sans-serif" font-size="13" lengthAdjust="spacingAndGlyphs" textLength="252" x="12" y="1368.52">Persisted trails reference wildlife via ids;</text><text fill="#000000" font-family="sans-serif" font-size="13" lengthAdjust="spacingAndGlyphs" textLength="242" x="12" y="1383.6528">loaded trails hold List&lt;Wildlife&gt; joined</text><text fill="#000000" font-family="sans-serif" font-size="13" lengthAdjust="spacingAndGlyphs" textLength="110" x="12" y="1398.7856">from the catalog.</text><path d="M724,948.9531 L724,1004.3516 A0,0 0 0 0 724,1004.3516 L1017,1004.3516 A0,0 0 0 0 1017,1004.3516 L1017,958.9531 L1007,948.9531 L874.5,948.9531 L870.5,639.5031 L866.5,948.9531 L724,948.9531 A0,0 0 0 0 724,948.9531 " fill="#FFFFFF" style="stroke: #000000; stroke-width: 1.0;"/><path d="M1007,948.9531 L1007,958.9531 L1017,958.9531 L1007,948.9531 " fill="#FFFFFF" style="stroke: #000000; stroke-width: 1.0;"/><text fill="#000000" font-family="sans-serif" font-size="13" lengthAdjust="spacingAndGlyphs" textLength="272" x="730" y="966.02">Original sketch used TrailList as repository.</text><text fill="#000000" font-family="sans-serif" font-size="13" lengthAdjust="spacingAndGlyphs" textLength="145" x="730" y="981.1528">Runtime persistence is</text><text fill="#000000" font-family="sans-serif" font-size="13" font-weight="bold" lengthAdjust="spacingAndGlyphs" textLength="71" x="879" y="981.1528">Database</text><text fill="#000000" font-family="sans-serif" font-size="13" lengthAdjust="spacingAndGlyphs" textLength="41" x="954" y="981.1528">(JSON:</text><text fill="#000000" font-family="sans-serif" font-size="13" lengthAdjust="spacingAndGlyphs" textLength="160" x="730" y="996.2856">trails.json + wildlife.json).</text><!--MD5=[bbd8d955259882bfe4c76da650178db4]
reverse link Trail to Wildlife--><path d="M422.58,1180.3331 C423.38,1207.2131 424.19,1234.0231 424.93,1258.8331 " fill="none" id="Trail&lt;-Wildlife" style="stroke: #000000; stroke-width: 1.0;"/><polygon fill="#FFFFFF" points="422.18,1167.1431,418.3599,1173.2592,422.5363,1179.1378,426.3564,1173.0217,422.18,1167.1431" style="stroke: #000000; stroke-width: 1.0;"/><text fill="#000000" font-family="sans-serif" font-size="13" lengthAdjust="spacingAndGlyphs" textLength="63" x="456.5" y="1210.02">wildlifeList</text><text fill="#000000" font-family="sans-serif" font-size="13" lengthAdjust="spacingAndGlyphs" textLength="127" x="424.5" y="1225.1528">(on-trail references)</text><text fill="#000000" font-family="sans-serif" font-size="13" lengthAdjust="spacingAndGlyphs" textLength="8" x="414.2456" y="1186.9559">1</text><text fill="#000000" font-family="sans-serif" font-size="13" lengthAdjust="spacingAndGlyphs" textLength="36" x="387.5482" y="1247.7264">many</text><!--MD5=[6c1f77cc5834bcd2e84f0aa21da42b42]
link TrailService to Database--><path d="M570.5,320.2731 C570.5,350.5231 570.5,383.2631 570.5,414.3331 " fill="none" id="TrailService-&gt;Database" style="stroke: #000000; stroke-width: 1.0;"/><polygon fill="#000000" points="570.5,419.7031,574.5,410.7031,570.5,414.7031,566.5,410.7031,570.5,419.7031" style="stroke: #000000; stroke-width: 1.0;"/><text fill="#000000" font-family="sans-serif" font-size="13" lengthAdjust="spacingAndGlyphs" textLength="30" x="571.5" y="365.02">uses</text><!--MD5=[a0d9f968ca53b346b5b3954173b132ba]
reverse link Database to Trail--><path d="M517.68,698.5231 C507.41,726.6431 496.49,756.5131 485.78,785.8231 " fill="none" id="Database&lt;-Trail" style="stroke: #000000; stroke-width: 1.0;"/><polygon fill="#000000" points="522.2,686.1631,516.3856,690.4284,518.0864,697.436,523.9008,693.1708,522.2,686.1631" style="stroke: #000000; stroke-width: 1.0;"/><text fill="#000000" font-family="sans-serif" font-size="13" lengthAdjust="spacingAndGlyphs" textLength="31" x="507.5" y="731.02">trails</text><text fill="#000000" font-family="sans-serif" font-size="13" lengthAdjust="spacingAndGlyphs" textLength="8" x="511.5033" y="705.4971">1</text><text fill="#000000" font-family="sans-serif" font-size="13" lengthAdjust="spacingAndGlyphs" textLength="36" x="451.7831" y="775.1547">many</text><!--MD5=[67ce7397d2cec19eeaae4c796c29b781]
reverse link Database to Wildlife--><path d="M596.63,698.8931 C615.55,839.4631 627.47,1056.2331 560.5,1228.9531 C555.94,1240.7131 550,1252.1531 543.16,1263.1131 " fill="none" id="Database&lt;-Wildlife" style="stroke: #000000; stroke-width: 1.0;"/><polygon fill="#000000" points="594.84,685.9531,591.6954,692.4425,596.4761,697.8411,599.6207,691.3517,594.84,685.9531" style="stroke: #000000; stroke-width: 1.0;"/><text fill="#000000" font-family="sans-serif" font-size="13" lengthAdjust="spacingAndGlyphs" textLength="47" x="627" y="973.52">catalog</text><text fill="#000000" font-family="sans-serif" font-size="13" lengthAdjust="spacingAndGlyphs" textLength="78" x="611.5" y="988.6528">(wildlifeById)</text><text fill="#000000" font-family="sans-serif" font-size="13" lengthAdjust="spacingAndGlyphs" textLength="8" x="587.9523" y="705.716">1</text><text fill="#000000" font-family="sans-serif" font-size="13" lengthAdjust="spacingAndGlyphs" textLength="36" x="550.8294" y="1253.0512">many</text><!--MD5=[99f44429ba94f4263a906776797347b4]
@startuml

skinparam BackgroundColor white
skinparam shadowing false
skinparam defaultFontName SansSerif
skinparam ArrowColor black
skinparam ArrowThickness 1

skinparam classAttributeIconSize 0
skinparam class {
  BackgroundColor white
  BorderColor black
  FontColor black
}
skinparam package {
  BackgroundColor white
  BorderColor black
  FontColor black
}
skinparam stereotype {
  BackgroundColor white
  FontColor black
}

skinparam sequenceMessageAlign center
skinparam LifeLineBorderColor black
skinparam LifeLineBackgroundColor white
skinparam sequence {
  ArrowColor black
  LifeLineBorderColor black
}
skinparam participant {
  BackgroundColor white
  BorderColor black
  FontColor black
}
skinparam actor {
  BackgroundColor white
  BorderColor black
  FontColor black
}
skinparam boundary {
  BackgroundColor white
  BorderColor black
  FontColor black
}
skinparam control {
  BackgroundColor white
  BorderColor black
  FontColor black
}
skinparam database {
  BackgroundColor white
  BorderColor black
  FontColor black
}
skinparam entity {
  BackgroundColor white
  BorderColor black
  FontColor black
}
skinparam collections {
  BackgroundColor white
  BorderColor black
  FontColor black
}
skinparam note {
  BackgroundColor white
  BorderColor black
  FontColor black
}

title Wildlife Explorer — domain and persistence (current code)

package "wildlifeexplorer.model" <<Frame>> {
  class Wildlife {
    - name : String
    - id : int
    - description : String
    - notes : String
    - pictures : List<String>
    - -
    + Wildlife(name, id, description, notes)
    + getName() : String
    + getId() : int
    + getDescription() : String
    + getNotes() : String
    + getPictures() : List<String>
    + setName(String)
    + setDescription(String)
    + setNotes(String)
    + addPictures(String)
  }

  class Trail {
    - name : String
    - id : int
    - length : double
    - elevation : double
    - rating : double
    - pictures : List<String>
    - wildlifeList : List<Wildlife>
    - totalRating : double
    - numRating : int
    - -
    + Trail(name, id, length, elevation)
    + getName() : String
    + getId() : int
    + getLength() : double
    + getElevation() : double
    + getRating() : double
    + getPictures() : List<String>
    + getWildlifeList() : List<Wildlife>
    + getTotalRating() : double
    + getNumRating() : int
    + setName(String)
    + setLength(double)
    + setElevation(double)
    + addPicture(String)
    + addWildlife(Wildlife)
    + updateRating(double)
    + setRatingState(double, int)
  }
}

package "wildlifeexplorer.data" <<Frame>> {
  class Database {
    - trails : List<Trail>
    - wildlifeById : Map<Integer, Wildlife>
    - trailsPath : Path
    - wildlifePath : Path
    - -
    + insertTrail(Trail)
    + fetchTrailById(int) : Trail
    + findTrails(String) : List<Trail>
    + getAllTrails() : List<Trail>
    + getAllWildlife() : List<Wildlife>
    + deleteTrail(int)
    + insertRating(int trailId, double score)
    + insertWildlife(int trailId, Wildlife)
    + attachExistingWildlifeToTrail(int trailId, int wildlifeId)
    + removeWildlifeFromTrail(int trailId, int wildlifeId)
    + save()
    + load()
    + clearAllUserData()
  }

  class TrailList <<legacy>> {
    .. Not referenced by Main / TrailService ..
    - trails : List<Trail>
    - fileName : String
    - -
    + addTrail(Trail)
    + getTrailById(int) : Trail
    + searchTrail(String) : List<Trail>
    + viewTrail() : List<Trail>
    + loadFile()
    + saveFile()
  }
}

package "wildlifeexplorer.service" <<Frame>> {
  class TrailService {
    - database : Database
    - -
    + TrailService(Database)
    + createTrail(name, id, length, elevation)
    + editTrail(name, id, length, elevation)
    + saveTrail()
    + rateTrail(id, rating)
    + getTrail(id) : Trail
    + deleteTrail(id)
    + addWildlife(trailId, Wildlife)
    + listAllWildlife() : List<Wildlife>
    + attachExistingWildlifeToTrail(trailId, wildlifeId)
    + removeWildlifeFromTrail(trailId, wildlifeId)
    + searchTrail(name) : List<Trail>
    + viewTrails() : List<Trail>
    + clearAllUserData()
  }
}

Trail "1" o- - "many" Wildlife : wildlifeList\n(on-trail references)

TrailService - -> Database : uses
Database "1" *- - "many" Trail : trails
Database "1" *- - "many" Wildlife : catalog\n(wildlifeById)

note bottom of Trail
  Persisted trails reference wildlife via ids;
  loaded trails hold List<Wildlife> joined
  from the catalog.
end note

note bottom of TrailList
  Original sketch used TrailList as repository.
  Runtime persistence is **Database** (JSON:
  trails.json + wildlife.json).
end note

@enduml

PlantUML version 1.2020.02(Sun Mar 01 05:22:07 EST 2020)
(GPL source distribution)
Java Runtime: OpenJDK Runtime Environment
JVM: OpenJDK 64-Bit Server VM
Java Version: 21.0.10+7-Ubuntu-124.04
Operating System: Linux
Default Encoding: UTF-8
Language: en
Country: null
--></g></svg>