<?xml version="1.0" encoding="UTF-8" standalone="no"?><svg xmlns="http://www.w3.org/2000/svg" xmlns:xlink="http://www.w3.org/1999/xlink" contentScriptType="application/ecmascript" contentStyleType="text/css" height="1499px" preserveAspectRatio="none" style="width:1270px;height:1499px;" version="1.1" viewBox="0 0 1270 1499" width="1270px" zoomAndPan="magnify"><defs/><g><text fill="#000000" font-family="sans-serif" font-size="18" lengthAdjust="spacingAndGlyphs" textLength="521" x="377.5" y="16.708">Wildlife Explorer — domain and persistence (current code)</text><!--MD5=[4d209290e9e2642d082bc02c8e3fb747]
cluster wildlifeexplorer.model--><rect fill="#FFFFFF" height="764" style="stroke: #000000; stroke-width: 1.5;" width="481" x="295.5" y="724.9531"/><path d="M481.5,725.9531 L481.5,734.25 L471.5,744.25 L295.5,744.25 " fill="none" style="stroke: #000000; stroke-width: 1.5;"/><text fill="#000000" font-family="sans-serif" font-size="14" font-weight="bold" lengthAdjust="spacingAndGlyphs" textLength="176" x="298.5" y="738.9482">wildlifeexplorer.model</text><!--MD5=[18805dcc300dfaccb4b26366890bec6c]
cluster wildlifeexplorer.data--><rect fill="#FFFFFF" height="304" style="stroke: #000000; stroke-width: 1.5;" width="598" x="639.5" y="371.9531"/><path d="M811.5,372.9531 L811.5,381.25 L801.5,391.25 L639.5,391.25 " fill="none" style="stroke: #000000; stroke-width: 1.5;"/><text fill="#000000" font-family="sans-serif" font-size="14" font-weight="bold" lengthAdjust="spacingAndGlyphs" textLength="162" x="642.5" y="385.9482">wildlifeexplorer.data</text><!--MD5=[d2845f2a0b2a1ee045f202f31ba638b5]
cluster wildlifeexplorer.service--><rect fill="#FFFFFF" height="278" style="stroke: #000000; stroke-width: 1.5;" width="308" x="657.5" y="44.9531"/><path d="M853.5,45.9531 L853.5,54.25 L843.5,64.25 L657.5,64.25 " fill="none" style="stroke: #000000; stroke-width: 1.5;"/><text fill="#000000" font-family="sans-serif" font-size="14" font-weight="bold" lengthAdjust="spacingAndGlyphs" textLength="186" x="660.5" y="58.9482">wildlifeexplorer.service</text><!--MD5=[2e99d4ad766574dda0fbbc1bf22bdb5a]
class Wildlife--><rect fill="#FFFFFF" height="240.0703" id="Wildlife" style="stroke: #000000; stroke-width: 1.5;" width="229" x="524" y="1232.9531"/><ellipse cx="612.75" cy="1248.9531" fill="#ADD1B2" rx="11" ry="11" style="stroke: #000000; stroke-width: 1.0;"/><path d="M615.7188,1254.5938 Q615.1406,1254.8906 614.5,1255.0313 Q613.8594,1255.1875 613.1563,1255.1875 Q610.6563,1255.1875 609.3281,1253.5469 Q608.0156,1251.8906 608.0156,1248.7656 Q608.0156,1245.6406 609.3281,1243.9844 Q610.6563,1242.3281 613.1563,1242.3281 Q613.8594,1242.3281 614.5,1242.4844 Q615.1563,1242.6406 615.7188,1242.9375 L615.7188,1245.6563 Q615.0938,1245.0781 614.5,1244.8125 Q613.9063,1244.5313 613.2813,1244.5313 Q611.9375,1244.5313 611.25,1245.6094 Q610.5625,1246.6719 610.5625,1248.7656 Q610.5625,1250.8594 611.25,1251.9375 Q611.9375,1253 613.2813,1253 Q613.9063,1253 614.5,1252.7344 Q615.0938,1252.4531 615.7188,1251.875 L615.7188,1254.5938 Z "/><text fill="#000000" font-family="sans-serif" font-size="12" lengthAdjust="spacingAndGlyphs" textLength="43" x="633.25" y="1253.1074">Wildlife</text><line style="stroke: #000000; stroke-width: 1.5;" x1="525" x2="752" y1="1264.9531" y2="1264.9531"/><text fill="#000000" font-family="sans-serif" font-size="11" lengthAdjust="spacingAndGlyphs" textLength="82" x="530" y="1279.1636">-name : String</text><text fill="#000000" font-family="sans-serif" font-size="11" lengthAdjust="spacingAndGlyphs" textLength="40" x="530" y="1291.9683">-id : int</text><text fill="#000000" font-family="sans-serif" font-size="11" lengthAdjust="spacingAndGlyphs" textLength="113" x="530" y="1304.7729">-description : String</text><text fill="#000000" font-family="sans-serif" font-size="11" lengthAdjust="spacingAndGlyphs" textLength="82" x="530" y="1317.5776">-notes : String</text><text fill="#000000" font-family="sans-serif" font-size="11" lengthAdjust="spacingAndGlyphs" textLength="134" x="530" y="1330.3823">-pictures : List&lt;String&gt;</text><line style="stroke: #000000; stroke-width: 1.0;" x1="525" x2="752" y1="1336.9766" y2="1336.9766"/><text fill="#000000" font-family="sans-serif" font-size="11" lengthAdjust="spacingAndGlyphs" textLength="217" x="530" y="1351.187">+Wildlife(name, id, description, notes)</text><text fill="#000000" font-family="sans-serif" font-size="11" lengthAdjust="spacingAndGlyphs" textLength="114" x="530" y="1363.9917">+getName() : String</text><text fill="#000000" font-family="sans-serif" font-size="11" lengthAdjust="spacingAndGlyphs" textLength="71" x="530" y="1376.7964">+getId() : int</text><text fill="#000000" font-family="sans-serif" font-size="11" lengthAdjust="spacingAndGlyphs" textLength="145" x="530" y="1389.6011">+getDescription() : String</text><text fill="#000000" font-family="sans-serif" font-size="11" lengthAdjust="spacingAndGlyphs" textLength="114" x="530" y="1402.4058">+getNotes() : String</text><text fill="#000000" font-family="sans-serif" font-size="11" lengthAdjust="spacingAndGlyphs" textLength="165" x="530" y="1415.2104">+getPictures() : List&lt;String&gt;</text><text fill="#000000" font-family="sans-serif" font-size="11" lengthAdjust="spacingAndGlyphs" textLength="102" x="530" y="1428.0151">+setName(String)</text><text fill="#000000" font-family="sans-serif" font-size="11" lengthAdjust="spacingAndGlyphs" textLength="133" x="530" y="1440.8198">+setDescription(String)</text><text fill="#000000" font-family="sans-serif" font-size="11" lengthAdjust="spacingAndGlyphs" textLength="102" x="530" y="1453.6245">+setNotes(String)</text><text fill="#000000" font-family="sans-serif" font-size="11" lengthAdjust="spacingAndGlyphs" textLength="118" x="530" y="1466.4292">+addPictures(String)</text><!--MD5=[7ca803bc4fdfed48b4fe860ad95890cb]
class Trail--><rect fill="#FFFFFF" height="380.9219" id="Trail" style="stroke: #000000; stroke-width: 1.5;" width="206" x="554.5" y="759.9531"/><ellipse cx="640.25" cy="775.9531" fill="#ADD1B2" rx="11" ry="11" style="stroke: #000000; stroke-width: 1.0;"/><path d="M643.2188,781.5938 Q642.6406,781.8906 642,782.0313 Q641.3594,782.1875 640.6563,782.1875 Q638.1563,782.1875 636.8281,780.5469 Q635.5156,778.8906 635.5156,775.7656 Q635.5156,772.6406 636.8281,770.9844 Q638.1563,769.3281 640.6563,769.3281 Q641.3594,769.3281 642,769.4844 Q642.6563,769.6406 643.2188,769.9375 L643.2188,772.6563 Q642.5938,772.0781 642,771.8125 Q641.4063,771.5313 640.7813,771.5313 Q639.4375,771.5313 638.75,772.6094 Q638.0625,773.6719 638.0625,775.7656 Q638.0625,777.8594 638.75,778.9375 Q639.4375,780 640.7813,780 Q641.4063,780 642,779.7344 Q642.5938,779.4531 643.2188,778.875 L643.2188,781.5938 Z "/><text fill="#000000" font-family="sans-serif" font-size="12" lengthAdjust="spacingAndGlyphs" textLength="26" x="660.75" y="780.1074">Trail</text><line style="stroke: #000000; stroke-width: 1.5;" x1="555.5" x2="759.5" y1="791.9531" y2="791.9531"/><text fill="#000000" font-family="sans-serif" font-size="11" lengthAdjust="spacingAndGlyphs" textLength="82" x="560.5" y="806.1636">-name : String</text><text fill="#000000" font-family="sans-serif" font-size="11" lengthAdjust="spacingAndGlyphs" textLength="40" x="560.5" y="818.9683">-id : int</text><text fill="#000000" font-family="sans-serif" font-size="11" lengthAdjust="spacingAndGlyphs" textLength="89" x="560.5" y="831.7729">-length : double</text><text fill="#000000" font-family="sans-serif" font-size="11" lengthAdjust="spacingAndGlyphs" textLength="105" x="560.5" y="844.5776">-elevation : double</text><text fill="#000000" font-family="sans-serif" font-size="11" lengthAdjust="spacingAndGlyphs" textLength="87" x="560.5" y="857.3823">-rating : double</text><text fill="#000000" font-family="sans-serif" font-size="11" lengthAdjust="spacingAndGlyphs" textLength="134" x="560.5" y="870.187">-pictures : List&lt;String&gt;</text><text fill="#000000" font-family="sans-serif" font-size="11" lengthAdjust="spacingAndGlyphs" textLength="152" x="560.5" y="882.9917">-wildlifeList : List&lt;Wildlife&gt;</text><text fill="#000000" font-family="sans-serif" font-size="11" lengthAdjust="spacingAndGlyphs" textLength="114" x="560.5" y="895.7964">-totalRating : double</text><text fill="#000000" font-family="sans-serif" font-size="11" lengthAdjust="spacingAndGlyphs" textLength="90" x="560.5" y="908.6011">-numRating : int</text><line style="stroke: #000000; stroke-width: 1.0;" x1="555.5" x2="759.5" y1="915.1953" y2="915.1953"/><text fill="#000000" font-family="sans-serif" font-size="11" lengthAdjust="spacingAndGlyphs" textLength="194" x="560.5" y="929.4058">+Trail(name, id, length, elevation)</text><text fill="#000000" font-family="sans-serif" font-size="11" lengthAdjust="spacingAndGlyphs" textLength="114" x="560.5" y="942.2104">+getName() : String</text><text fill="#000000" font-family="sans-serif" font-size="11" lengthAdjust="spacingAndGlyphs" textLength="71" x="560.5" y="955.0151">+getId() : int</text><text fill="#000000" font-family="sans-serif" font-size="11" lengthAdjust="spacingAndGlyphs" textLength="123" x="560.5" y="967.8198">+getLength() : double</text><text fill="#000000" font-family="sans-serif" font-size="11" lengthAdjust="spacingAndGlyphs" textLength="136" x="560.5" y="980.6245">+getElevation() : double</text><text fill="#000000" font-family="sans-serif" font-size="11" lengthAdjust="spacingAndGlyphs" textLength="120" x="560.5" y="993.4292">+getRating() : double</text><text fill="#000000" font-family="sans-serif" font-size="11" lengthAdjust="spacingAndGlyphs" textLength="165" x="560.5" y="1006.2339">+getPictures() : List&lt;String&gt;</text><text fill="#000000" font-family="sans-serif" font-size="11" lengthAdjust="spacingAndGlyphs" textLength="183" x="560.5" y="1019.0386">+getWildlifeList() : List&lt;Wildlife&gt;</text><text fill="#000000" font-family="sans-serif" font-size="11" lengthAdjust="spacingAndGlyphs" textLength="148" x="560.5" y="1031.8433">+getTotalRating() : double</text><text fill="#000000" font-family="sans-serif" font-size="11" lengthAdjust="spacingAndGlyphs" textLength="122" x="560.5" y="1044.6479">+getNumRating() : int</text><text fill="#000000" font-family="sans-serif" font-size="11" lengthAdjust="spacingAndGlyphs" textLength="102" x="560.5" y="1057.4526">+setName(String)</text><text fill="#000000" font-family="sans-serif" font-size="11" lengthAdjust="spacingAndGlyphs" textLength="111" x="560.5" y="1070.2573">+setLength(double)</text><text fill="#000000" font-family="sans-serif" font-size="11" lengthAdjust="spacingAndGlyphs" textLength="124" x="560.5" y="1083.062">+setElevation(double)</text><text fill="#000000" font-family="sans-serif" font-size="11" lengthAdjust="spacingAndGlyphs" textLength="111" x="560.5" y="1095.8667">+addPicture(String)</text><text fill="#000000" font-family="sans-serif" font-size="11" lengthAdjust="spacingAndGlyphs" textLength="116" x="560.5" y="1108.6714">+addWildlife(Wildlife)</text><text fill="#000000" font-family="sans-serif" font-size="11" lengthAdjust="spacingAndGlyphs" textLength="129" x="560.5" y="1121.4761">+updateRating(double)</text><text fill="#000000" font-family="sans-serif" font-size="11" lengthAdjust="spacingAndGlyphs" textLength="160" x="560.5" y="1134.2808">+setRatingState(double, int)</text><!--MD5=[3fd616f346a44cd59a91eb10b19e157c]
class User--><rect fill="#FFFFFF" height="124.8281" id="User" style="stroke: #000000; stroke-width: 1.5;" width="207" x="312" y="887.9531"/><ellipse cx="396.75" cy="903.9531" fill="#ADD1B2" rx="11" ry="11" style="stroke: #000000; stroke-width: 1.0;"/><path d="M399.7188,909.5938 Q399.1406,909.8906 398.5,910.0313 Q397.8594,910.1875 397.1563,910.1875 Q394.6563,910.1875 393.3281,908.5469 Q392.0156,906.8906 392.0156,903.7656 Q392.0156,900.6406 393.3281,898.9844 Q394.6563,897.3281 397.1563,897.3281 Q397.8594,897.3281 398.5,897.4844 Q399.1563,897.6406 399.7188,897.9375 L399.7188,900.6563 Q399.0938,900.0781 398.5,899.8125 Q397.9063,899.5313 397.2813,899.5313 Q395.9375,899.5313 395.25,900.6094 Q394.5625,901.6719 394.5625,903.7656 Q394.5625,905.8594 395.25,906.9375 Q395.9375,908 397.2813,908 Q397.9063,908 398.5,907.7344 Q399.0938,907.4531 399.7188,906.875 L399.7188,909.5938 Z "/><text fill="#000000" font-family="sans-serif" font-size="12" lengthAdjust="spacingAndGlyphs" textLength="29" x="417.25" y="908.1074">User</text><line style="stroke: #000000; stroke-width: 1.5;" x1="313" x2="518" y1="919.9531" y2="919.9531"/><text fill="#000000" font-family="sans-serif" font-size="11" lengthAdjust="spacingAndGlyphs" textLength="82" x="318" y="934.1636">-name : String</text><text fill="#000000" font-family="sans-serif" font-size="11" lengthAdjust="spacingAndGlyphs" textLength="40" x="318" y="946.9683">-id : int</text><line style="stroke: #000000; stroke-width: 1.0;" x1="313" x2="518" y1="953.5625" y2="953.5625"/><text fill="#000000" font-family="sans-serif" font-size="11" lengthAdjust="spacingAndGlyphs" textLength="94" x="318" y="967.7729">+User(name, id)</text><text fill="#000000" font-family="sans-serif" font-size="11" lengthAdjust="spacingAndGlyphs" textLength="114" x="318" y="980.5776">+getName() : String</text><text fill="#000000" font-family="sans-serif" font-size="11" lengthAdjust="spacingAndGlyphs" textLength="71" x="318" y="993.3823">+getId() : int</text><text fill="#000000" font-family="sans-serif" font-size="11" lengthAdjust="spacingAndGlyphs" textLength="195" x="318" y="1006.187">+validateUser(name, id) : boolean</text><!--MD5=[ed3afe56f065d25b4329669e73deaf58]
class Database--><rect fill="#FFFFFF" height="252.875" id="Database" style="stroke: #000000; stroke-width: 1.5;" width="311" x="656" y="406.9531"/><ellipse cx="776.75" cy="422.9531" fill="#ADD1B2" rx="11" ry="11" style="stroke: #000000; stroke-width: 1.0;"/><path d="M779.7188,428.5938 Q779.1406,428.8906 778.5,429.0313 Q777.8594,429.1875 777.1563,429.1875 Q774.6563,429.1875 773.3281,427.5469 Q772.0156,425.8906 772.0156,422.7656 Q772.0156,419.6406 773.3281,417.9844 Q774.6563,416.3281 777.1563,416.3281 Q777.8594,416.3281 778.5,416.4844 Q779.1563,416.6406 779.7188,416.9375 L779.7188,419.6563 Q779.0938,419.0781 778.5,418.8125 Q777.9063,418.5313 777.2813,418.5313 Q775.9375,418.5313 775.25,419.6094 Q774.5625,420.6719 774.5625,422.7656 Q774.5625,424.8594 775.25,425.9375 Q775.9375,427 777.2813,427 Q777.9063,427 778.5,426.7344 Q779.0938,426.4531 779.7188,425.875 L779.7188,428.5938 Z "/><text fill="#000000" font-family="sans-serif" font-size="12" lengthAdjust="spacingAndGlyphs" textLength="61" x="797.25" y="427.1074">Database</text><line style="stroke: #000000; stroke-width: 1.5;" x1="657" x2="966" y1="438.9531" y2="438.9531"/><text fill="#000000" font-family="sans-serif" font-size="11" lengthAdjust="spacingAndGlyphs" textLength="108" x="662" y="453.1636">-trails : List&lt;Trail&gt;</text><text fill="#000000" font-family="sans-serif" font-size="11" lengthAdjust="spacingAndGlyphs" textLength="207" x="662" y="465.9683">-wildlifeById : Map&lt;Integer, Wildlife&gt;</text><text fill="#000000" font-family="sans-serif" font-size="11" lengthAdjust="spacingAndGlyphs" textLength="95" x="662" y="478.7729">-trailsPath : Path</text><text fill="#000000" font-family="sans-serif" font-size="11" lengthAdjust="spacingAndGlyphs" textLength="105" x="662" y="491.5776">-wildlifePath : Path</text><line style="stroke: #000000; stroke-width: 1.0;" x1="657" x2="966" y1="498.1719" y2="498.1719"/><text fill="#000000" font-family="sans-serif" font-size="11" lengthAdjust="spacingAndGlyphs" textLength="100" x="662" y="512.3823">+insertTrail(Trail)</text><text fill="#000000" font-family="sans-serif" font-size="11" lengthAdjust="spacingAndGlyphs" textLength="145" x="662" y="525.187">+fetchTrailById(int) : Trail</text><text fill="#000000" font-family="sans-serif" font-size="11" lengthAdjust="spacingAndGlyphs" textLength="179" x="662" y="537.9917">+findTrails(String) : List&lt;Trail&gt;</text><text fill="#000000" font-family="sans-serif" font-size="11" lengthAdjust="spacingAndGlyphs" textLength="155" x="662" y="550.7964">+getAllTrails() : List&lt;Trail&gt;</text><text fill="#000000" font-family="sans-serif" font-size="11" lengthAdjust="spacingAndGlyphs" textLength="176" x="662" y="563.6011">+getAllWildlife() : List&lt;Wildlife&gt;</text><text fill="#000000" font-family="sans-serif" font-size="11" lengthAdjust="spacingAndGlyphs" textLength="217" x="662" y="576.4058">+insertRating(int trailId, double score)</text><text fill="#000000" font-family="sans-serif" font-size="11" lengthAdjust="spacingAndGlyphs" textLength="186" x="662" y="589.2104">+insertWildlife(int trailId, Wildlife)</text><text fill="#000000" font-family="sans-serif" font-size="11" lengthAdjust="spacingAndGlyphs" textLength="299" x="662" y="602.0151">+attachExistingWildlifeToTrail(int trailId, int wildlifeId)</text><text fill="#000000" font-family="sans-serif" font-size="11" lengthAdjust="spacingAndGlyphs" textLength="278" x="662" y="614.8198">+removeWildlifeFromTrail(int trailId, int wildlifeId)</text><text fill="#000000" font-family="sans-serif" font-size="11" lengthAdjust="spacingAndGlyphs" textLength="44" x="662" y="627.6245">+save()</text><text fill="#000000" font-family="sans-serif" font-size="11" lengthAdjust="spacingAndGlyphs" textLength="41" x="662" y="640.4292">+load()</text><text fill="#000000" font-family="sans-serif" font-size="11" lengthAdjust="spacingAndGlyphs" textLength="111" x="662" y="653.2339">+clearAllUserData()</text><!--MD5=[0ab02dc7671c68cbc68d923be3671058]
class TrailList--><rect fill="#FFFFFF" height="173.1797" id="TrailList" style="stroke: #000000; stroke-width: 1.5;" width="219" x="1002" y="446.9531"/><ellipse cx="1081.75" cy="465.9219" fill="#ADD1B2" rx="11" ry="11" style="stroke: #000000; stroke-width: 1.0;"/><path d="M1084.7188,471.5625 Q1084.1406,471.8594 1083.5,472 Q1082.8594,472.1563 1082.1563,472.1563 Q1079.6563,472.1563 1078.3281,470.5156 Q1077.0156,468.8594 1077.0156,465.7344 Q1077.0156,462.6094 1078.3281,460.9531 Q1079.6563,459.2969 1082.1563,459.2969 Q1082.8594,459.2969 1083.5,459.4531 Q1084.1563,459.6094 1084.7188,459.9063 L1084.7188,462.625 Q1084.0938,462.0469 1083.5,461.7813 Q1082.9063,461.5 1082.2813,461.5 Q1080.9375,461.5 1080.25,462.5781 Q1079.5625,463.6406 1079.5625,465.7344 Q1079.5625,467.8281 1080.25,468.9063 Q1080.9375,469.9688 1082.2813,469.9688 Q1082.9063,469.9688 1083.5,469.7031 Q1084.0938,469.4219 1084.7188,468.8438 L1084.7188,471.5625 Z "/><text fill="#000000" font-family="sans-serif" font-size="12" font-style="italic" lengthAdjust="spacingAndGlyphs" textLength="55" x="1100.25" y="463.0918">«legacy»</text><text fill="#000000" font-family="sans-serif" font-size="12" lengthAdjust="spacingAndGlyphs" textLength="47" x="1104.25" y="477.0605">TrailList</text><line style="stroke: #000000; stroke-width: 1.5;" x1="1003" x2="1220" y1="484.8906" y2="484.8906"/><text fill="#000000" font-family="sans-serif" font-size="11" lengthAdjust="spacingAndGlyphs" textLength="108" x="1008" y="515.9058">-trails : List&lt;Trail&gt;</text><text fill="#000000" font-family="sans-serif" font-size="11" lengthAdjust="spacingAndGlyphs" textLength="100" x="1008" y="528.7104">-fileName : String</text><line style="stroke: #000000; stroke-width: 1.0; stroke-dasharray: 1.0,2.0;" x1="1003" x2="1006" y1="499.293" y2="499.293"/><text fill="#000000" font-family="sans-serif" font-size="11" lengthAdjust="spacingAndGlyphs" textLength="211" x="1006" y="502.6011">Not referenced by Main / TrailService</text><line style="stroke: #000000; stroke-width: 1.0; stroke-dasharray: 1.0,2.0;" x1="1217" x2="1220" y1="499.293" y2="499.293"/><line style="stroke: #000000; stroke-width: 1.0;" x1="1003" x2="1220" y1="535.3047" y2="535.3047"/><text fill="#000000" font-family="sans-serif" font-size="11" lengthAdjust="spacingAndGlyphs" textLength="88" x="1008" y="549.5151">+addTrail(Trail)</text><text fill="#000000" font-family="sans-serif" font-size="11" lengthAdjust="spacingAndGlyphs" textLength="135" x="1008" y="562.3198">+getTrailById(int) : Trail</text><text fill="#000000" font-family="sans-serif" font-size="11" lengthAdjust="spacingAndGlyphs" textLength="190" x="1008" y="575.1245">+searchTrail(String) : List&lt;Trail&gt;</text><text fill="#000000" font-family="sans-serif" font-size="11" lengthAdjust="spacingAndGlyphs" textLength="142" x="1008" y="587.9292">+viewTrail() : List&lt;Trail&gt;</text><text fill="#000000" font-family="sans-serif" font-size="11" lengthAdjust="spacingAndGlyphs" textLength="60" x="1008" y="600.7339">+loadFile()</text><text fill="#000000" font-family="sans-serif" font-size="11" lengthAdjust="spacingAndGlyphs" textLength="63" x="1008" y="613.5386">+saveFile()</text><!--MD5=[e5f606911163686f9ad68bbb719d2c3d]
class TrailService--><rect fill="#FFFFFF" height="227.2656" id="TrailService" style="stroke: #000000; stroke-width: 1.5;" width="275" x="674" y="79.9531"/><ellipse cx="771.75" cy="95.9531" fill="#ADD1B2" rx="11" ry="11" style="stroke: #000000; stroke-width: 1.0;"/><path d="M774.7188,101.5938 Q774.1406,101.8906 773.5,102.0313 Q772.8594,102.1875 772.1563,102.1875 Q769.6563,102.1875 768.3281,100.5469 Q767.0156,98.8906 767.0156,95.7656 Q767.0156,92.6406 768.3281,90.9844 Q769.6563,89.3281 772.1563,89.3281 Q772.8594,89.3281 773.5,89.4844 Q774.1563,89.6406 774.7188,89.9375 L774.7188,92.6563 Q774.0938,92.0781 773.5,91.8125 Q772.9063,91.5313 772.2813,91.5313 Q770.9375,91.5313 770.25,92.6094 Q769.5625,93.6719 769.5625,95.7656 Q769.5625,97.8594 770.25,98.9375 Q770.9375,100 772.2813,100 Q772.9063,100 773.5,99.7344 Q774.0938,99.4531 774.7188,98.875 L774.7188,101.5938 Z "/><text fill="#000000" font-family="sans-serif" font-size="12" lengthAdjust="spacingAndGlyphs" textLength="71" x="792.25" y="100.1074">TrailService</text><line style="stroke: #000000; stroke-width: 1.5;" x1="675" x2="948" y1="111.9531" y2="111.9531"/><text fill="#000000" font-family="sans-serif" font-size="11" lengthAdjust="spacingAndGlyphs" textLength="123" x="680" y="126.1636">-database : Database</text><line style="stroke: #000000; stroke-width: 1.0;" x1="675" x2="948" y1="132.7578" y2="132.7578"/><text fill="#000000" font-family="sans-serif" font-size="11" lengthAdjust="spacingAndGlyphs" textLength="138" x="680" y="146.9683">+TrailService(Database)</text><text fill="#000000" font-family="sans-serif" font-size="11" lengthAdjust="spacingAndGlyphs" textLength="230" x="680" y="159.7729">+createTrail(name, id, length, elevation)</text><text fill="#000000" font-family="sans-serif" font-size="11" lengthAdjust="spacingAndGlyphs" textLength="215" x="680" y="172.5776">+editTrail(name, id, length, elevation)</text><text fill="#000000" font-family="sans-serif" font-size="11" lengthAdjust="spacingAndGlyphs" textLength="69" x="680" y="185.3823">+saveTrail()</text><text fill="#000000" font-family="sans-serif" font-size="11" lengthAdjust="spacingAndGlyphs" textLength="116" x="680" y="198.187">+rateTrail(id, rating)</text><text fill="#000000" font-family="sans-serif" font-size="11" lengthAdjust="spacingAndGlyphs" textLength="107" x="680" y="210.9917">+getTrail(id) : Trail</text><text fill="#000000" font-family="sans-serif" font-size="11" lengthAdjust="spacingAndGlyphs" textLength="156" x="680" y="223.7964">+addWildlife(trailId, Wildlife)</text><text fill="#000000" font-family="sans-serif" font-size="11" lengthAdjust="spacingAndGlyphs" textLength="175" x="680" y="236.6011">+listAllWildlife() : List&lt;Wildlife&gt;</text><text fill="#000000" font-family="sans-serif" font-size="11" lengthAdjust="spacingAndGlyphs" textLength="263" x="680" y="249.4058">+attachExistingWildlifeToTrail(trailId, wildlifeId)</text><text fill="#000000" font-family="sans-serif" font-size="11" lengthAdjust="spacingAndGlyphs" textLength="242" x="680" y="262.2104">+removeWildlifeFromTrail(trailId, wildlifeId)</text><text fill="#000000" font-family="sans-serif" font-size="11" lengthAdjust="spacingAndGlyphs" textLength="188" x="680" y="275.0151">+searchTrail(name) : List&lt;Trail&gt;</text><text fill="#000000" font-family="sans-serif" font-size="11" lengthAdjust="spacingAndGlyphs" textLength="149" x="680" y="287.8198">+viewTrails() : List&lt;Trail&gt;</text><text fill="#000000" font-family="sans-serif" font-size="11" lengthAdjust="spacingAndGlyphs" textLength="111" x="680" y="300.6245">+clearAllUserData()</text><path d="M6,1325.4531 L6,1380.8516 L279,1380.8516 L279,1335.4531 L269,1325.4531 L6,1325.4531 " fill="#FFFFFF" style="stroke: #000000; stroke-width: 1.0;"/><path d="M269,1325.4531 L269,1335.4531 L279,1335.4531 L269,1325.4531 " fill="#FFFFFF" style="stroke: #000000; stroke-width: 1.0;"/><text fill="#000000" font-family="sans-serif" font-size="13" lengthAdjust="spacingAndGlyphs" textLength="252" x="12" y="1342.52">Persisted trails reference wildlife via ids;</text><text fill="#000000" font-family="sans-serif" font-size="13" lengthAdjust="spacingAndGlyphs" textLength="242" x="12" y="1357.6528">loaded trails hold List&lt;Wildlife&gt; joined</text><text fill="#000000" font-family="sans-serif" font-size="13" lengthAdjust="spacingAndGlyphs" textLength="110" x="12" y="1372.7856">from the catalog.</text><path d="M965,922.9531 L965,978.3516 A0,0 0 0 0 965,978.3516 L1258,978.3516 A0,0 0 0 0 1258,978.3516 L1258,932.9531 L1248,922.9531 L1115.5,922.9531 L1111.5,620.1931 L1107.5,922.9531 L965,922.9531 A0,0 0 0 0 965,922.9531 " fill="#FFFFFF" style="stroke: #000000; stroke-width: 1.0;"/><path d="M1248,922.9531 L1248,932.9531 L1258,932.9531 L1248,922.9531 " fill="#FFFFFF" style="stroke: #000000; stroke-width: 1.0;"/><text fill="#000000" font-family="sans-serif" font-size="13" lengthAdjust="spacingAndGlyphs" textLength="272" x="971" y="940.02">Original sketch used TrailList as repository.</text><text fill="#000000" font-family="sans-serif" font-size="13" lengthAdjust="spacingAndGlyphs" textLength="145" x="971" y="955.1528">Runtime persistence is</text><text fill="#000000" font-family="sans-serif" font-size="13" font-weight="bold" lengthAdjust="spacingAndGlyphs" textLength="71" x="1120" y="955.1528">Database</text><text fill="#000000" font-family="sans-serif" font-size="13" lengthAdjust="spacingAndGlyphs" textLength="41" x="1195" y="955.1528">(JSON:</text><text fill="#000000" font-family="sans-serif" font-size="13" lengthAdjust="spacingAndGlyphs" textLength="160" x="971" y="970.2856">trails.json + wildlife.json).</text><!--MD5=[bbd8d955259882bfe4c76da650178db4]
reverse link Trail to Wildlife--><path d="M647.88,1154.3331 C646.6,1181.2131 645.33,1208.0231 644.15,1232.8331 " fill="none" id="Trail&lt;-Wildlife" style="stroke: #000000; stroke-width: 1.0;"/><polygon fill="#FFFFFF" points="648.5,1141.1431,644.2146,1146.9427,647.9198,1153.1291,652.2052,1147.3295,648.5,1141.1431" style="stroke: #000000; stroke-width: 1.0;"/><text fill="#000000" font-family="sans-serif" font-size="13" lengthAdjust="spacingAndGlyphs" textLength="63" x="679.5" y="1184.02">wildlifeList</text><text fill="#000000" font-family="sans-serif" font-size="13" lengthAdjust="spacingAndGlyphs" textLength="127" x="647.5" y="1199.1528">(on-trail references)</text><text fill="#000000" font-family="sans-serif" font-size="13" lengthAdjust="spacingAndGlyphs" textLength="8" x="639.9922" y="1160.9559">1</text><text fill="#000000" font-family="sans-serif" font-size="13" lengthAdjust="spacingAndGlyphs" textLength="36" x="607.3588" y="1221.7264">many</text><!--MD5=[6c1f77cc5834bcd2e84f0aa21da42b42]
link TrailService to Database--><path d="M811.5,307.0031 C811.5,337.2331 811.5,370.1731 811.5,401.3131 " fill="none" id="TrailService-&gt;Database" style="stroke: #000000; stroke-width: 1.0;"/><polygon fill="#000000" points="811.5,406.7031,815.5,397.7031,811.5,401.7031,807.5,397.7031,811.5,406.7031" style="stroke: #000000; stroke-width: 1.0;"/><text fill="#000000" font-family="sans-serif" font-size="13" lengthAdjust="spacingAndGlyphs" textLength="30" x="812.5" y="352.02">uses</text><!--MD5=[a0d9f968ca53b346b5b3954173b132ba]
reverse link Database to Trail--><path d="M760.31,672.4131 C749.9,700.4631 738.78,730.4331 727.84,759.9131 " fill="none" id="Database&lt;-Trail" style="stroke: #000000; stroke-width: 1.0;"/><polygon fill="#000000" points="764.88,660.0931,759.0404,664.3239,760.6998,671.3415,766.5393,667.1107,764.88,660.0931" style="stroke: #000000; stroke-width: 1.0;"/><text fill="#000000" font-family="sans-serif" font-size="13" lengthAdjust="spacingAndGlyphs" textLength="31" x="753.5" y="705.02">trails</text><text fill="#000000" font-family="sans-serif" font-size="13" lengthAdjust="spacingAndGlyphs" textLength="8" x="753.9535" y="679.9224">1</text><text fill="#000000" font-family="sans-serif" font-size="13" lengthAdjust="spacingAndGlyphs" textLength="36" x="694.0481" y="748.6297">many</text><!--MD5=[67ce7397d2cec19eeaae4c796c29b781]
reverse link Database to Wildlife--><path d="M833.6,673.4231 C849.58,813.2431 857.14,1032.0431 783.5,1202.9531 C775.93,1220.5231 765.28,1237.2031 753.15,1252.6131 " fill="none" id="Database&lt;-Wildlife" style="stroke: #000000; stroke-width: 1.0;"/><polygon fill="#000000" points="832.04,660.1431,828.773,666.5717,833.4505,672.0599,836.7175,665.6314,832.04,660.1431" style="stroke: #000000; stroke-width: 1.0;"/><text fill="#000000" font-family="sans-serif" font-size="13" lengthAdjust="spacingAndGlyphs" textLength="47" x="860" y="947.52">catalog</text><text fill="#000000" font-family="sans-serif" font-size="13" lengthAdjust="spacingAndGlyphs" textLength="78" x="844.5" y="962.6528">(wildlifeById)</text><text fill="#000000" font-family="sans-serif" font-size="13" lengthAdjust="spacingAndGlyphs" textLength="8" x="824.9962" y="679.9753">1</text><text fill="#000000" font-family="sans-serif" font-size="13" lengthAdjust="spacingAndGlyphs" textLength="36" x="760.8188" y="1243.4473">many</text><!--MD5=[5987e14c05186ff7a95e120c2292ae06]
link Trail to GMN15--><path d="M554.45,1124.6731 C548.69,1130.4431 542.7,1135.9031 536.5,1140.9531 C447.61,1213.3631 395.4,1176.6931 295.5,1232.9531 C248.59,1259.3731 200.55,1299.2531 171.12,1325.4431 " fill="none" id="Trail-GMN15" style="stroke: #000000; stroke-width: 1.0; stroke-dasharray: 7.0,7.0;"/><!--MD5=[7fe8d3ba0835bc3593f9ca19d985d9d0]
@startuml

skinparam BackgroundColor white
skinparam shadowing false
skinparam defaultFontName SansSerif
skinparam ArrowColor black
skinparam ArrowThickness 1

skinparam classAttributeIconSize 0
skinparam class {
  BackgroundColor white
  BorderColor black
  FontColor black
}
skinparam package {
  BackgroundColor white
  BorderColor black
  FontColor black
}
skinparam stereotype {
  BackgroundColor white
  FontColor black
}

skinparam sequenceMessageAlign center
skinparam LifeLineBorderColor black
skinparam LifeLineBackgroundColor white
skinparam sequence {
  ArrowColor black
  LifeLineBorderColor black
}
skinparam participant {
  BackgroundColor white
  BorderColor black
  FontColor black
}
skinparam actor {
  BackgroundColor white
  BorderColor black
  FontColor black
}
skinparam boundary {
  BackgroundColor white
  BorderColor black
  FontColor black
}
skinparam control {
  BackgroundColor white
  BorderColor black
  FontColor black
}
skinparam database {
  BackgroundColor white
  BorderColor black
  FontColor black
}
skinparam entity {
  BackgroundColor white
  BorderColor black
  FontColor black
}
skinparam collections {
  BackgroundColor white
  BorderColor black
  FontColor black
}
skinparam note {
  BackgroundColor white
  BorderColor black
  FontColor black
}

title Wildlife Explorer — domain and persistence (current code)

package "wildlifeexplorer.model" <<Frame>> {
  class Wildlife {
    - name : String
    - id : int
    - description : String
    - notes : String
    - pictures : List<String>
    - -
    + Wildlife(name, id, description, notes)
    + getName() : String
    + getId() : int
    + getDescription() : String
    + getNotes() : String
    + getPictures() : List<String>
    + setName(String)
    + setDescription(String)
    + setNotes(String)
    + addPictures(String)
  }

  class Trail {
    - name : String
    - id : int
    - length : double
    - elevation : double
    - rating : double
    - pictures : List<String>
    - wildlifeList : List<Wildlife>
    - totalRating : double
    - numRating : int
    - -
    + Trail(name, id, length, elevation)
    + getName() : String
    + getId() : int
    + getLength() : double
    + getElevation() : double
    + getRating() : double
    + getPictures() : List<String>
    + getWildlifeList() : List<Wildlife>
    + getTotalRating() : double
    + getNumRating() : int
    + setName(String)
    + setLength(double)
    + setElevation(double)
    + addPicture(String)
    + addWildlife(Wildlife)
    + updateRating(double)
    + setRatingState(double, int)
  }

  class User {
    - name : String
    - id : int
    - -
    + User(name, id)
    + getName() : String
    + getId() : int
    + validateUser(name, id) : boolean
  }
}

package "wildlifeexplorer.data" <<Frame>> {
  class Database {
    - trails : List<Trail>
    - wildlifeById : Map<Integer, Wildlife>
    - trailsPath : Path
    - wildlifePath : Path
    - -
    + insertTrail(Trail)
    + fetchTrailById(int) : Trail
    + findTrails(String) : List<Trail>
    + getAllTrails() : List<Trail>
    + getAllWildlife() : List<Wildlife>
    + insertRating(int trailId, double score)
    + insertWildlife(int trailId, Wildlife)
    + attachExistingWildlifeToTrail(int trailId, int wildlifeId)
    + removeWildlifeFromTrail(int trailId, int wildlifeId)
    + save()
    + load()
    + clearAllUserData()
  }

  class TrailList <<legacy>> {
    .. Not referenced by Main / TrailService ..
    - trails : List<Trail>
    - fileName : String
    - -
    + addTrail(Trail)
    + getTrailById(int) : Trail
    + searchTrail(String) : List<Trail>
    + viewTrail() : List<Trail>
    + loadFile()
    + saveFile()
  }
}

package "wildlifeexplorer.service" <<Frame>> {
  class TrailService {
    - database : Database
    - -
    + TrailService(Database)
    + createTrail(name, id, length, elevation)
    + editTrail(name, id, length, elevation)
    + saveTrail()
    + rateTrail(id, rating)
    + getTrail(id) : Trail
    + addWildlife(trailId, Wildlife)
    + listAllWildlife() : List<Wildlife>
    + attachExistingWildlifeToTrail(trailId, wildlifeId)
    + removeWildlifeFromTrail(trailId, wildlifeId)
    + searchTrail(name) : List<Trail>
    + viewTrails() : List<Trail>
    + clearAllUserData()
  }
}

Trail "1" o- - "many" Wildlife : wildlifeList\n(on-trail references)

TrailService - -> Database : uses
Database "1" *- - "many" Trail : trails
Database "1" *- - "many" Wildlife : catalog\n(wildlifeById)

note bottom of Trail
  Persisted trails reference wildlife via ids;
  loaded trails hold List<Wildlife> joined
  from the catalog.
end note

note bottom of TrailList
  Original sketch used TrailList as repository.
  Runtime persistence is **Database** (JSON:
  trails.json + wildlife.json).
end note

@enduml

PlantUML version 1.2020.02(Sun Mar 01 05:22:07 EST 2020)
(GPL source distribution)
Java Runtime: OpenJDK Runtime Environment
JVM: OpenJDK 64-Bit Server VM
Java Version: 21.0.10+7-Ubuntu-124.04
Operating System: Linux
Default Encoding: UTF-8
Language: en
Country: null
--></g></svg>