<?xml version="1.0" encoding="UTF-8" standalone="no"?><svg xmlns="http://www.w3.org/2000/svg" xmlns:xlink="http://www.w3.org/1999/xlink" contentScriptType="application/ecmascript" contentStyleType="text/css" height="468px" preserveAspectRatio="none" style="width:2262px;height:468px;" version="1.1" viewBox="0 0 2262 468" width="2262px" zoomAndPan="magnify"><defs/><g><!--MD5=[1ca641517f5856b3b8b28f1151810449]
cluster Wildlife Explorer--><rect fill="#FFFFFF" height="317.5" style="stroke: #000000; stroke-width: 1.5;" width="2229" x="22" y="139.5"/><text fill="#000000" font-family="sans-serif" font-size="14" font-weight="bold" lengthAdjust="spacingAndGlyphs" textLength="128" x="1072.5" y="154.4951">Wildlife Explorer</text><!--MD5=[83ab74bcd81cd77127c8093a615ae583]
cluster Use--><polygon fill="#FFFFFF" points="46,191.5,82,191.5,89,213.7969,282,213.7969,282,433,46,433,46,191.5" style="stroke: #000000; stroke-width: 1.5;"/><line style="stroke: #000000; stroke-width: 1.5;" x1="46" x2="89" y1="213.7969" y2="213.7969"/><text fill="#000000" font-family="sans-serif" font-size="14" font-weight="bold" lengthAdjust="spacingAndGlyphs" textLength="30" x="50" y="206.4951">Use</text><!--MD5=[a4e6fc278f181bc1693d8f99fc1a0253]
cluster Contribute--><polygon fill="#FFFFFF" points="319,182.5,409,182.5,416,204.7969,1239,204.7969,1239,281.5,319,281.5,319,182.5" style="stroke: #000000; stroke-width: 1.5;"/><line style="stroke: #000000; stroke-width: 1.5;" x1="319" x2="416" y1="204.7969" y2="204.7969"/><text fill="#000000" font-family="sans-serif" font-size="14" font-weight="bold" lengthAdjust="spacingAndGlyphs" textLength="84" x="323" y="197.4951">Contribute</text><!--MD5=[e784f4e31f7e429b1aab1976df50e849]
cluster Required Trail Details--><polygon fill="#FFFFFF" points="311,333.5,485,333.5,492,355.7969,1222,355.7969,1222,430.5,311,430.5,311,333.5" style="stroke: #000000; stroke-width: 1.5;"/><line style="stroke: #000000; stroke-width: 1.5;" x1="311" x2="492" y1="355.7969" y2="355.7969"/><text fill="#000000" font-family="sans-serif" font-size="14" font-weight="bold" lengthAdjust="spacingAndGlyphs" textLength="168" x="315" y="348.4951">Required Trail Details</text><!--MD5=[43a797234bf6ac9e0155c03f3ad98129]
cluster Required Wildlife Details--><polygon fill="#FFFFFF" points="1251,333.5,1448,333.5,1455,355.7969,2227,355.7969,2227,430.5,1251,430.5,1251,333.5" style="stroke: #000000; stroke-width: 1.5;"/><line style="stroke: #000000; stroke-width: 1.5;" x1="1251" x2="1455" y1="355.7969" y2="355.7969"/><text fill="#000000" font-family="sans-serif" font-size="14" font-weight="bold" lengthAdjust="spacingAndGlyphs" textLength="191" x="1255" y="348.4951">Required Wildlife Details</text><ellipse cx="179.966" cy="241.4932" fill="#FFFFFF" rx="62.966" ry="14.9932" style="stroke: #000000; stroke-width: 1.5;"/><text fill="#000000" font-family="sans-serif" font-size="14" lengthAdjust="spacingAndGlyphs" textLength="88" x="135.966" y="246.1416">Search Trails</text><ellipse cx="164.2416" cy="391.4204" fill="#FFFFFF" rx="102.7416" ry="25.4204" style="stroke: #000000; stroke-width: 1.5;"/><text fill="#000000" font-family="sans-serif" font-size="14" lengthAdjust="spacingAndGlyphs" textLength="145" x="91.7416" y="388.8197">View Trail Information</text><text fill="#000000" font-family="sans-serif" font-size="14" lengthAdjust="spacingAndGlyphs" textLength="128" x="100.2416" y="405.1166">(in concise format)</text><ellipse cx="889.8237" cy="241.3647" fill="#FFFFFF" rx="64.8237" ry="15.3647" style="stroke: #000000; stroke-width: 1.5;"/><text fill="#000000" font-family="sans-serif" font-size="14" lengthAdjust="spacingAndGlyphs" textLength="93" x="843.3237" y="246.0132">Add New Trail</text><ellipse cx="410.9395" cy="241.5879" fill="#FFFFFF" rx="75.9395" ry="17.5879" style="stroke: #000000; stroke-width: 1.5;"/><text fill="#000000" font-family="sans-serif" font-size="14" lengthAdjust="spacingAndGlyphs" textLength="121" x="350.4395" y="246.2363">Rate Existing Trail</text><ellipse cx="656.1316" cy="241.7263" fill="#FFFFFF" rx="109.1316" ry="24.2263" style="stroke: #000000; stroke-width: 1.5;"/><text fill="#000000" font-family="sans-serif" font-size="14" lengthAdjust="spacingAndGlyphs" textLength="196" x="558.1316" y="246.3748">Edit Existing Trail Information</text><ellipse cx="1118.8819" cy="241.5775" fill="#FFFFFF" rx="103.3819" ry="23.5775" style="stroke: #000000; stroke-width: 1.5;"/><text fill="#000000" font-family="sans-serif" font-size="14" lengthAdjust="spacingAndGlyphs" textLength="159" x="1039.3819" y="241.8107">Add Wildlife Information</text><text fill="#000000" font-family="sans-serif" font-size="14" lengthAdjust="spacingAndGlyphs" textLength="46" x="1095.8819" y="258.1076">to Trail</text><ellipse cx="902.9465" cy="391.5893" fill="#FFFFFF" rx="78.4465" ry="18.0893" style="stroke: #000000; stroke-width: 1.5;"/><text fill="#000000" font-family="sans-serif" font-size="14" lengthAdjust="spacingAndGlyphs" textLength="127" x="839.4465" y="396.2377">Provide Trail Name</text><ellipse cx="1123.8427" cy="391.2685" fill="#FFFFFF" rx="81.8427" ry="18.7685" style="stroke: #000000; stroke-width: 1.5;"/><text fill="#000000" font-family="sans-serif" font-size="14" lengthAdjust="spacingAndGlyphs" textLength="135" x="1056.3427" y="395.917">Provide Trail Length</text><ellipse cx="430.1608" cy="391.5322" fill="#FFFFFF" rx="103.1608" ry="23.0322" style="stroke: #000000; stroke-width: 1.5;"/><text fill="#000000" font-family="sans-serif" font-size="14" lengthAdjust="spacingAndGlyphs" textLength="183" x="338.6608" y="396.1806">Provide Elevation Changes</text><ellipse cx="678.7932" cy="391.4586" fill="#FFFFFF" rx="85.2932" ry="19.4586" style="stroke: #000000; stroke-width: 1.5;"/><text fill="#000000" font-family="sans-serif" font-size="14" lengthAdjust="spacingAndGlyphs" textLength="143" x="607.2932" y="396.1071">Provide Trail Pictures</text><ellipse cx="1600.0998" cy="391.72" fill="#FFFFFF" rx="86.5998" ry="19.72" style="stroke: #000000; stroke-width: 1.5;"/><text fill="#000000" font-family="sans-serif" font-size="14" lengthAdjust="spacingAndGlyphs" textLength="146" x="1527.0998" y="396.3684">Provide Wildlife Name</text><ellipse cx="1851.0751" cy="391.715" fill="#FFFFFF" rx="104.0751" ry="23.215" style="stroke: #000000; stroke-width: 1.5;"/><text fill="#000000" font-family="sans-serif" font-size="14" lengthAdjust="spacingAndGlyphs" textLength="185" x="1758.5751" y="396.3635">Provide Wildlife Description</text><ellipse cx="2113.1626" cy="391.5325" fill="#FFFFFF" rx="98.1626" ry="22.0325" style="stroke: #000000; stroke-width: 1.5;"/><text fill="#000000" font-family="sans-serif" font-size="14" lengthAdjust="spacingAndGlyphs" textLength="172" x="2027.1626" y="396.181">Provide Encounter Notes</text><ellipse cx="1360.1693" cy="391.6339" fill="#FFFFFF" rx="93.6693" ry="21.1339" style="stroke: #000000; stroke-width: 1.5;"/><text fill="#000000" font-family="sans-serif" font-size="14" lengthAdjust="spacingAndGlyphs" textLength="162" x="1279.1693" y="396.2823">Provide Wildlife Pictures</text><!--MD5=[fee662a292a0353a69bd162820bae93b]
entity User--><ellipse cx="656" cy="26" fill="#FEFECE" rx="16" ry="16" style="stroke: #A80036; stroke-width: 1.5;"/><path d="M656,46 C660,46 663,46 667,42 C675,42 683,50 683,58 L683,62 C683,66 679,70 675,70 L637,70 C633,70 629,66 629,62 L629,58 C629,50 637,42 645,42 C649,46 652,46 656,46 " fill="#FEFECE" style="stroke: #A80036; stroke-width: 1.5;"/><text fill="#000000" font-family="sans-serif" font-size="14" lengthAdjust="spacingAndGlyphs" textLength="32" x="640" y="84.4951">User</text><!--MD5=[877c095afea871c591873fa9578738d7]
link User to UC_Search--><path d="M627.32,51.47 C566.35,57.65 420.54,77.35 312,131.5 C264.8,155.05 219.59,198.35 196.31,222.68 " fill="none" id="User-&gt;UC_Search" style="stroke: #A80036; stroke-width: 1.0;"/><polygon fill="#A80036" points="192.76,226.42,201.8564,222.6444,196.2015,222.7929,196.053,217.138,192.76,226.42" style="stroke: #A80036; stroke-width: 1.0;"/><!--MD5=[fa4342e28d5f08c5b1961649213aa913]
link User to UC_AddTrail--><path d="M684.61,62.56 C713.98,77.25 760.18,102.48 795,131.5 C828.22,159.19 859.75,198.97 876.82,222.03 " fill="none" id="User-&gt;UC_AddTrail" style="stroke: #A80036; stroke-width: 1.0;"/><polygon fill="#A80036" points="879.84,226.14,877.7168,216.5227,876.8721,222.1162,871.2786,221.2714,879.84,226.14" style="stroke: #A80036; stroke-width: 1.0;"/><!--MD5=[1de19098201f0cf804e05cc367e12f0d]
link User to UC_RateTrail--><path d="M627.44,63.1 C598.31,78.11 552.48,103.53 517,131.5 C482.31,158.84 447.69,197 427.86,220.16 " fill="none" id="User-&gt;UC_RateTrail" style="stroke: #A80036; stroke-width: 1.0;"/><polygon fill="#A80036" points="424.57,224.03,433.4549,219.7806,427.8157,220.2267,427.3696,214.5874,424.57,224.03" style="stroke: #A80036; stroke-width: 1.0;"/><!--MD5=[eab6ee8c59fcbe3570b6667d8b92cfa0]
link User to UC_EditTrail--><path d="M656,87.75 C656,124.68 656,179.4 656,212.34 " fill="none" id="User-&gt;UC_EditTrail" style="stroke: #A80036; stroke-width: 1.0;"/><polygon fill="#A80036" points="656,217.44,660,208.44,656,212.44,652,208.44,656,217.44" style="stroke: #A80036; stroke-width: 1.0;"/><!--MD5=[07f7945d41e3ef44b3432c81ecf6a981]
link User to UC_AddWildlife--><path d="M684.74,51.95 C743.77,58.91 881.8,79.82 985,131.5 C1027.68,152.87 1069.09,189.81 1094.31,214.69 " fill="none" id="User-&gt;UC_AddWildlife" style="stroke: #A80036; stroke-width: 1.0;"/><polygon fill="#A80036" points="1097.91,218.27,1094.3559,209.0848,1094.3673,214.7416,1088.7105,214.753,1097.91,218.27" style="stroke: #A80036; stroke-width: 1.0;"/><!--MD5=[d3b1a3df598aa1d4e9f515f62281da15]
link UC_Search to UC_View--><path d="M166.41,256.37 C156.68,267.34 144.38,283.58 139,300.5 C132.63,320.56 139.14,343.41 147.12,361.07 " fill="none" id="UC_Search-&gt;UC_View" style="stroke: #1F77B4; stroke-width: 1.0; stroke-dasharray: 7.0,7.0;"/><polygon fill="#1F77B4" points="149.39,365.91,149.1816,356.0633,147.2631,361.3849,141.9415,359.4664,149.39,365.91" style="stroke: #1F77B4; stroke-width: 1.0;"/><text fill="#000000" font-family="sans-serif" font-size="13" lengthAdjust="spacingAndGlyphs" textLength="61" x="140" y="313.5669">«include»</text><!--MD5=[4717c54a04df29de9e13aa300e067f98]
link UC_RateTrail to UC_View--><path d="M373.66,256.8 C334.25,272 276.53,294.65 267,300.5 C238.54,317.97 210.27,343.4 190.56,362.78 " fill="none" id="UC_RateTrail-&gt;UC_View" style="stroke: #2CA02C; stroke-width: 1.0; stroke-dasharray: 7.0,7.0;"/><polygon fill="#2CA02C" points="186.74,366.57,195.9466,363.0717,190.2898,363.0488,190.3127,357.392,186.74,366.57" style="stroke: #2CA02C; stroke-width: 1.0;"/><text fill="#000000" font-family="sans-serif" font-size="13" lengthAdjust="spacingAndGlyphs" textLength="61" x="268" y="313.5669">«include»</text><!--MD5=[dd2a2026449d5186feb094b0a8251100]
link UC_EditTrail to UC_View--><path d="M605.32,262.86 C579.32,272.47 546.91,283.19 517,289.5 C463.73,300.74 448.38,289.82 395,300.5 C370.33,305.44 365.32,311.06 341,317.5 C324.74,321.81 319.95,320.15 304,325.5 C271.82,336.3 237.21,352.33 210.45,365.76 " fill="none" id="UC_EditTrail-&gt;UC_View" style="stroke: #D62728; stroke-width: 1.0; stroke-dasharray: 7.0,7.0;"/><polygon fill="#D62728" points="205.89,368.07,215.7269,367.5851,210.3535,365.8168,212.1219,360.4435,205.89,368.07" style="stroke: #D62728; stroke-width: 1.0;"/><text fill="#000000" font-family="sans-serif" font-size="13" lengthAdjust="spacingAndGlyphs" textLength="61" x="396" y="313.5669">«include»</text><!--MD5=[2017e222508c1a5405e2c21e5eb78b80]
link UC_AddWildlife to UC_View--><path d="M1073.15,262.6 C1047.71,272.72 1015.19,283.99 985,289.5 C883.54,308.02 622.66,283.07 521,300.5 C497.04,304.61 492.91,313.09 469,317.5 C396.8,330.8 375.29,307.94 304,325.5 C269.81,333.92 233.84,350.82 206.91,365.28 " fill="none" id="UC_AddWildlife-&gt;UC_View" style="stroke: #9467BD; stroke-width: 1.0; stroke-dasharray: 7.0,7.0;"/><polygon fill="#9467BD" points="202.34,367.76,212.1584,366.9865,206.7355,365.3767,208.3452,359.9538,202.34,367.76" style="stroke: #9467BD; stroke-width: 1.0;"/><text fill="#000000" font-family="sans-serif" font-size="13" lengthAdjust="spacingAndGlyphs" textLength="61" x="522" y="313.5669">«include»</text><!--MD5=[e5d603bc2c513b9a34c85b207d6754f4]
link UC_AddTrail to UC_TrailName--><path d="M891.29,257.23 C893.58,283.22 898.33,337.35 901.03,368.03 " fill="none" id="UC_AddTrail-&gt;UC_TrailName" style="stroke: #FF7F0E; stroke-width: 1.0; stroke-dasharray: 7.0,7.0;"/><polygon fill="#FF7F0E" points="901.47,373.11,904.658,363.7914,901.0276,368.1296,896.6894,364.4992,901.47,373.11" style="stroke: #FF7F0E; stroke-width: 1.0;"/><text fill="#000000" font-family="sans-serif" font-size="13" lengthAdjust="spacingAndGlyphs" textLength="61" x="897" y="313.5669">«include»</text><!--MD5=[bc6f0bb9d87dea92266e85fa4168b2d8]
link UC_AddTrail to UC_TrailLength--><path d="M911.59,256.16 C953.22,282.48 1044.69,340.34 1092.89,370.82 " fill="none" id="UC_AddTrail-&gt;UC_TrailLength" style="stroke: #BCBD22; stroke-width: 1.0; stroke-dasharray: 7.0,7.0;"/><polygon fill="#BCBD22" points="1097.13,373.5,1091.6576,365.3114,1092.9029,370.8295,1087.3848,372.0748,1097.13,373.5" style="stroke: #BCBD22; stroke-width: 1.0;"/><text fill="#000000" font-family="sans-serif" font-size="13" lengthAdjust="spacingAndGlyphs" textLength="61" x="1008" y="313.5669">«include»</text><!--MD5=[001fa091f8b1e8eaad5dcf9b4f34ae2e]
link UC_AddTrail to UC_Elevation--><path d="M867.85,256.14 C849.14,267 821.26,281.63 795,289.5 C756.82,300.94 745.42,294.6 706,300.5 C674.31,305.24 594.48,315.64 564,325.5 C531.09,336.15 495.99,353.41 469.97,367.48 " fill="none" id="UC_AddTrail-&gt;UC_Elevation" style="stroke: #17BECF; stroke-width: 1.0; stroke-dasharray: 7.0,7.0;"/><polygon fill="#17BECF" points="465.55,369.88,475.3654,369.0685,469.9362,367.4797,471.5249,362.0506,465.55,369.88" style="stroke: #17BECF; stroke-width: 1.0;"/><text fill="#000000" font-family="sans-serif" font-size="13" lengthAdjust="spacingAndGlyphs" textLength="61" x="707" y="313.5669">«include»</text><!--MD5=[9efda5b5fc07abd0a89ad5779f58f71e]
link UC_AddTrail to UC_TrailPictures--><path d="M870.15,256.42 C832.88,282.56 752.27,339.11 708.58,369.75 " fill="none" id="UC_AddTrail-&gt;UC_TrailPictures" style="stroke: #8C564B; stroke-width: 1.0; stroke-dasharray: 7.0,7.0;"/><polygon fill="#8C564B" points="704.47,372.63,714.1365,370.7435,708.5655,369.7617,709.5473,364.1907,704.47,372.63" style="stroke: #8C564B; stroke-width: 1.0;"/><text fill="#000000" font-family="sans-serif" font-size="13" lengthAdjust="spacingAndGlyphs" textLength="61" x="804" y="313.5669">«include»</text><!--MD5=[7274beb3eeb6a867ed83248d8fde093c]
link UC_AddWildlife to UC_WildlifeName--><path d="M1204.38,254.79 C1279.68,267.28 1391.5,289.92 1484,325.5 C1514.3,337.15 1546.31,355.62 1569.02,369.89 " fill="none" id="UC_AddWildlife-&gt;UC_WildlifeName" style="stroke: #E377C2; stroke-width: 1.0; stroke-dasharray: 7.0,7.0;"/><polygon fill="#E377C2" points="1573.43,372.69,1567.9701,364.4931,1569.207,370.013,1563.687,371.2499,1573.43,372.69" style="stroke: #E377C2; stroke-width: 1.0;"/><text fill="#000000" font-family="sans-serif" font-size="13" lengthAdjust="spacingAndGlyphs" textLength="61" x="1456" y="313.5669">«include»</text><!--MD5=[c7b36f2e065a4d33406d9c0b6ce4c15a]
link UC_AddWildlife to UC_WildlifeDesc--><path d="M1219.99,246.88 C1340.57,254.29 1547.25,273.96 1717,325.5 C1750.33,335.62 1785.68,353.09 1811.71,367.37 " fill="none" id="UC_AddWildlife-&gt;UC_WildlifeDesc" style="stroke: #7F7F7F; stroke-width: 1.0; stroke-dasharray: 7.0,7.0;"/><polygon fill="#7F7F7F" points="1816.13,369.81,1810.2052,361.9426,1811.7592,367.3818,1806.32,368.9358,1816.13,369.81" style="stroke: #7F7F7F; stroke-width: 1.0;"/><text fill="#000000" font-family="sans-serif" font-size="13" lengthAdjust="spacingAndGlyphs" textLength="61" x="1686" y="313.5669">«include»</text><!--MD5=[2c371d36335bdc5389aecc2bbe8f18f7]
link UC_AddWildlife to UC_EncounterNotes--><path d="M1219.43,247.21 C1415.85,257.24 1844.02,283.28 1985,325.5 C2017.82,335.33 2052.29,353.34 2077.18,367.91 " fill="none" id="UC_AddWildlife-&gt;UC_EncounterNotes" style="stroke: #8C6D31; stroke-width: 1.0; stroke-dasharray: 7.0,7.0;"/><polygon fill="#8C6D31" points="2081.72,370.59,2075.9976,362.5741,2077.4125,368.0512,2071.9355,369.4661,2081.72,370.59" style="stroke: #8C6D31; stroke-width: 1.0;"/><text fill="#000000" font-family="sans-serif" font-size="13" lengthAdjust="spacingAndGlyphs" textLength="61" x="1947" y="313.5669">«include»</text><!--MD5=[bd7ef79fa36e5b1d9c87e1c3e08d8907]
link UC_AddWildlife to UC_WildlifePictures--><path d="M1153.53,263.7 C1199.05,291.66 1278.71,340.58 1324.64,368.79 " fill="none" id="UC_AddWildlife-&gt;UC_WildlifePictures" style="stroke: #3182BD; stroke-width: 1.0; stroke-dasharray: 7.0,7.0;"/><polygon fill="#3182BD" points="1328.98,371.45,1323.4039,363.3317,1324.7193,368.8335,1319.2175,370.1489,1328.98,371.45" style="stroke: #3182BD; stroke-width: 1.0;"/><text fill="#000000" font-family="sans-serif" font-size="13" lengthAdjust="spacingAndGlyphs" textLength="61" x="1240" y="313.5669">«include»</text><!--MD5=[aca0e99d568ed380b197a5e2029944fb]
@startuml
top to bottom direction
skinparam shadowing false
skinparam packageStyle rectangle
skinparam actorStyle awesome
skinparam ranksep 70
skinparam nodesep 60
skinparam DefaultTextAlignment center

skinparam usecase {
  BackgroundColor white
  BorderColor black
}

skinparam rectangle {
  BackgroundColor white
  BorderColor black
}

actor User

rectangle "Wildlife Explorer" {

  package "Use" {
    usecase "Search Trails" as UC_Search
    usecase "View Trail Information\n(in concise format)" as UC_View
  }

  package "Contribute" {
    usecase "Add New Trail" as UC_AddTrail
    usecase "Rate Existing Trail" as UC_RateTrail
    usecase "Edit Existing Trail Information" as UC_EditTrail
    usecase "Add Wildlife Information\nto Trail" as UC_AddWildlife
  }

  package "Required Trail Details" {
    usecase "Provide Trail Name" as UC_TrailName
    usecase "Provide Trail Length" as UC_TrailLength
    usecase "Provide Elevation Changes" as UC_Elevation
    usecase "Provide Trail Pictures" as UC_TrailPictures
  }

  package "Required Wildlife Details" {
    usecase "Provide Wildlife Name" as UC_WildlifeName
    usecase "Provide Wildlife Description" as UC_WildlifeDesc
    usecase "Provide Encounter Notes" as UC_EncounterNotes
    usecase "Provide Wildlife Pictures" as UC_WildlifePictures
  }
}

User - -> UC_Search
User - -> UC_AddTrail
User - -> UC_RateTrail
User - -> UC_EditTrail
User - -> UC_AddWildlife

UC_Search .[#1f77b4].> UC_View : <<include>>
UC_RateTrail .[#2ca02c].> UC_View : <<include>>
UC_EditTrail .[#d62728].> UC_View : <<include>>
UC_AddWildlife .[#9467bd].> UC_View : <<include>>

UC_AddTrail .[#ff7f0e].> UC_TrailName : <<include>>
UC_AddTrail .[#bcbd22].> UC_TrailLength : <<include>>
UC_AddTrail .[#17becf].> UC_Elevation : <<include>>
UC_AddTrail .[#8c564b].> UC_TrailPictures : <<include>>

UC_AddWildlife .[#e377c2].> UC_WildlifeName : <<include>>
UC_AddWildlife .[#7f7f7f].> UC_WildlifeDesc : <<include>>
UC_AddWildlife .[#8c6d31].> UC_EncounterNotes : <<include>>
UC_AddWildlife .[#3182bd].> UC_WildlifePictures : <<include>>

@enduml

PlantUML version 1.2020.02(Sun Mar 01 05:22:07 EST 2020)
(GPL source distribution)
Java Runtime: OpenJDK Runtime Environment
JVM: OpenJDK 64-Bit Server VM
Java Version: 21.0.10+7-Ubuntu-124.04
Operating System: Linux
Default Encoding: UTF-8
Language: en
Country: null
--></g></svg>