<?xml version="1.0" encoding="UTF-8" standalone="no"?><svg xmlns="http://www.w3.org/2000/svg" xmlns:xlink="http://www.w3.org/1999/xlink" contentScriptType="application/ecmascript" contentStyleType="text/css" height="507px" preserveAspectRatio="none" style="width:3184px;height:507px;" version="1.1" viewBox="0 0 3184 507" width="3184px" zoomAndPan="magnify"><defs/><g><!--MD5=[1ca641517f5856b3b8b28f1151810449]
cluster Wildlife Explorer--><rect fill="#FFFFFF" height="357" style="stroke: #000000; stroke-width: 1.5;" width="2765" x="22" y="139"/><text fill="#000000" font-family="sans-serif" font-size="14" font-weight="bold" lengthAdjust="spacingAndGlyphs" textLength="128" x="1340.5" y="153.9951">Wildlife Explorer</text><!--MD5=[83ab74bcd81cd77127c8093a615ae583]
cluster Use--><polygon fill="#FFFFFF" points="46,192,82,192,89,214.2969,330,214.2969,330,470,46,470,46,192" style="stroke: #000000; stroke-width: 1.5;"/><line style="stroke: #000000; stroke-width: 1.5;" x1="46" x2="89" y1="214.2969" y2="214.2969"/><text fill="#000000" font-family="sans-serif" font-size="14" font-weight="bold" lengthAdjust="spacingAndGlyphs" textLength="30" x="50" y="206.9951">Use</text><!--MD5=[a4e6fc278f181bc1693d8f99fc1a0253]
cluster Contribute--><polygon fill="#FFFFFF" points="354,182,444,182,451,204.2969,2072,204.2969,2072,294,354,294,354,182" style="stroke: #000000; stroke-width: 1.5;"/><line style="stroke: #000000; stroke-width: 1.5;" x1="354" x2="451" y1="204.2969" y2="204.2969"/><text fill="#000000" font-family="sans-serif" font-size="14" font-weight="bold" lengthAdjust="spacingAndGlyphs" textLength="84" x="358" y="196.9951">Contribute</text><!--MD5=[e784f4e31f7e429b1aab1976df50e849]
cluster Required Trail Details--><polygon fill="#FFFFFF" points="1607,362.5,1781,362.5,1788,384.7969,2763,384.7969,2763,471.5,1607,471.5,1607,362.5" style="stroke: #000000; stroke-width: 1.5;"/><line style="stroke: #000000; stroke-width: 1.5;" x1="1607" x2="1788" y1="384.7969" y2="384.7969"/><text fill="#000000" font-family="sans-serif" font-size="14" font-weight="bold" lengthAdjust="spacingAndGlyphs" textLength="168" x="1611" y="377.4951">Required Trail Details</text><!--MD5=[ab02419a13ff152f602fd0b4d4b4a83b]
cluster Wildlife details\n(mainly when creating new species)--><polygon fill="#FFFFFF" points="358,346,650,346,657,384.5938,1580,384.5938,1580,472,358,472,358,346" style="stroke: #000000; stroke-width: 1.5;"/><line style="stroke: #000000; stroke-width: 1.5;" x1="358" x2="657" y1="384.5938" y2="384.5938"/><text fill="#000000" font-family="sans-serif" font-size="14" font-weight="bold" lengthAdjust="spacingAndGlyphs" textLength="114" x="448" y="360.9951">Wildlife details</text><text fill="#000000" font-family="sans-serif" font-size="14" font-weight="bold" lengthAdjust="spacingAndGlyphs" textLength="286" x="362" y="377.292">(mainly when creating new species)</text><ellipse cx="212.1728" cy="247.3346" fill="#FFFFFF" rx="89.6728" ry="20.3346" style="stroke: #000000; stroke-width: 1.5;"/><text fill="#000000" font-family="sans-serif" font-size="14" lengthAdjust="spacingAndGlyphs" textLength="153" x="135.6728" y="251.983">UC-01 — Search Trails</text><ellipse cx="187.8559" cy="426.5712" fill="#FFFFFF" rx="125.8559" ry="27.5712" style="stroke: #000000; stroke-width: 1.5;"/><text fill="#000000" font-family="sans-serif" font-size="14" lengthAdjust="spacingAndGlyphs" textLength="210" x="82.8559" y="426.611">UC-02 — View Trail Information</text><text fill="#000000" font-family="sans-serif" font-size="14" lengthAdjust="spacingAndGlyphs" textLength="145" x="115.3559" y="442.9079">(trail, wildlife, images)</text><ellipse cx="1731.8872" cy="247.2774" fill="#FFFFFF" rx="91.8872" ry="20.7774" style="stroke: #000000; stroke-width: 1.5;"/><text fill="#000000" font-family="sans-serif" font-size="14" lengthAdjust="spacingAndGlyphs" textLength="158" x="1652.8872" y="251.9259">UC-03 — Add New Trail</text><ellipse cx="483.9418" cy="247.6884" fill="#FFFFFF" rx="113.9418" ry="25.1884" style="stroke: #000000; stroke-width: 1.5;"/><text fill="#000000" font-family="sans-serif" font-size="14" lengthAdjust="spacingAndGlyphs" textLength="186" x="390.9418" y="248.3872">UC-04 — Rate Existing Trail</text><text fill="#000000" font-family="sans-serif" font-size="14" lengthAdjust="spacingAndGlyphs" textLength="85" x="441.4418" y="264.684">(score 0-10)</text><ellipse cx="798.212" cy="247.3424" fill="#FFFFFF" rx="139.712" ry="30.3424" style="stroke: #000000; stroke-width: 1.5;"/><text fill="#000000" font-family="sans-serif" font-size="14" lengthAdjust="spacingAndGlyphs" textLength="261" x="667.712" y="251.9908">UC-05 — Edit Existing Trail Information</text><ellipse cx="1447.9875" cy="247.6975" fill="#FFFFFF" rx="131.4875" ry="28.6975" style="stroke: #000000; stroke-width: 1.5;"/><text fill="#000000" font-family="sans-serif" font-size="14" lengthAdjust="spacingAndGlyphs" textLength="193" x="1351.4875" y="243.5276">UC-06 — Add Wildlife to Trail</text><text fill="#000000" font-family="sans-serif" font-size="14" lengthAdjust="spacingAndGlyphs" textLength="204" x="1345.9875" y="259.8245">(new species or from catalog)</text><ellipse cx="1127.2278" cy="247.3456" fill="#FFFFFF" rx="129.7278" ry="28.3456" style="stroke: #000000; stroke-width: 1.5;"/><text fill="#000000" font-family="sans-serif" font-size="14" lengthAdjust="spacingAndGlyphs" textLength="240" x="1007.2278" y="251.994">UC-07 — Remove Wildlife from Trail</text><ellipse cx="1969.7932" cy="247.4586" fill="#FFFFFF" rx="85.2932" ry="19.4586" style="stroke: #000000; stroke-width: 1.5;"/><text fill="#000000" font-family="sans-serif" font-size="14" lengthAdjust="spacingAndGlyphs" textLength="143" x="1898.2932" y="252.1071">UC-08 — Delete Trail</text><ellipse cx="1730.7877" cy="426.3575" fill="#FFFFFF" rx="107.2877" ry="23.8575" style="stroke: #000000; stroke-width: 1.5;"/><text fill="#000000" font-family="sans-serif" font-size="14" lengthAdjust="spacingAndGlyphs" textLength="192" x="1634.7877" y="431.006">UC-09 — Provide Trail Name</text><ellipse cx="2009.9811" cy="426.5962" fill="#FFFFFF" rx="110.9811" ry="24.5962" style="stroke: #000000; stroke-width: 1.5;"/><text fill="#000000" font-family="sans-serif" font-size="14" lengthAdjust="spacingAndGlyphs" textLength="200" x="1909.9811" y="431.2447">UC-10 — Provide Trail Length</text><ellipse cx="2315.0217" cy="426.6043" fill="#FFFFFF" rx="133.5217" ry="29.1043" style="stroke: #000000; stroke-width: 1.5;"/><text fill="#000000" font-family="sans-serif" font-size="14" lengthAdjust="spacingAndGlyphs" textLength="248" x="2191.0217" y="431.2528">UC-11 — Provide Elevation Changes</text><ellipse cx="2628.0709" cy="426.7142" fill="#FFFFFF" rx="119.0709" ry="26.2142" style="stroke: #000000; stroke-width: 1.5;"/><text fill="#000000" font-family="sans-serif" font-size="14" lengthAdjust="spacingAndGlyphs" textLength="208" x="2524.0709" y="429.2029">UC-12 — Provide Trail Pictures</text><text fill="#000000" font-family="sans-serif" font-size="14" lengthAdjust="spacingAndGlyphs" textLength="65" x="2595.5709" y="445.4998">(optional)</text><ellipse cx="1118.0937" cy="426.6187" fill="#FFFFFF" rx="116.0937" ry="25.6187" style="stroke: #000000; stroke-width: 1.5;"/><text fill="#000000" font-family="sans-serif" font-size="14" lengthAdjust="spacingAndGlyphs" textLength="211" x="1012.5937" y="431.2672">UC-13 — Provide Wildlife Name</text><ellipse cx="1428.9721" cy="426.2944" fill="#FFFFFF" rx="134.4721" ry="29.2944" style="stroke: #000000; stroke-width: 1.5;"/><text fill="#000000" font-family="sans-serif" font-size="14" lengthAdjust="spacingAndGlyphs" textLength="250" x="1303.9721" y="430.9429">UC-14 — Provide Wildlife Description</text><ellipse cx="502.8083" cy="426.5617" fill="#FFFFFF" rx="128.3083" ry="28.0617" style="stroke: #000000; stroke-width: 1.5;"/><text fill="#000000" font-family="sans-serif" font-size="14" lengthAdjust="spacingAndGlyphs" textLength="237" x="384.3083" y="431.2101">UC-15 — Provide Encounter Notes</text><ellipse cx="817.1696" cy="426.4339" fill="#FFFFFF" rx="125.1696" ry="27.4339" style="stroke: #000000; stroke-width: 1.5;"/><text fill="#000000" font-family="sans-serif" font-size="14" lengthAdjust="spacingAndGlyphs" textLength="227" x="703.6696" y="430.1905">UC-16 — Provide Wildlife Pictures</text><text fill="#000000" font-family="sans-serif" font-size="14" lengthAdjust="spacingAndGlyphs" textLength="65" x="784.6696" y="446.4874">(optional)</text><!--MD5=[f367faf0381a60654cb678c2cea65232]
entity EndUser--><ellipse cx="1127" cy="25.5" fill="#FFFFFF" rx="16" ry="16" style="stroke: #000000; stroke-width: 1.5;"/><path d="M1127,45.5 C1131,45.5 1134,45.5 1138,41.5 C1146,41.5 1154,49.5 1154,57.5 L1154,61.5 C1154,65.5 1150,69.5 1146,69.5 L1108,69.5 C1104,69.5 1100,65.5 1100,61.5 L1100,57.5 C1100,49.5 1108,41.5 1116,41.5 C1120,45.5 1123,45.5 1127,45.5 " fill="#FFFFFF" style="stroke: #000000; stroke-width: 1.5;"/><text fill="#000000" font-family="sans-serif" font-size="14" lengthAdjust="spacingAndGlyphs" textLength="63" x="1095.5" y="83.9951">End User</text><path d="M2803.5,227.5 L2803.5,267.7656 L3172.5,267.7656 L3172.5,237.5 L3162.5,227.5 L2803.5,227.5 " fill="#FFFFFF" style="stroke: #000000; stroke-width: 1.0;"/><path d="M3162.5,227.5 L3162.5,237.5 L3172.5,237.5 L3162.5,227.5 " fill="#FFFFFF" style="stroke: #000000; stroke-width: 1.0;"/><text fill="#000000" font-family="sans-serif" font-size="13" lengthAdjust="spacingAndGlyphs" textLength="90" x="2809.5" y="244.5669">End User may</text><text fill="#000000" font-family="sans-serif" font-size="13" font-weight="bold" lengthAdjust="spacingAndGlyphs" textLength="254" x="2903.5" y="244.5669">attach an existing catalog species</text><text fill="#000000" font-family="sans-serif" font-size="13" lengthAdjust="spacingAndGlyphs" textLength="341" x="2809.5" y="259.6997">instead of filling all wildlife detail fields (UC-13-UC-16).</text><!--MD5=[074f3a7e40ec09a518a0c58480e7d439]
link EndUser to UC_Search--><path d="M1095.43,49.35 C967.18,53.21 485.36,71.43 347,131 C298.94,151.69 255.29,195.69 231.31,223.01 " fill="none" id="EndUser-&gt;UC_Search" style="stroke: #000000; stroke-width: 1.0;"/><polygon fill="#000000" points="227.92,226.91,236.8401,222.7349,231.1974,223.1339,230.7984,217.4911,227.92,226.91" style="stroke: #000000; stroke-width: 1.0;"/><!--MD5=[2b3808cebe186f414a4ac700f7b24b86]
link EndUser to UC_AddTrail--><path d="M1158.59,47.73 C1238.65,47.04 1454.21,53.11 1610,131 C1653.58,152.79 1692.24,195.33 1713.84,222.25 " fill="none" id="EndUser-&gt;UC_AddTrail" style="stroke: #000000; stroke-width: 1.0;"/><polygon fill="#000000" points="1717.16,226.44,1714.6867,216.9067,1714.047,222.5273,1708.4264,221.8876,1717.16,226.44" style="stroke: #000000; stroke-width: 1.0;"/><!--MD5=[4e4c1cb59139a9ec017b2f4b584d545d]
link EndUser to UC_RateTrail--><path d="M1095.42,48.32 C1014.29,48.99 793.36,57.92 629,131 C581.72,152.02 536.63,192.2 509.63,219.18 " fill="none" id="EndUser-&gt;UC_RateTrail" style="stroke: #000000; stroke-width: 1.0;"/><polygon fill="#000000" points="506.11,222.73,515.288,219.1573,509.6312,219.1802,509.6083,213.5234,506.11,222.73" style="stroke: #000000; stroke-width: 1.0;"/><!--MD5=[599ea615bfabde51db150b3db22df2da]
link EndUser to UC_EditTrail--><path d="M1095.33,63.56 C1062.81,79.34 1011,105.36 968,131 C923.71,157.41 875.25,190.81 841.45,214.89 " fill="none" id="EndUser-&gt;UC_EditTrail" style="stroke: #000000; stroke-width: 1.0;"/><polygon fill="#000000" points="836.98,218.07,846.6233,216.0681,841.0409,215.153,841.9561,209.5707,836.98,218.07" style="stroke: #000000; stroke-width: 1.0;"/><!--MD5=[246dcd5e549d2e8fbdd9f7b772ff6ffc]
link EndUser to UC_AddWildlife--><path d="M1158.71,63.16 C1191.54,78.71 1243.95,104.65 1287,131 C1330.53,157.64 1377.67,192.18 1409.62,216.53 " fill="none" id="EndUser-&gt;UC_AddWildlife" style="stroke: #000000; stroke-width: 1.0;"/><polygon fill="#000000" points="1413.83,219.75,1409.1187,211.1011,1409.861,216.709,1404.2531,217.4514,1413.83,219.75" style="stroke: #000000; stroke-width: 1.0;"/><!--MD5=[747e4c5862a34a7d2cf21336a6afd3dc]
link EndUser to UC_RemoveWildlife--><path d="M1127,87.15 C1127,123.89 1127,178.58 1127,213.38 " fill="none" id="EndUser-&gt;UC_RemoveWildlife" style="stroke: #000000; stroke-width: 1.0;"/><polygon fill="#000000" points="1127,218.79,1131,209.79,1127,213.79,1123,209.79,1127,218.79" style="stroke: #000000; stroke-width: 1.0;"/><!--MD5=[e20748360d3eb5af717a4e7b2d6b14c0]
link EndUser to UC_DeleteTrail--><path d="M1158.62,49.34 C1281.67,53.04 1728.07,70.46 1854,131 C1897.76,152.04 1934.78,196.44 1954.56,223.65 " fill="none" id="EndUser-&gt;UC_DeleteTrail" style="stroke: #000000; stroke-width: 1.0;"/><polygon fill="#000000" points="1957.59,227.87,1955.5658,218.2314,1954.6636,223.8159,1949.0791,222.9137,1957.59,227.87" style="stroke: #000000; stroke-width: 1.0;"/><!--MD5=[d3b1a3df598aa1d4e9f515f62281da15]
link UC_Search to UC_View--><path d="M209.34,268.12 C205.22,298.49 197.26,357.18 192.32,393.67 " fill="none" id="UC_Search-&gt;UC_View" style="stroke: #1F77B4; stroke-width: 1.0; stroke-dasharray: 7.0,7.0;"/><polygon fill="#1F77B4" points="191.61,398.89,196.785,390.5103,192.283,393.9355,188.8578,389.4335,191.61,398.89" style="stroke: #1F77B4; stroke-width: 1.0;"/><text fill="#000000" font-family="sans-serif" font-size="13" lengthAdjust="spacingAndGlyphs" textLength="61" x="204" y="326.0669">«include»</text><!--MD5=[4717c54a04df29de9e13aa300e067f98]
link UC_RateTrail to UC_View--><path d="M446.21,271.1 C392.14,303.43 292.77,362.85 234.34,397.79 " fill="none" id="UC_RateTrail-&gt;UC_View" style="stroke: #2CA02C; stroke-width: 1.0; stroke-dasharray: 7.0,7.0;"/><polygon fill="#2CA02C" points="229.85,400.47,239.6283,399.2935,234.1438,397.9081,235.5292,392.4235,229.85,400.47" style="stroke: #2CA02C; stroke-width: 1.0;"/><text fill="#000000" font-family="sans-serif" font-size="13" lengthAdjust="spacingAndGlyphs" textLength="61" x="373" y="326.0669">«include»</text><!--MD5=[dd2a2026449d5186feb094b0a8251100]
link UC_EditTrail to UC_View--><path d="M727.23,273.94 C697,283.98 661.11,294.81 628,302 C589.05,310.46 578.37,306.81 539,313 C499.22,319.25 489.91,324.59 450,330 C406.26,335.93 393.34,325.52 351,338 C306.81,351.03 260.96,376.93 229.19,397.18 " fill="none" id="UC_EditTrail-&gt;UC_View" style="stroke: #D62728; stroke-width: 1.0; stroke-dasharray: 7.0,7.0;"/><polygon fill="#D62728" points="224.61,400.13,234.3459,398.6429,228.8201,397.4327,230.0303,391.9068,224.61,400.13" style="stroke: #D62728; stroke-width: 1.0;"/><text fill="#000000" font-family="sans-serif" font-size="13" lengthAdjust="spacingAndGlyphs" textLength="61" x="540" y="326.0669">«include»</text><!--MD5=[2017e222508c1a5405e2c21e5eb78b80]
link UC_AddWildlife to UC_View--><path d="M1388.32,273.07 C1358.44,284.14 1321.39,296.04 1287,302 C1179.03,320.71 901.97,294.24 794,313 C770.46,317.09 766.54,325.93 743,330 C700.07,337.42 393.14,326.95 351,338 C305.81,349.85 259.34,376.49 227.65,397.28 " fill="none" id="UC_AddWildlife-&gt;UC_View" style="stroke: #9467BD; stroke-width: 1.0; stroke-dasharray: 7.0,7.0;"/><polygon fill="#9467BD" points="223.47,400.04,233.1838,398.4144,227.6412,397.283,228.7726,391.7404,223.47,400.04" style="stroke: #9467BD; stroke-width: 1.0;"/><text fill="#000000" font-family="sans-serif" font-size="13" lengthAdjust="spacingAndGlyphs" textLength="61" x="795" y="326.0669">«include»</text><!--MD5=[4da1dae7f68fece79bd0ab9129310a9e]
link UC_RemoveWildlife to UC_View--><path d="M1067.68,272.99 C1038.23,283.98 1001.81,295.82 968,302 C837.19,325.9 800.16,291.06 669,313 C643.35,317.29 638.67,325.79 613,330 C555.52,339.43 407.27,322.94 351,338 C306.02,350.04 259.7,376.51 227.99,397.2 " fill="none" id="UC_RemoveWildlife-&gt;UC_View" style="stroke: #98DF8A; stroke-width: 1.0; stroke-dasharray: 7.0,7.0;"/><polygon fill="#98DF8A" points="223.81,399.95,233.5301,398.3628,227.9921,397.2095,229.1454,391.6715,223.81,399.95" style="stroke: #98DF8A; stroke-width: 1.0;"/><text fill="#000000" font-family="sans-serif" font-size="13" lengthAdjust="spacingAndGlyphs" textLength="61" x="670" y="326.0669">«include»</text><!--MD5=[e5d603bc2c513b9a34c85b207d6754f4]
link UC_AddTrail to UC_TrailName--><path d="M1731.89,268.8 C1731.71,300.39 1731.36,361.4 1731.16,397.26 " fill="none" id="UC_AddTrail-&gt;UC_TrailName" style="stroke: #FF7F0E; stroke-width: 1.0; stroke-dasharray: 7.0,7.0;"/><polygon fill="#FF7F0E" points="1731.13,402.36,1735.1814,393.383,1731.1586,397.3601,1727.1815,393.3373,1731.13,402.36" style="stroke: #FF7F0E; stroke-width: 1.0;"/><text fill="#000000" font-family="sans-serif" font-size="13" lengthAdjust="spacingAndGlyphs" textLength="61" x="1732" y="326.0669">«include»</text><!--MD5=[bc6f0bb9d87dea92266e85fa4168b2d8]
link UC_AddTrail to UC_TrailLength--><path d="M1761.75,267.44 C1812.12,299.51 1914.21,364.51 1970.51,400.36 " fill="none" id="UC_AddTrail-&gt;UC_TrailLength" style="stroke: #BCBD22; stroke-width: 1.0; stroke-dasharray: 7.0,7.0;"/><polygon fill="#BCBD22" points="1974.82,403.1,1969.3799,394.8899,1970.6035,400.4128,1965.0805,401.6364,1974.82,403.1" style="stroke: #BCBD22; stroke-width: 1.0;"/><text fill="#000000" font-family="sans-serif" font-size="13" lengthAdjust="spacingAndGlyphs" textLength="61" x="1855" y="326.0669">«include»</text><!--MD5=[001fa091f8b1e8eaad5dcf9b4f34ae2e]
link UC_AddTrail to UC_Elevation--><path d="M1767.07,267 C1791.15,278.89 1824.22,293.62 1855,302 C1886.97,310.7 2119.4,328.03 2151,338 C2193.83,351.51 2238.55,376.19 2270.46,395.9 " fill="none" id="UC_AddTrail-&gt;UC_Elevation" style="stroke: #17BECF; stroke-width: 1.0; stroke-dasharray: 7.0,7.0;"/><polygon fill="#17BECF" points="2275.07,398.77,2269.5457,390.6164,2270.826,396.1264,2265.3159,397.4068,2275.07,398.77" style="stroke: #17BECF; stroke-width: 1.0;"/><text fill="#000000" font-family="sans-serif" font-size="13" lengthAdjust="spacingAndGlyphs" textLength="61" x="2100" y="326.0669">«include»</text><!--MD5=[9efda5b5fc07abd0a89ad5779f58f71e]
link UC_AddTrail to UC_TrailPictures--><path d="M1765.55,267.21 C1789.64,279.6 1823.31,294.84 1855,302 C1924.84,317.78 2105.52,308.82 2177,313 C2311.45,320.86 2350.61,297.33 2479,338 C2520.84,351.25 2563.52,377.94 2592.42,398.37 " fill="none" id="UC_AddTrail-&gt;UC_TrailPictures" style="stroke: #8C564B; stroke-width: 1.0; stroke-dasharray: 7.0,7.0;"/><polygon fill="#8C564B" points="2596.58,401.34,2591.5898,392.849,2592.5142,398.4298,2586.9334,399.3542,2596.58,401.34" style="stroke: #8C564B; stroke-width: 1.0;"/><text fill="#000000" font-family="sans-serif" font-size="13" lengthAdjust="spacingAndGlyphs" textLength="61" x="2450" y="326.0669">«include»</text><!--MD5=[7274beb3eeb6a867ed83248d8fde093c]
link UC_AddWildlife to UC_WildlifeName--><path d="M1393.76,273.59 C1357.03,290.93 1307.62,314.95 1265,338 C1228.92,357.52 1188.99,381.44 1159.86,399.34 " fill="none" id="UC_AddWildlife-&gt;UC_WildlifeName" style="stroke: #E377C2; stroke-width: 1.0; stroke-dasharray: 7.0,7.0;"/><polygon fill="#E377C2" points="1155.28,402.16,1165.0425,400.8589,1159.5407,399.5435,1160.8561,394.0417,1155.28,402.16" style="stroke: #E377C2; stroke-width: 1.0;"/><text fill="#000000" font-family="sans-serif" font-size="13" lengthAdjust="spacingAndGlyphs" textLength="61" x="1310" y="326.0669">«include»</text><!--MD5=[c7b36f2e065a4d33406d9c0b6ce4c15a]
link UC_AddWildlife to UC_WildlifeDesc--><path d="M1445.03,276.16 C1441.68,307.35 1436.24,358.09 1432.64,391.64 " fill="none" id="UC_AddWildlife-&gt;UC_WildlifeDesc" style="stroke: #7F7F7F; stroke-width: 1.0; stroke-dasharray: 7.0,7.0;"/><polygon fill="#7F7F7F" points="1432.07,396.87,1436.9991,388.3433,1432.5986,391.898,1429.044,387.4975,1432.07,396.87" style="stroke: #7F7F7F; stroke-width: 1.0;"/><text fill="#000000" font-family="sans-serif" font-size="13" lengthAdjust="spacingAndGlyphs" textLength="61" x="1441" y="326.0669">«include»</text><!--MD5=[2c371d36335bdc5389aecc2bbe8f18f7]
link UC_AddWildlife to UC_EncounterNotes--><path d="M1388.3,272.94 C1358.41,283.97 1321.36,295.89 1287,302 C1132.02,329.55 1088.61,289.25 933,313 C905.18,317.25 899.81,325.66 872,330 C825.86,337.21 707,325.52 662,338 C618.59,350.04 574.08,375.92 543.23,396.43 " fill="none" id="UC_AddWildlife-&gt;UC_EncounterNotes" style="stroke: #8C6D31; stroke-width: 1.0; stroke-dasharray: 7.0,7.0;"/><polygon fill="#8C6D31" points="538.78,399.42,548.4806,397.7174,542.9292,396.63,544.0166,391.0787,538.78,399.42" style="stroke: #8C6D31; stroke-width: 1.0;"/><text fill="#000000" font-family="sans-serif" font-size="13" lengthAdjust="spacingAndGlyphs" textLength="61" x="934" y="326.0669">«include»</text><!--MD5=[bd7ef79fa36e5b1d9c87e1c3e08d8907]
link UC_AddWildlife to UC_WildlifePictures--><path d="M1385.38,272.67 C1355.92,283.16 1320.08,294.7 1287,302 C1218.2,317.19 1039.01,316.25 972,338 C930.12,351.59 886.84,377.16 856.69,397.17 " fill="none" id="UC_AddWildlife-&gt;UC_WildlifePictures" style="stroke: #3182BD; stroke-width: 1.0; stroke-dasharray: 7.0,7.0;"/><polygon fill="#3182BD" points="852.34,400.07,862.0473,398.4059,856.5003,397.2965,857.6097,391.7495,852.34,400.07" style="stroke: #3182BD; stroke-width: 1.0;"/><text fill="#000000" font-family="sans-serif" font-size="13" lengthAdjust="spacingAndGlyphs" textLength="61" x="1188" y="326.0669">«include»</text><!--MD5=[cadc934ab46342b7907f393783b01e3e]
link UC_AddWildlife to GMN62--><path d="M1474.72,219.57 C1509.18,185.78 1572.73,130.73 1640,109 C1873.8,33.47 2623.47,173.4 2891.55,227.47 " fill="none" id="UC_AddWildlife-GMN62" style="stroke: #000000; stroke-width: 1.0; stroke-dasharray: 7.0,7.0;"/><!--MD5=[7d0c923ae182f63fe8c7d65f2e029a80]
@startuml

skinparam BackgroundColor white
skinparam shadowing false
skinparam defaultFontName SansSerif
skinparam ArrowColor black
skinparam ArrowThickness 1

skinparam classAttributeIconSize 0
skinparam class {
  BackgroundColor white
  BorderColor black
  FontColor black
}
skinparam package {
  BackgroundColor white
  BorderColor black
  FontColor black
}
skinparam stereotype {
  BackgroundColor white
  FontColor black
}

skinparam sequenceMessageAlign center
skinparam LifeLineBorderColor black
skinparam LifeLineBackgroundColor white
skinparam sequence {
  ArrowColor black
  LifeLineBorderColor black
}
skinparam participant {
  BackgroundColor white
  BorderColor black
  FontColor black
}
skinparam actor {
  BackgroundColor white
  BorderColor black
  FontColor black
}
skinparam boundary {
  BackgroundColor white
  BorderColor black
  FontColor black
}
skinparam control {
  BackgroundColor white
  BorderColor black
  FontColor black
}
skinparam database {
  BackgroundColor white
  BorderColor black
  FontColor black
}
skinparam entity {
  BackgroundColor white
  BorderColor black
  FontColor black
}
skinparam collections {
  BackgroundColor white
  BorderColor black
  FontColor black
}
skinparam note {
  BackgroundColor white
  BorderColor black
  FontColor black
}

top to bottom direction
skinparam packageStyle rectangle
skinparam actorStyle awesome
skinparam ranksep 70
skinparam nodesep 60
skinparam DefaultTextAlignment center

skinparam usecase {
  BackgroundColor white
  BorderColor black
}

skinparam rectangle {
  BackgroundColor white
  BorderColor black
}

actor "End User" as EndUser

rectangle "Wildlife Explorer" {

  package "Use" {
    usecase "UC-01 — Search Trails" as UC_Search
    usecase "UC-02 — View Trail Information\n(trail, wildlife, images)" as UC_View
  }

  package "Contribute" {
    usecase "UC-03 — Add New Trail" as UC_AddTrail
    usecase "UC-04 — Rate Existing Trail\n(score 0-10)" as UC_RateTrail
    usecase "UC-05 — Edit Existing Trail Information" as UC_EditTrail
    usecase "UC-06 — Add Wildlife to Trail\n(new species or from catalog)" as UC_AddWildlife
    usecase "UC-07 — Remove Wildlife from Trail" as UC_RemoveWildlife
    usecase "UC-08 — Delete Trail" as UC_DeleteTrail
  }

  package "Required Trail Details" {
    usecase "UC-09 — Provide Trail Name" as UC_TrailName
    usecase "UC-10 — Provide Trail Length" as UC_TrailLength
    usecase "UC-11 — Provide Elevation Changes" as UC_Elevation
    usecase "UC-12 — Provide Trail Pictures\n(optional)" as UC_TrailPictures
  }

  package "Wildlife details\n(mainly when creating new species)" {
    usecase "UC-13 — Provide Wildlife Name" as UC_WildlifeName
    usecase "UC-14 — Provide Wildlife Description" as UC_WildlifeDesc
    usecase "UC-15 — Provide Encounter Notes" as UC_EncounterNotes
    usecase "UC-16 — Provide Wildlife Pictures\n(optional)" as UC_WildlifePictures
  }
}

EndUser - -> UC_Search
EndUser - -> UC_AddTrail
EndUser - -> UC_RateTrail
EndUser - -> UC_EditTrail
EndUser - -> UC_AddWildlife
EndUser - -> UC_RemoveWildlife
EndUser - -> UC_DeleteTrail

UC_Search .[#1f77b4].> UC_View : <<include>>
UC_RateTrail .[#2ca02c].> UC_View : <<include>>
UC_EditTrail .[#d62728].> UC_View : <<include>>
UC_AddWildlife .[#9467bd].> UC_View : <<include>>
UC_RemoveWildlife .[#98df8a].> UC_View : <<include>>

UC_AddTrail .[#ff7f0e].> UC_TrailName : <<include>>
UC_AddTrail .[#bcbd22].> UC_TrailLength : <<include>>
UC_AddTrail .[#17becf].> UC_Elevation : <<include>>
UC_AddTrail .[#8c564b].> UC_TrailPictures : <<include>>

UC_AddWildlife .[#e377c2].> UC_WildlifeName : <<include>>
UC_AddWildlife .[#7f7f7f].> UC_WildlifeDesc : <<include>>
UC_AddWildlife .[#8c6d31].> UC_EncounterNotes : <<include>>
UC_AddWildlife .[#3182bd].> UC_WildlifePictures : <<include>>

note right of UC_AddWildlife
  End User may **attach an existing catalog species**
  instead of filling all wildlife detail fields (UC-13-UC-16).
end note

@enduml

PlantUML version 1.2020.02(Sun Mar 01 05:22:07 EST 2020)
(GPL source distribution)
Java Runtime: OpenJDK Runtime Environment
JVM: OpenJDK 64-Bit Server VM
Java Version: 21.0.10+7-Ubuntu-124.04
Operating System: Linux
Default Encoding: UTF-8
Language: en
Country: null
--></g></svg>