<?xml version="1.0" encoding="UTF-8" standalone="no"?><svg xmlns="http://www.w3.org/2000/svg" xmlns:xlink="http://www.w3.org/1999/xlink" contentScriptType="application/ecmascript" contentStyleType="text/css" height="491px" preserveAspectRatio="none" style="width:2671px;height:491px;" version="1.1" viewBox="0 0 2671 491" width="2671px" zoomAndPan="magnify"><defs/><g><!--MD5=[1ca641517f5856b3b8b28f1151810449]
cluster Wildlife Explorer--><rect fill="#FFFFFF" height="341" style="stroke: #000000; stroke-width: 1.5;" width="2280" x="22" y="139"/><text fill="#000000" font-family="sans-serif" font-size="14" font-weight="bold" lengthAdjust="spacingAndGlyphs" textLength="128" x="1098" y="153.9951">Wildlife Explorer</text><!--MD5=[83ab74bcd81cd77127c8093a615ae583]
cluster Use--><polygon fill="#FFFFFF" points="46,194,82,194,89,216.2969,290,216.2969,290,456,46,456,46,194" style="stroke: #000000; stroke-width: 1.5;"/><line style="stroke: #000000; stroke-width: 1.5;" x1="46" x2="89" y1="216.2969" y2="216.2969"/><text fill="#000000" font-family="sans-serif" font-size="14" font-weight="bold" lengthAdjust="spacingAndGlyphs" textLength="30" x="50" y="208.9951">Use</text><!--MD5=[a4e6fc278f181bc1693d8f99fc1a0253]
cluster Contribute--><polygon fill="#FFFFFF" points="314,182,404,182,411,204.2969,1546,204.2969,1546,287,314,287,314,182" style="stroke: #000000; stroke-width: 1.5;"/><line style="stroke: #000000; stroke-width: 1.5;" x1="314" x2="411" y1="204.2969" y2="204.2969"/><text fill="#000000" font-family="sans-serif" font-size="14" font-weight="bold" lengthAdjust="spacingAndGlyphs" textLength="84" x="318" y="196.9951">Contribute</text><!--MD5=[e784f4e31f7e429b1aab1976df50e849]
cluster Required Trail Details--><polygon fill="#FFFFFF" points="1348,355,1522,355,1529,377.2969,2278,377.2969,2278,454,1348,454,1348,355" style="stroke: #000000; stroke-width: 1.5;"/><line style="stroke: #000000; stroke-width: 1.5;" x1="1348" x2="1529" y1="377.2969" y2="377.2969"/><text fill="#000000" font-family="sans-serif" font-size="14" font-weight="bold" lengthAdjust="spacingAndGlyphs" textLength="168" x="1352" y="369.9951">Required Trail Details</text><!--MD5=[ab02419a13ff152f602fd0b4d4b4a83b]
cluster Wildlife details\n(mainly when creating new species)--><polygon fill="#FFFFFF" points="318,339,610,339,617,377.5938,1320,377.5938,1320,454,318,454,318,339" style="stroke: #000000; stroke-width: 1.5;"/><line style="stroke: #000000; stroke-width: 1.5;" x1="318" x2="617" y1="377.5938" y2="377.5938"/><text fill="#000000" font-family="sans-serif" font-size="14" font-weight="bold" lengthAdjust="spacingAndGlyphs" textLength="114" x="408" y="353.9951">Wildlife details</text><text fill="#000000" font-family="sans-serif" font-size="14" font-weight="bold" lengthAdjust="spacingAndGlyphs" textLength="286" x="322" y="370.292">(mainly when creating new species)</text><ellipse cx="199.966" cy="243.9932" fill="#FFFFFF" rx="62.966" ry="14.9932" style="stroke: #000000; stroke-width: 1.5;"/><text fill="#000000" font-family="sans-serif" font-size="14" lengthAdjust="spacingAndGlyphs" textLength="88" x="155.966" y="248.6416">Search Trails</text><ellipse cx="168.0305" cy="414.0473" fill="#FFFFFF" rx="105.5305" ry="26.0473" style="stroke: #000000; stroke-width: 1.5;"/><text fill="#000000" font-family="sans-serif" font-size="14" lengthAdjust="spacingAndGlyphs" textLength="145" x="95.5305" y="410.5473">View Trail Information</text><text fill="#000000" font-family="sans-serif" font-size="14" lengthAdjust="spacingAndGlyphs" textLength="145" x="95.5305" y="426.8441">(trail, wildlife, images)</text><ellipse cx="1464.8237" cy="243.8647" fill="#FFFFFF" rx="64.8237" ry="15.3647" style="stroke: #000000; stroke-width: 1.5;"/><text fill="#000000" font-family="sans-serif" font-size="14" lengthAdjust="spacingAndGlyphs" textLength="93" x="1418.3237" y="248.5132">Add New Trail</text><ellipse cx="412.8255" cy="244.1373" fill="#FFFFFF" rx="83.3255" ry="24.6373" style="stroke: #000000; stroke-width: 1.5;"/><text fill="#000000" font-family="sans-serif" font-size="14" lengthAdjust="spacingAndGlyphs" textLength="121" x="352.3255" y="242.701">Rate Existing Trail</text><text fill="#000000" font-family="sans-serif" font-size="14" lengthAdjust="spacingAndGlyphs" textLength="85" x="370.3255" y="258.9978">(score 0-10)</text><ellipse cx="666.1316" cy="244.2263" fill="#FFFFFF" rx="109.1316" ry="24.2263" style="stroke: #000000; stroke-width: 1.5;"/><text fill="#000000" font-family="sans-serif" font-size="14" lengthAdjust="spacingAndGlyphs" textLength="196" x="568.1316" y="248.8748">Edit Existing Trail Information</text><ellipse cx="1216.9331" cy="243.8866" fill="#FFFFFF" rx="122.4331" ry="26.8866" style="stroke: #000000; stroke-width: 1.5;"/><text fill="#000000" font-family="sans-serif" font-size="14" lengthAdjust="spacingAndGlyphs" textLength="128" x="1152.9331" y="236.5159">Add Wildlife to Trail</text><text fill="#000000" font-family="sans-serif" font-size="14" lengthAdjust="spacingAndGlyphs" textLength="204" x="1114.9331" y="252.8128">(new species or from catalog)</text><ellipse cx="935.0203" cy="243.8041" fill="#FFFFFF" rx="99.5203" ry="22.3041" style="stroke: #000000; stroke-width: 1.5;"/><text fill="#000000" font-family="sans-serif" font-size="14" lengthAdjust="spacingAndGlyphs" textLength="175" x="847.5203" y="248.4525">Remove Wildlife from Trail</text><ellipse cx="1442.9465" cy="414.0893" fill="#FFFFFF" rx="78.4465" ry="18.0893" style="stroke: #000000; stroke-width: 1.5;"/><text fill="#000000" font-family="sans-serif" font-size="14" lengthAdjust="spacingAndGlyphs" textLength="127" x="1379.4465" y="418.7377">Provide Trail Name</text><ellipse cx="1663.8427" cy="413.7685" fill="#FFFFFF" rx="81.8427" ry="18.7685" style="stroke: #000000; stroke-width: 1.5;"/><text fill="#000000" font-family="sans-serif" font-size="14" lengthAdjust="spacingAndGlyphs" textLength="135" x="1596.3427" y="418.417">Provide Trail Length</text><ellipse cx="1909.1608" cy="414.0322" fill="#FFFFFF" rx="103.1608" ry="23.0322" style="stroke: #000000; stroke-width: 1.5;"/><text fill="#000000" font-family="sans-serif" font-size="14" lengthAdjust="spacingAndGlyphs" textLength="183" x="1817.6608" y="418.6806">Provide Elevation Changes</text><ellipse cx="2167.1386" cy="413.887" fill="#FFFFFF" rx="94.6386" ry="23.887" style="stroke: #000000; stroke-width: 1.5;"/><text fill="#000000" font-family="sans-serif" font-size="14" lengthAdjust="spacingAndGlyphs" textLength="143" x="2095.6386" y="413.6195">Provide Trail Pictures</text><text fill="#000000" font-family="sans-serif" font-size="14" lengthAdjust="spacingAndGlyphs" textLength="65" x="2134.6386" y="429.9163">(optional)</text><ellipse cx="949.0998" cy="414.22" fill="#FFFFFF" rx="86.5998" ry="19.72" style="stroke: #000000; stroke-width: 1.5;"/><text fill="#000000" font-family="sans-serif" font-size="14" lengthAdjust="spacingAndGlyphs" textLength="146" x="876.0998" y="418.8684">Provide Wildlife Name</text><ellipse cx="1200.0751" cy="414.215" fill="#FFFFFF" rx="104.0751" ry="23.215" style="stroke: #000000; stroke-width: 1.5;"/><text fill="#000000" font-family="sans-serif" font-size="14" lengthAdjust="spacingAndGlyphs" textLength="185" x="1107.5751" y="418.8635">Provide Wildlife Description</text><ellipse cx="432.1626" cy="414.0325" fill="#FFFFFF" rx="98.1626" ry="22.0325" style="stroke: #000000; stroke-width: 1.5;"/><text fill="#000000" font-family="sans-serif" font-size="14" lengthAdjust="spacingAndGlyphs" textLength="172" x="346.1626" y="418.681">Provide Encounter Notes</text><ellipse cx="696.239" cy="413.7713" fill="#FFFFFF" rx="106.239" ry="23.7713" style="stroke: #000000; stroke-width: 1.5;"/><text fill="#000000" font-family="sans-serif" font-size="14" lengthAdjust="spacingAndGlyphs" textLength="162" x="615.239" y="413.6896">Provide Wildlife Pictures</text><text fill="#000000" font-family="sans-serif" font-size="14" lengthAdjust="spacingAndGlyphs" textLength="65" x="663.739" y="429.9865">(optional)</text><!--MD5=[fee662a292a0353a69bd162820bae93b]
entity User--><ellipse cx="749" cy="25.5" fill="#FEFECE" rx="16" ry="16" style="stroke: #A80036; stroke-width: 1.5;"/><path d="M749,45.5 C753,45.5 756,45.5 760,41.5 C768,41.5 776,49.5 776,57.5 L776,61.5 C776,65.5 772,69.5 768,69.5 L730,69.5 C726,69.5 722,65.5 722,61.5 L722,57.5 C722,49.5 730,41.5 738,41.5 C742,45.5 745,45.5 749,45.5 " fill="#FEFECE" style="stroke: #A80036; stroke-width: 1.5;"/><text fill="#000000" font-family="sans-serif" font-size="14" lengthAdjust="spacingAndGlyphs" textLength="32" x="733" y="83.9951">User</text><path d="M2318.5,224 L2318.5,264.2656 L2659.5,264.2656 L2659.5,234 L2649.5,224 L2318.5,224 " fill="#FBFB77" style="stroke: #A80036; stroke-width: 1.0;"/><path d="M2649.5,224 L2649.5,234 L2659.5,234 L2649.5,224 " fill="#FBFB77" style="stroke: #A80036; stroke-width: 1.0;"/><text fill="#000000" font-family="sans-serif" font-size="13" lengthAdjust="spacingAndGlyphs" textLength="62" x="2324.5" y="241.0669">User may</text><text fill="#000000" font-family="sans-serif" font-size="13" font-weight="bold" lengthAdjust="spacingAndGlyphs" textLength="254" x="2390.5" y="241.0669">attach an existing catalog species</text><text fill="#000000" font-family="sans-serif" font-size="13" lengthAdjust="spacingAndGlyphs" textLength="203" x="2324.5" y="256.1997">instead of filling all wildlife fields.</text><!--MD5=[877c095afea871c591873fa9578738d7]
link User to UC_Search--><path d="M720.39,47.95 C646.98,47.71 447.88,54.7 307,131 C264.75,153.88 229.36,199.38 211.83,224.78 " fill="none" id="User-&gt;UC_Search" style="stroke: #A80036; stroke-width: 1.0;"/><polygon fill="#A80036" points="208.97,228.97,217.3444,223.7864,211.7862,224.8386,210.7341,219.2804,208.97,228.97" style="stroke: #A80036; stroke-width: 1.0;"/><!--MD5=[fa4342e28d5f08c5b1961649213aa913]
link User to UC_AddTrail--><path d="M777.62,49.6 C885.32,54.13 1265.47,73.93 1370,131 C1409.61,152.62 1439.86,197.88 1454.76,223.76 " fill="none" id="User-&gt;UC_AddTrail" style="stroke: #A80036; stroke-width: 1.0;"/><polygon fill="#A80036" points="1457.36,228.35,1456.4233,218.5458,1454.9039,223.9948,1449.4549,222.4755,1457.36,228.35" style="stroke: #A80036; stroke-width: 1.0;"/><!--MD5=[1de19098201f0cf804e05cc367e12f0d]
link User to UC_RateTrail--><path d="M720.27,55.04 C676.19,65.96 590.33,90.75 527,131 C490.33,154.31 455.86,191.02 434.62,216.01 " fill="none" id="User-&gt;UC_RateTrail" style="stroke: #A80036; stroke-width: 1.0;"/><polygon fill="#A80036" points="431.33,219.91,440.1898,215.6084,434.5533,216.0877,434.0741,210.4511,431.33,219.91" style="stroke: #A80036; stroke-width: 1.0;"/><!--MD5=[eab6ee8c59fcbe3570b6667d8b92cfa0]
link User to UC_EditTrail--><path d="M732.4,87.39 C716.26,125.22 692.14,181.74 677.85,215.24 " fill="none" id="User-&gt;UC_EditTrail" style="stroke: #A80036; stroke-width: 1.0;"/><polygon fill="#A80036" points="675.81,220.01,683.0319,213.3134,677.7796,215.4143,675.6787,210.162,675.81,220.01" style="stroke: #A80036; stroke-width: 1.0;"/><!--MD5=[07f7945d41e3ef44b3432c81ecf6a981]
link User to UC_AddWildlife--><path d="M777.72,52.27 C834.77,60.56 965.47,83.51 1065,131 C1110.58,152.75 1156.36,188.89 1185.58,214.22 " fill="none" id="User-&gt;UC_AddWildlife" style="stroke: #A80036; stroke-width: 1.0;"/><polygon fill="#A80036" points="1189.42,217.57,1185.2616,208.6421,1185.65,214.2856,1180.0065,214.674,1189.42,217.57" style="stroke: #A80036; stroke-width: 1.0;"/><!--MD5=[dd25cf75cb4c3279d00e3aeb1741e427]
link User to UC_RemoveWildlife--><path d="M777.65,78.46 C814.23,116.71 876.85,182.19 911.02,217.93 " fill="none" id="User-&gt;UC_RemoveWildlife" style="stroke: #A80036; stroke-width: 1.0;"/><polygon fill="#A80036" points="914.64,221.71,911.3096,212.4413,911.1839,218.0968,905.5284,217.9711,914.64,221.71" style="stroke: #A80036; stroke-width: 1.0;"/><!--MD5=[d3b1a3df598aa1d4e9f515f62281da15]
link UC_Search to UC_View--><path d="M191.32,258.92 C184.36,270.89 175.11,288.9 171,306 C164.89,331.43 164.59,361.23 165.56,382.92 " fill="none" id="UC_Search-&gt;UC_View" style="stroke: #1F77B4; stroke-width: 1.0; stroke-dasharray: 7.0,7.0;"/><polygon fill="#1F77B4" points="165.81,387.97,169.3687,378.7865,165.5674,382.9759,161.3781,379.1747,165.81,387.97" style="stroke: #1F77B4; stroke-width: 1.0;"/><text fill="#000000" font-family="sans-serif" font-size="13" lengthAdjust="spacingAndGlyphs" textLength="61" x="172" y="319.0669">«include»</text><!--MD5=[4717c54a04df29de9e13aa300e067f98]
link UC_RateTrail to UC_View--><path d="M373.17,265.65 C352.4,276.88 326.85,291.41 305,306 C267.68,330.91 227.49,362.98 200.36,385.49 " fill="none" id="UC_RateTrail-&gt;UC_View" style="stroke: #2CA02C; stroke-width: 1.0; stroke-dasharray: 7.0,7.0;"/><polygon fill="#2CA02C" points="196.46,388.74,205.9357,386.0547,200.3023,385.5405,200.8165,379.907,196.46,388.74" style="stroke: #2CA02C; stroke-width: 1.0;"/><text fill="#000000" font-family="sans-serif" font-size="13" lengthAdjust="spacingAndGlyphs" textLength="61" x="306" y="319.0669">«include»</text><!--MD5=[dd2a2026449d5186feb094b0a8251100]
link UC_EditTrail to UC_View--><path d="M617.28,265.57 C590.98,275.9 557.69,287.72 527,295 C487.36,304.4 475.89,297.7 436,306 C410.12,311.38 404.89,317.66 379,323 C349.2,329.15 339.9,321.46 311,331 C272.44,343.73 232.68,367.55 204.91,386.24 " fill="none" id="UC_EditTrail-&gt;UC_View" style="stroke: #D62728; stroke-width: 1.0; stroke-dasharray: 7.0,7.0;"/><polygon fill="#D62728" points="200.56,389.2,210.2524,387.4515,204.696,386.3904,205.757,380.834,200.56,389.2" style="stroke: #D62728; stroke-width: 1.0;"/><text fill="#000000" font-family="sans-serif" font-size="13" lengthAdjust="spacingAndGlyphs" textLength="61" x="437" y="319.0669">«include»</text><!--MD5=[2017e222508c1a5405e2c21e5eb78b80]
link UC_AddWildlife to UC_View--><path d="M1160.26,267.99 C1132.1,278.27 1097.29,289.34 1065,295 C901.21,323.72 854.74,276.95 691,306 C667.47,310.17 663.54,318.89 640,323 C603.98,329.3 346.22,321.16 311,331 C271.36,342.08 231.13,366.58 203.48,385.94 " fill="none" id="UC_AddWildlife-&gt;UC_View" style="stroke: #9467BD; stroke-width: 1.0; stroke-dasharray: 7.0,7.0;"/><polygon fill="#9467BD" points="199.16,389,208.8189,387.0751,203.244,386.1155,204.2037,380.5406,199.16,389" style="stroke: #9467BD; stroke-width: 1.0;"/><text fill="#000000" font-family="sans-serif" font-size="13" lengthAdjust="spacingAndGlyphs" textLength="61" x="692" y="319.0669">«include»</text><!--MD5=[4da1dae7f68fece79bd0ab9129310a9e]
link UC_RemoveWildlife to UC_View--><path d="M894.17,264.6 C869.06,275.66 835.89,288.53 805,295 C700.93,316.81 670.8,287.97 566,306 C540.37,310.41 535.65,318.66 510,323 C466.36,330.38 353.53,318.75 311,331 C271.45,342.39 231.21,366.86 203.54,386.12 " fill="none" id="UC_RemoveWildlife-&gt;UC_View" style="stroke: #98DF8A; stroke-width: 1.0; stroke-dasharray: 7.0,7.0;"/><polygon fill="#98DF8A" points="199.2,389.16,208.8634,387.2576,203.2908,386.285,204.2634,380.7124,199.2,389.16" style="stroke: #98DF8A; stroke-width: 1.0;"/><text fill="#000000" font-family="sans-serif" font-size="13" lengthAdjust="spacingAndGlyphs" textLength="61" x="567" y="319.0669">«include»</text><!--MD5=[e5d603bc2c513b9a34c85b207d6754f4]
link UC_AddTrail to UC_TrailName--><path d="M1463.09,259.62 C1459.24,289.02 1450.53,355.49 1445.95,390.48 " fill="none" id="UC_AddTrail-&gt;UC_TrailName" style="stroke: #FF7F0E; stroke-width: 1.0; stroke-dasharray: 7.0,7.0;"/><polygon fill="#FF7F0E" points="1445.25,395.82,1450.398,387.4237,1445.9071,390.8634,1442.4674,386.3724,1445.25,395.82" style="stroke: #FF7F0E; stroke-width: 1.0;"/><text fill="#000000" font-family="sans-serif" font-size="13" lengthAdjust="spacingAndGlyphs" textLength="61" x="1457" y="319.0669">«include»</text><!--MD5=[bc6f0bb9d87dea92266e85fa4168b2d8]
link UC_AddTrail to UC_TrailLength--><path d="M1481.62,259.03 C1516.65,288.6 1598.16,357.42 1639.31,392.15 " fill="none" id="UC_AddTrail-&gt;UC_TrailLength" style="stroke: #BCBD22; stroke-width: 1.0; stroke-dasharray: 7.0,7.0;"/><polygon fill="#BCBD22" points="1643.16,395.41,1638.8584,386.5502,1639.3377,392.1867,1633.7011,392.6659,1643.16,395.41" style="stroke: #BCBD22; stroke-width: 1.0;"/><text fill="#000000" font-family="sans-serif" font-size="13" lengthAdjust="spacingAndGlyphs" textLength="61" x="1553" y="319.0669">«include»</text><!--MD5=[001fa091f8b1e8eaad5dcf9b4f34ae2e]
link UC_AddTrail to UC_Elevation--><path d="M1514.4,254.15 C1577.01,266.76 1687.42,292.38 1776,331 C1811.96,346.68 1849.74,370.82 1875.81,388.85 " fill="none" id="UC_AddTrail-&gt;UC_Elevation" style="stroke: #17BECF; stroke-width: 1.0; stroke-dasharray: 7.0,7.0;"/><polygon fill="#17BECF" points="1880.21,391.91,1875.113,383.4826,1876.1078,389.0513,1870.5391,390.0461,1880.21,391.91" style="stroke: #17BECF; stroke-width: 1.0;"/><text fill="#000000" font-family="sans-serif" font-size="13" lengthAdjust="spacingAndGlyphs" textLength="61" x="1752" y="319.0669">«include»</text><!--MD5=[9efda5b5fc07abd0a89ad5779f58f71e]
link UC_AddTrail to UC_TrailPictures--><path d="M1530.03,245.68 C1639.33,248.78 1865.27,263.62 2042,331 C2077.08,344.37 2112.42,368.81 2136.53,387.54 " fill="none" id="UC_AddTrail-&gt;UC_TrailPictures" style="stroke: #8C564B; stroke-width: 1.0; stroke-dasharray: 7.0,7.0;"/><polygon fill="#8C564B" points="2140.6,390.73,2135.993,382.0251,2136.6679,387.6415,2131.0515,388.3164,2140.6,390.73" style="stroke: #8C564B; stroke-width: 1.0;"/><text fill="#000000" font-family="sans-serif" font-size="13" lengthAdjust="spacingAndGlyphs" textLength="61" x="2013" y="319.0669">«include»</text><!--MD5=[7274beb3eeb6a867ed83248d8fde093c]
link UC_AddWildlife to UC_WildlifeName--><path d="M1172.09,269.14 C1141.71,285.81 1100.92,308.89 1066,331 C1035.03,350.61 1000.82,374.91 977.44,391.95 " fill="none" id="UC_AddWildlife-&gt;UC_WildlifeName" style="stroke: #E377C2; stroke-width: 1.0; stroke-dasharray: 7.0,7.0;"/><polygon fill="#E377C2" points="973.2,395.04,982.8257,392.9552,977.2356,392.0881,978.1027,386.4981,973.2,395.04" style="stroke: #E377C2; stroke-width: 1.0;"/><text fill="#000000" font-family="sans-serif" font-size="13" lengthAdjust="spacingAndGlyphs" textLength="61" x="1107" y="319.0669">«include»</text><!--MD5=[c7b36f2e065a4d33406d9c0b6ce4c15a]
link UC_AddWildlife to UC_WildlifeDesc--><path d="M1214.34,271.25 C1211.19,302.39 1205.96,354.07 1202.77,385.67 " fill="none" id="UC_AddWildlife-&gt;UC_WildlifeDesc" style="stroke: #7F7F7F; stroke-width: 1.0; stroke-dasharray: 7.0,7.0;"/><polygon fill="#7F7F7F" points="1202.23,390.95,1207.1081,382.3941,1202.7289,385.975,1199.148,381.5958,1202.23,390.95" style="stroke: #7F7F7F; stroke-width: 1.0;"/><text fill="#000000" font-family="sans-serif" font-size="13" lengthAdjust="spacingAndGlyphs" textLength="61" x="1211" y="319.0669">«include»</text><!--MD5=[2c371d36335bdc5389aecc2bbe8f18f7]
link UC_AddWildlife to UC_EncounterNotes--><path d="M1159.86,267.9 C1131.76,278.1 1097.11,289.12 1065,295 C957.35,314.73 926.55,285.74 819,306 C795.93,310.35 792.08,318.73 769,323 C723.3,331.46 604.35,317.09 560,331 C521.91,342.95 484.15,369.4 459.62,389.05 " fill="none" id="UC_AddWildlife-&gt;UC_EncounterNotes" style="stroke: #8C6D31; stroke-width: 1.0; stroke-dasharray: 7.0,7.0;"/><polygon fill="#8C6D31" points="455.5,392.39,465.0131,389.8402,459.3876,389.2457,459.9821,383.6201,455.5,392.39" style="stroke: #8C6D31; stroke-width: 1.0;"/><text fill="#000000" font-family="sans-serif" font-size="13" lengthAdjust="spacingAndGlyphs" textLength="61" x="820" y="319.0669">«include»</text><!--MD5=[bd7ef79fa36e5b1d9c87e1c3e08d8907]
link UC_AddWildlife to UC_WildlifePictures--><path d="M1155.87,267.47 C1128.37,276.97 1095.35,287.53 1065,295 C1055.81,297.26 906.36,321.64 897,323 C868.63,327.13 860.1,321.66 833,331 C794.81,344.16 755.72,368.9 729.11,387.78 " fill="none" id="UC_AddWildlife-&gt;UC_WildlifePictures" style="stroke: #3182BD; stroke-width: 1.0; stroke-dasharray: 7.0,7.0;"/><polygon fill="#3182BD" points="724.95,390.76,734.5966,388.7742,729.0158,387.8498,729.9402,382.269,724.95,390.76" style="stroke: #3182BD; stroke-width: 1.0;"/><text fill="#000000" font-family="sans-serif" font-size="13" lengthAdjust="spacingAndGlyphs" textLength="61" x="1000" y="319.0669">«include»</text><!--MD5=[300d7979160b9b38157fee7109b5cca5]
link UC_AddWildlife to GMN61--><path d="M1241.77,217.33 C1274.34,184.43 1335.09,130.25 1400,109 C1451.95,91.99 1468.47,105.21 1523,109 C1836.58,130.81 2203.3,191.97 2381.22,223.95 " fill="none" id="UC_AddWildlife-GMN61" style="stroke: #A80036; stroke-width: 1.0; stroke-dasharray: 7.0,7.0;"/><!--MD5=[bf142892b3bb0c492afc8e6305fb2439]
@startuml
top to bottom direction
skinparam shadowing false
skinparam packageStyle rectangle
skinparam actorStyle awesome
skinparam ranksep 70
skinparam nodesep 60
skinparam DefaultTextAlignment center

skinparam usecase {
  BackgroundColor white
  BorderColor black
}

skinparam rectangle {
  BackgroundColor white
  BorderColor black
}

actor User

rectangle "Wildlife Explorer" {

  package "Use" {
    usecase "Search Trails" as UC_Search
    usecase "View Trail Information\n(trail, wildlife, images)" as UC_View
  }

  package "Contribute" {
    usecase "Add New Trail" as UC_AddTrail
    usecase "Rate Existing Trail\n(score 0-10)" as UC_RateTrail
    usecase "Edit Existing Trail Information" as UC_EditTrail
    usecase "Add Wildlife to Trail\n(new species or from catalog)" as UC_AddWildlife
    usecase "Remove Wildlife from Trail" as UC_RemoveWildlife
  }

  package "Required Trail Details" {
    usecase "Provide Trail Name" as UC_TrailName
    usecase "Provide Trail Length" as UC_TrailLength
    usecase "Provide Elevation Changes" as UC_Elevation
    usecase "Provide Trail Pictures\n(optional)" as UC_TrailPictures
  }

  package "Wildlife details\n(mainly when creating new species)" {
    usecase "Provide Wildlife Name" as UC_WildlifeName
    usecase "Provide Wildlife Description" as UC_WildlifeDesc
    usecase "Provide Encounter Notes" as UC_EncounterNotes
    usecase "Provide Wildlife Pictures\n(optional)" as UC_WildlifePictures
  }
}

User - -> UC_Search
User - -> UC_AddTrail
User - -> UC_RateTrail
User - -> UC_EditTrail
User - -> UC_AddWildlife
User - -> UC_RemoveWildlife

UC_Search .[#1f77b4].> UC_View : <<include>>
UC_RateTrail .[#2ca02c].> UC_View : <<include>>
UC_EditTrail .[#d62728].> UC_View : <<include>>
UC_AddWildlife .[#9467bd].> UC_View : <<include>>
UC_RemoveWildlife .[#98df8a].> UC_View : <<include>>

UC_AddTrail .[#ff7f0e].> UC_TrailName : <<include>>
UC_AddTrail .[#bcbd22].> UC_TrailLength : <<include>>
UC_AddTrail .[#17becf].> UC_Elevation : <<include>>
UC_AddTrail .[#8c564b].> UC_TrailPictures : <<include>>

UC_AddWildlife .[#e377c2].> UC_WildlifeName : <<include>>
UC_AddWildlife .[#7f7f7f].> UC_WildlifeDesc : <<include>>
UC_AddWildlife .[#8c6d31].> UC_EncounterNotes : <<include>>
UC_AddWildlife .[#3182bd].> UC_WildlifePictures : <<include>>

note right of UC_AddWildlife
  User may **attach an existing catalog species**
  instead of filling all wildlife fields.
end note

@enduml

PlantUML version 1.2020.02(Sun Mar 01 05:22:07 EST 2020)
(GPL source distribution)
Java Runtime: OpenJDK Runtime Environment
JVM: OpenJDK 64-Bit Server VM
Java Version: 21.0.10+7-Ubuntu-124.04
Operating System: Linux
Default Encoding: UTF-8
Language: en
Country: null
--></g></svg>